<svg id="Warstwa_1" data-name="Warstwa 1" xmlns="http://www.w3.org/2000/svg" viewBox="0 0 175 119"><defs><style>.cls-1{fill:#ffcc5a;}.cls-2{fill:#b3b3b3;}.cls-3{fill:#ccc;}.cls-4{fill:#f9fff0;}.cls-5{fill:#bcbcbc;}.cls-6{opacity:0.05;}.cls-7{fill:#c69c6d;}.cls-11,.cls-8{fill:#fff;}.cls-8{opacity:0.45;}.cls-9{fill:#f0f4f6;}.cls-10{opacity:0.66;}</style></defs><circle class="cls-1" cx="47.781" cy="44.503" r="22.241"/><rect class="cls-2" x="40.242" y="29.717" width="18.824" height="25.657"/><rect class="cls-3" x="38.31" y="31.991" width="18.824" height="25.657"/><path class="cls-4" d="M55.321,59.289H36.5V39.026l5.4-5.394H55.321Z"/><rect class="cls-5" x="40.696" y="42.348" width="5.971" height="1.249"/><rect class="cls-5" x="40.696" y="44.705" width="10.811" height="1.249"/><rect class="cls-5" x="40.696" y="46.966" width="10.811" height="1.249"/><rect class="cls-5" x="40.696" y="49.323" width="10.811" height="1.249"/><polygon class="cls-6" points="41.919 39.048 36.498 44.469 36.498 39.026 39.197 36.326 41.919 39.048"/><polygon class="cls-5" points="41.892 39.027 36.497 39.027 41.892 33.632 41.892 39.027"/><circle class="cls-7" cx="47.781" cy="74.497" r="22.241"/><rect class="cls-2" x="40.242" y="59.711" width="18.824" height="25.657"/><rect class="cls-3" x="38.31" y="61.986" width="18.824" height="25.657"/><path class="cls-4" d="M55.321,89.283H36.5V69.021l5.4-5.4H55.321Z"/><rect class="cls-5" x="40.696" y="72.343" width="5.971" height="1.249"/><rect class="cls-5" x="40.696" y="74.7" width="10.811" height="1.249"/><rect class="cls-5" x="40.696" y="76.961" width="10.811" height="1.249"/><rect class="cls-5" x="40.696" y="79.318" width="10.811" height="1.249"/><polygon class="cls-6" points="41.919 69.042 36.498 74.464 36.498 69.02 39.197 66.321 41.919 69.042"/><polygon class="cls-5" points="41.892 69.021 36.497 69.021 41.892 63.626 41.892 69.021"/><path class="cls-8" d="M100.517,46.632l-.025.011V54.93c.053.075.111.143.162.221l.359.541-.359.54c-.173.26-.362.509-.552.759l-.056.073,1.621.249.148.649a8.031,8.031,0,0,1,0,3.525l-.141.663-1.632.242.985,1.328-.368.569c-.053.083-.115.156-.171.237v8.027l.022.009,14.235-13.041Z"/><path class="cls-8" d="M85.57,62.154l-.15-.651a7.856,7.856,0,0,1,0-3.535l.144-.655,1.622-.247-.924-1.257.06-.118H78.006v7.822h8.342l.835-1.12Z"/><path class="cls-9" d="M90.534,50.523l.7-.1a3,3,0,0,0,0-1.313l-.7-.107-.153-.37c.135-.2.29-.378.42-.574a3.061,3.061,0,0,0-.93-.925c-.195.144-.383.285-.567.422l-.376-.158c-.034-.24-.067-.468-.1-.7a3.151,3.151,0,0,0-.663-.072,2.852,2.852,0,0,0-.653.075l-.1.7-.374.154-.561-.417a2.808,2.808,0,0,0-.931.931l.416.565c-.054.128-.105.25-.154.37l-.7.106a2.939,2.939,0,0,0,0,1.313l.7.1c.052.126.1.248.155.374l-.42.562a2.771,2.771,0,0,0,.939.928c.183-.136.368-.275.557-.417l.373.159c.026.179.052.347.077.517.009.059.018.121.027.18a3.125,3.125,0,0,0,.66.073,2.935,2.935,0,0,0,.656-.075c.034-.237.067-.466.1-.7l.376-.154.565.424a3.111,3.111,0,0,0,.932-.931c-.144-.193-.285-.384-.423-.57l.013-.031Zm-3.553-.761a1.186,1.186,0,1,1,1.186,1.186A1.186,1.186,0,0,1,86.981,49.762Z"/><path class="cls-9" d="M100.864,61.282a7.083,7.083,0,0,0,0-3.1l-1.655-.254c-.123-.3-.24-.581-.36-.874.317-.467.685-.895.993-1.359h0a7.245,7.245,0,0,0-2.2-2.188l-1.341,1-.888-.374c-.082-.568-.159-1.107-.238-1.648a7.483,7.483,0,0,0-1.568-.172,6.81,6.81,0,0,0-1.082.1c-.154.025-.308.045-.463.08-.032.215-.062.423-.093.634l-.15,1.016-.885.365-.331-.246-.893-.664-.005.039-.443.1a7.445,7.445,0,0,0-1.228,1.117,4.608,4.608,0,0,0-.614.844l-.015.024.984,1.336c-.128.3-.248.593-.365.876-.566.086-1.1.167-1.65.251a6.93,6.93,0,0,0,0,3.106l1.649.245c.123.3.242.587.366.885l-.819,1.1-.173.231a6.567,6.567,0,0,0,2.221,2.195l1.317-.986.882.376c.085.571.167,1.11.246,1.649a7.409,7.409,0,0,0,1.561.171,6.879,6.879,0,0,0,1.551-.177c.081-.561.16-1.1.239-1.65l.891-.365,1.336,1a7.317,7.317,0,0,0,2.2-2.2c-.061-.083-.12-.163-.182-.245l-.818-1.1c.135-.317.257-.605.373-.881C99.788,61.443,100.327,61.363,100.864,61.282ZM96.42,59.727a2.805,2.805,0,1,1-2.805-2.8A2.805,2.805,0,0,1,96.42,59.727Z"/><circle class="cls-7" cx="136.011" cy="44.149" r="13.448"/><g class="cls-10"><rect class="cls-11" x="130.145" y="39.687" width="6.48" height="1.355"/><rect class="cls-11" x="130.145" y="42.245" width="11.732" height="1.355"/><rect class="cls-11" x="130.145" y="44.699" width="11.732" height="1.355"/><rect class="cls-11" x="130.145" y="47.256" width="11.732" height="1.355"/></g><circle class="cls-7" cx="136.011" cy="74.851" r="13.448"/><g class="cls-10"><rect class="cls-11" x="130.145" y="70.388" width="6.48" height="1.355"/><rect class="cls-11" x="130.145" y="72.946" width="11.732" height="1.355"/><rect class="cls-11" x="130.145" y="75.4" width="11.732" height="1.355"/><rect class="cls-11" x="130.145" y="77.958" width="11.732" height="1.355"/></g><circle class="cls-1" cx="136.011" cy="105.552" r="13.448"/><g class="cls-10"><rect class="cls-11" x="130.145" y="101.089" width="6.48" height="1.355"/><rect class="cls-11" x="130.145" y="103.647" width="11.732" height="1.355"/><rect class="cls-11" x="130.145" y="106.101" width="11.732" height="1.355"/><rect class="cls-11" x="130.145" y="108.659" width="11.732" height="1.355"/></g><circle class="cls-1" cx="136.011" cy="13.448" r="13.448"/><g class="cls-10"><rect class="cls-11" x="130.145" y="8.986" width="6.48" height="1.355"/><rect class="cls-11" x="130.145" y="11.544" width="11.732" height="1.355"/><rect class="cls-11" x="130.145" y="13.998" width="11.732" height="1.355"/><rect class="cls-11" x="130.145" y="16.555" width="11.732" height="1.355"/></g></svg>