<svg id="Warstwa_1" data-name="Warstwa 1" xmlns="http://www.w3.org/2000/svg" viewBox="0 0 175 119"><defs><style>.cls-1{fill:#f75e71;}.cls-2{fill:#fff;}.cls-3{fill:#c4d451;}.cls-4{fill:#f9fff0;}.cls-5{fill:#bcbcbc;}.cls-6{opacity:0.05;}.cls-7{fill:#f0bf54;}.cls-8{fill:none;stroke:#fff;stroke-miterlimit:10;stroke-width:4.888px;opacity:0.45;}</style></defs><circle class="cls-1" cx="126.811" cy="59.5" r="29.362"/><rect class="cls-2" x="114.405" y="49.832" width="14.04" height="2.936"/><rect class="cls-2" x="114.405" y="55.374" width="25.419" height="2.936"/><rect class="cls-2" x="114.405" y="60.69" width="25.419" height="2.936"/><rect class="cls-2" x="114.405" y="66.232" width="25.419" height="2.936"/><circle class="cls-3" cx="32.276" cy="44.149" r="13.448"/><path class="cls-4" d="M39.1,53.45H25.453V38.76l3.911-3.911H39.1Z"/><rect class="cls-5" x="28.497" y="41.168" width="4.329" height="0.905"/><rect class="cls-5" x="28.497" y="42.877" width="7.838" height="0.905"/><rect class="cls-5" x="28.497" y="44.516" width="7.838" height="0.905"/><rect class="cls-5" x="28.497" y="46.225" width="7.838" height="0.905"/><polygon class="cls-6" points="29.383 38.776 25.453 42.706 25.453 38.76 27.41 36.803 29.383 38.776"/><polygon class="cls-5" points="29.364 38.761 25.453 38.761 29.364 34.849 29.364 38.761"/><circle class="cls-7" cx="32.276" cy="74.851" r="13.448"/><path class="cls-4" d="M39.1,84.151H25.453V69.461l3.911-3.911H39.1Z"/><rect class="cls-5" x="28.497" y="71.869" width="4.329" height="0.905"/><rect class="cls-5" x="28.497" y="73.578" width="7.838" height="0.905"/><rect class="cls-5" x="28.497" y="75.217" width="7.838" height="0.905"/><rect class="cls-5" x="28.497" y="76.926" width="7.838" height="0.905"/><polygon class="cls-6" points="29.383 69.477 25.453 73.407 25.453 69.461 27.41 67.504 29.383 69.477"/><polygon class="cls-5" points="29.364 69.462 25.453 69.462 29.364 65.55 29.364 69.462"/><circle class="cls-3" cx="32.276" cy="105.552" r="13.448"/><path class="cls-4" d="M39.1,114.852H25.453v-14.69l3.911-3.911H39.1Z"/><rect class="cls-5" x="28.497" y="102.57" width="4.329" height="0.905"/><rect class="cls-5" x="28.497" y="104.279" width="7.838" height="0.905"/><rect class="cls-5" x="28.497" y="105.918" width="7.838" height="0.905"/><rect class="cls-5" x="28.497" y="107.627" width="7.838" height="0.905"/><polygon class="cls-6" points="29.383 100.178 25.453 104.108 25.453 100.162 27.41 98.205 29.383 100.178"/><polygon class="cls-5" points="29.364 100.163 25.453 100.163 29.364 96.251 29.364 100.163"/><circle class="cls-7" cx="32.276" cy="13.448" r="13.448"/><path class="cls-4" d="M39.1,22.749H25.453V8.059l3.911-3.911H39.1Z"/><rect class="cls-5" x="28.497" y="10.467" width="4.329" height="0.905"/><rect class="cls-5" x="28.497" y="12.176" width="7.838" height="0.905"/><rect class="cls-5" x="28.497" y="13.815" width="7.838" height="0.905"/><rect class="cls-5" x="28.497" y="15.524" width="7.838" height="0.905"/><polygon class="cls-6" points="29.383 8.075 25.453 12.005 25.453 8.059 27.41 6.102 29.383 8.075"/><polygon class="cls-5" points="29.364 8.059 25.453 8.059 29.364 4.148 29.364 8.059"/><polyline class="cls-8" points="126.811 22.749 126.811 13.448 52.766 13.448"/><line class="cls-8" x1="52.766" y1="44.149" x2="92.176" y2="44.149"/><line class="cls-8" x1="52.766" y1="74.851" x2="92.176" y2="74.851"/><polyline class="cls-8" points="126.811 96.251 126.811 105.552 52.766 105.552"/></svg>