<svg id="Warstwa_1" data-name="Warstwa 1" xmlns="http://www.w3.org/2000/svg" viewBox="0 0 175 119"><defs><style>.cls-1{fill:#ffcc5a;}.cls-2{fill:#b3b3b3;}.cls-3{fill:#ccc;}.cls-4{fill:#f9fff0;}.cls-5{fill:#bcbcbc;}.cls-6{opacity:0.05;}.cls-7{fill:#c69c6d;}.cls-8{opacity:0.66;}.cls-9{fill:#fff;}.cls-10{opacity:0.45;}</style></defs><circle class="cls-1" cx="47.781" cy="44.503" r="22.241"/><rect class="cls-2" x="40.242" y="29.717" width="18.824" height="25.657"/><rect class="cls-3" x="38.31" y="31.991" width="18.824" height="25.657"/><path class="cls-4" d="M55.321,59.289H36.5V39.026l5.4-5.394H55.321Z"/><rect class="cls-5" x="40.696" y="42.348" width="5.971" height="1.249"/><rect class="cls-5" x="40.696" y="44.705" width="10.811" height="1.249"/><rect class="cls-5" x="40.696" y="46.966" width="10.811" height="1.249"/><rect class="cls-5" x="40.696" y="49.323" width="10.811" height="1.249"/><polygon class="cls-6" points="41.919 39.048 36.498 44.469 36.498 39.026 39.197 36.326 41.919 39.048"/><polygon class="cls-5" points="41.892 39.027 36.497 39.027 41.892 33.632 41.892 39.027"/><circle class="cls-7" cx="47.781" cy="74.497" r="22.241"/><rect class="cls-2" x="40.242" y="59.711" width="18.824" height="25.657"/><rect class="cls-3" x="38.31" y="61.986" width="18.824" height="25.657"/><path class="cls-4" d="M55.321,89.283H36.5V69.021l5.4-5.4H55.321Z"/><rect class="cls-5" x="40.696" y="72.343" width="5.971" height="1.249"/><rect class="cls-5" x="40.696" y="74.7" width="10.811" height="1.249"/><rect class="cls-5" x="40.696" y="76.961" width="10.811" height="1.249"/><rect class="cls-5" x="40.696" y="79.318" width="10.811" height="1.249"/><polygon class="cls-6" points="41.919 69.042 36.498 74.464 36.498 69.02 39.197 66.321 41.919 69.042"/><polygon class="cls-5" points="41.892 69.021 36.497 69.021 41.892 63.626 41.892 69.021"/><circle class="cls-7" cx="136.011" cy="44.149" r="13.448"/><g class="cls-8"><rect class="cls-9" x="130.145" y="39.687" width="6.48" height="1.355"/><rect class="cls-9" x="130.145" y="42.245" width="11.732" height="1.355"/><rect class="cls-9" x="130.145" y="44.699" width="11.732" height="1.355"/><rect class="cls-9" x="130.145" y="47.256" width="11.732" height="1.355"/></g><circle class="cls-7" cx="136.011" cy="74.851" r="13.448"/><g class="cls-8"><rect class="cls-9" x="130.145" y="70.388" width="6.48" height="1.355"/><rect class="cls-9" x="130.145" y="72.946" width="11.732" height="1.355"/><rect class="cls-9" x="130.145" y="75.4" width="11.732" height="1.355"/><rect class="cls-9" x="130.145" y="77.958" width="11.732" height="1.355"/></g><circle class="cls-1" cx="136.011" cy="105.552" r="13.448"/><g class="cls-8"><rect class="cls-9" x="130.145" y="101.089" width="6.48" height="1.355"/><rect class="cls-9" x="130.145" y="103.647" width="11.732" height="1.355"/><rect class="cls-9" x="130.145" y="106.101" width="11.732" height="1.355"/><rect class="cls-9" x="130.145" y="108.659" width="11.732" height="1.355"/></g><circle class="cls-1" cx="136.011" cy="13.448" r="13.448"/><g class="cls-8"><rect class="cls-9" x="130.145" y="8.986" width="6.48" height="1.355"/><rect class="cls-9" x="130.145" y="11.544" width="11.732" height="1.355"/><rect class="cls-9" x="130.145" y="13.998" width="11.732" height="1.355"/><rect class="cls-9" x="130.145" y="16.555" width="11.732" height="1.355"/></g><g class="cls-10"><path class="cls-9" d="M115.23,59.424,100.939,46.4l-.026.011v9.145H78.332v7.9h22.581v9.136l.022.01Z"/></g></svg>