<?xml version="1.0" encoding="utf-8"?>
<!-- Generator: Adobe Illustrator 26.0.1, SVG Export Plug-In . SVG Version: 6.00 Build 0)  -->
<svg version="1.1" id="Warstwa_1" xmlns="http://www.w3.org/2000/svg" xmlns:xlink="http://www.w3.org/1999/xlink" x="0px" y="0px"
	 viewBox="0 0 175 119" style="enable-background:new 0 0 175 119;" xml:space="preserve">
<style type="text/css">
	.st0{fill:#F75E71;}
	.st1{fill:#FFFFFF;}
	.st2{fill:#C4D451;}
	.st3{fill:#F0BF54;}
	.st4{opacity:0.45;fill:none;stroke:#FFFFFF;stroke-width:4.888;stroke-miterlimit:10;enable-background:new    ;}
	.st5{fill:#B3B3B3;}
	.st6{fill:#CCCCCC;}
	.st7{fill:#F9FFF0;}
	.st8{fill:#BCBCBC;}
	.st9{opacity:5.000000e-02;enable-background:new    ;}
</style>
<circle class="st0" cx="126.8" cy="59.5" r="29.4"/>
<g>
	<rect x="114.4" y="49.8" class="st1" width="14" height="2.9"/>
	<rect x="114.4" y="55.4" class="st1" width="25.4" height="2.9"/>
	<rect x="114.4" y="60.7" class="st1" width="25.4" height="2.9"/>
	<rect x="114.4" y="66.2" class="st1" width="25.4" height="2.9"/>
</g>
<circle class="st2" cx="32.3" cy="44.1" r="13.4"/>
<circle class="st3" cx="32.3" cy="74.9" r="13.4"/>
<circle class="st2" cx="32.3" cy="105.6" r="13.4"/>
<circle class="st3" cx="32.3" cy="13.4" r="13.4"/>
<polyline class="st4" points="126.8,22.7 126.8,13.4 52.8,13.4 "/>
<line class="st4" x1="52.8" y1="44.1" x2="92.2" y2="44.1"/>
<line class="st4" x1="52.8" y1="74.9" x2="92.2" y2="74.9"/>
<polyline class="st4" points="126.8,96.3 126.8,105.6 52.8,105.6 "/>
<g>
	<g>
		<rect x="27.7" y="4.5" class="st5" width="11.5" height="15.6"/>
		<rect x="26.5" y="5.9" class="st6" width="11.5" height="15.6"/>
		<path class="st7" d="M36.9,22.5H25.4V10.2l3.3-3.3h8.2V22.5z"/>
		<rect x="28" y="12.2" class="st8" width="3.6" height="0.8"/>
		<rect x="28" y="13.7" class="st8" width="6.6" height="0.8"/>
		<rect x="28" y="15" class="st8" width="6.6" height="0.8"/>
		<rect x="28" y="16.5" class="st8" width="6.6" height="0.8"/>
		<polygon class="st9" points="28.7,10.2 25.4,13.5 25.4,10.2 27.1,8.6 		"/>
		<polygon class="st8" points="28.7,10.2 25.4,10.2 28.7,6.9 		"/>
	</g>
</g>
<g>
	<g>
		<rect x="27.7" y="35.2" class="st5" width="11.5" height="15.6"/>
		<rect x="26.5" y="36.5" class="st6" width="11.5" height="15.6"/>
		<path class="st7" d="M36.9,53.1H25.4V40.8l3.3-3.3h8.2V53.1z"/>
		<rect x="28" y="42.8" class="st8" width="3.6" height="0.8"/>
		<rect x="28" y="44.3" class="st8" width="6.6" height="0.8"/>
		<rect x="28" y="45.6" class="st8" width="6.6" height="0.8"/>
		<rect x="28" y="47.1" class="st8" width="6.6" height="0.8"/>
		<polygon class="st9" points="28.7,40.8 25.4,44.1 25.4,40.8 27.1,39.2 		"/>
		<polygon class="st8" points="28.7,40.8 25.4,40.8 28.7,37.5 		"/>
	</g>
</g>
<g>
	<g>
		<rect x="27.7" y="65.9" class="st5" width="11.5" height="15.6"/>
		<rect x="26.5" y="67.2" class="st6" width="11.5" height="15.6"/>
		<path class="st7" d="M36.9,83.8H25.4V71.5l3.3-3.3h8.2V83.8z"/>
		<rect x="28" y="73.5" class="st8" width="3.6" height="0.8"/>
		<rect x="28" y="75" class="st8" width="6.6" height="0.8"/>
		<rect x="28" y="76.3" class="st8" width="6.6" height="0.8"/>
		<rect x="28" y="77.8" class="st8" width="6.6" height="0.8"/>
		<polygon class="st9" points="28.7,71.5 25.4,74.8 25.4,71.5 27.1,69.9 		"/>
		<polygon class="st8" points="28.7,71.5 25.4,71.5 28.7,68.2 		"/>
	</g>
</g>
<g>
	<g>
		<rect x="27.7" y="96.6" class="st5" width="11.5" height="15.6"/>
		<rect x="26.5" y="97.9" class="st6" width="11.5" height="15.6"/>
		<path class="st7" d="M36.9,114.5H25.4v-12.3l3.3-3.3h8.2V114.5z"/>
		<rect x="28" y="104.2" class="st8" width="3.6" height="0.8"/>
		<rect x="28" y="105.7" class="st8" width="6.6" height="0.8"/>
		<rect x="28" y="107.1" class="st8" width="6.6" height="0.8"/>
		<rect x="28" y="108.5" class="st8" width="6.6" height="0.8"/>
		<polygon class="st9" points="28.7,102.2 25.4,105.5 25.4,102.2 27.1,100.6 		"/>
		<polygon class="st8" points="28.7,102.2 25.4,102.2 28.7,98.9 		"/>
	</g>
</g>
</svg>
