<?xml version="1.0" encoding="utf-8"?>
<!-- Generator: Adobe Illustrator 26.0.1, SVG Export Plug-In . SVG Version: 6.00 Build 0)  -->
<svg version="1.1" id="Warstwa_1" xmlns="http://www.w3.org/2000/svg" xmlns:xlink="http://www.w3.org/1999/xlink" x="0px" y="0px"
	 viewBox="0 0 175 119" style="enable-background:new 0 0 175 119;" xml:space="preserve">
<style type="text/css">
	.st0{fill:#FFCC5A;}
	.st1{fill:#B3B3B3;}
	.st2{fill:#CCCCCC;}
	.st3{fill:#F9FFF0;}
	.st4{fill:#BCBCBC;}
	.st5{opacity:5.000000e-02;enable-background:new    ;}
	.st6{fill:#C69C6D;}
	.st7{opacity:0.45;fill:#FFFFFF;enable-background:new    ;}
	.st8{fill:#F0F4F6;}
	.st9{fill:#FFFFFF;}
</style>
<circle class="st0" cx="47.8" cy="44.5" r="22.2"/>
<rect x="40.2" y="29.7" class="st1" width="18.8" height="25.7"/>
<rect x="38.3" y="32" class="st2" width="18.8" height="25.7"/>
<path class="st3" d="M55.3,59.3H36.5V39l5.4-5.4h13.4V59.3z"/>
<rect x="40.7" y="42.3" class="st4" width="6" height="1.2"/>
<rect x="40.7" y="44.7" class="st4" width="10.8" height="1.2"/>
<rect x="40.7" y="47" class="st4" width="10.8" height="1.2"/>
<rect x="40.7" y="49.3" class="st4" width="10.8" height="1.2"/>
<polygon class="st5" points="41.9,39 36.5,44.5 36.5,39 39.2,36.3 "/>
<polygon class="st4" points="41.9,39 36.5,39 41.9,33.6 "/>
<circle class="st6" cx="47.8" cy="74.5" r="22.2"/>
<rect x="40.2" y="59.7" class="st1" width="18.8" height="25.7"/>
<rect x="38.3" y="62" class="st2" width="18.8" height="25.7"/>
<path class="st3" d="M55.3,89.3H36.5V69l5.4-5.4h13.4V89.3z"/>
<rect x="40.7" y="72.3" class="st4" width="6" height="1.2"/>
<rect x="40.7" y="74.7" class="st4" width="10.8" height="1.2"/>
<rect x="40.7" y="77" class="st4" width="10.8" height="1.2"/>
<rect x="40.7" y="79.3" class="st4" width="10.8" height="1.2"/>
<polygon class="st5" points="41.9,69 36.5,74.5 36.5,69 39.2,66.3 "/>
<polygon class="st4" points="41.9,69 36.5,69 41.9,63.6 "/>
<path class="st7" d="M100.5,46.6L100.5,46.6l0,8.3c0.1,0.1,0.1,0.1,0.2,0.2l0.4,0.5l-0.4,0.5c-0.2,0.3-0.4,0.5-0.6,0.8l-0.1,0.1
	l1.6,0.2l0.1,0.6c0.3,1.2,0.3,2.4,0,3.5l-0.1,0.7l-1.6,0.2l1,1.3l-0.4,0.6c-0.1,0.1-0.1,0.2-0.2,0.2v8l0,0l14.2-13L100.5,46.6z"/>
<path class="st7" d="M85.6,62.2l-0.2-0.7c-0.3-1.2-0.3-2.4,0-3.5l0.1-0.7l1.6-0.2l-0.9-1.3l0.1-0.1H78v7.8h8.3l0.8-1.1L85.6,62.2z"
	/>
<path class="st8" d="M90.5,50.5l0.7-0.1c0.1-0.4,0.1-0.9,0-1.3L90.5,49l-0.2-0.4c0.1-0.2,0.3-0.4,0.4-0.6c-0.2-0.4-0.6-0.7-0.9-0.9
	c-0.2,0.1-0.4,0.3-0.6,0.4l-0.4-0.2c0-0.2-0.1-0.5-0.1-0.7c-0.2,0-0.4-0.1-0.7-0.1c-0.2,0-0.4,0-0.7,0.1l-0.1,0.7L87,47.6l-0.6-0.4
	c-0.4,0.2-0.7,0.6-0.9,0.9l0.4,0.6c-0.1,0.1-0.1,0.2-0.2,0.4l-0.7,0.1c-0.1,0.4-0.1,0.9,0,1.3l0.7,0.1c0.1,0.1,0.1,0.2,0.2,0.4
	l-0.4,0.6c0.2,0.4,0.6,0.7,0.9,0.9c0.2-0.1,0.4-0.3,0.6-0.4l0.4,0.2c0,0.2,0.1,0.3,0.1,0.5c0,0.1,0,0.1,0,0.2c0.2,0,0.4,0.1,0.7,0.1
	c0.2,0,0.4,0,0.7-0.1c0-0.2,0.1-0.5,0.1-0.7l0.4-0.2l0.6,0.4c0.4-0.2,0.7-0.6,0.9-0.9c-0.1-0.2-0.3-0.4-0.4-0.6l0,0L90.5,50.5z
	 M87,49.8c0-0.7,0.5-1.2,1.2-1.2c0.7,0,1.2,0.5,1.2,1.2c0,0.7-0.5,1.2-1.2,1.2l0,0C87.5,50.9,87,50.4,87,49.8z"/>
<path class="st8" d="M100.9,61.3c0.2-1,0.2-2.1,0-3.1l-1.7-0.3c-0.1-0.3-0.2-0.6-0.4-0.9c0.3-0.5,0.7-0.9,1-1.4l0,0
	c-0.6-0.9-1.3-1.6-2.2-2.2l-1.3,1l-0.9-0.4c-0.1-0.6-0.2-1.1-0.2-1.6c-0.5-0.1-1-0.2-1.6-0.2c-0.4,0-0.7,0-1.1,0.1
	c-0.2,0-0.3,0-0.5,0.1c0,0.2-0.1,0.4-0.1,0.6l-0.2,1l-0.9,0.4l-0.3-0.2l-0.9-0.7l0,0l-0.4,0.1c-0.4,0.3-0.9,0.7-1.2,1.1
	c-0.2,0.3-0.4,0.5-0.6,0.8l0,0l1,1.3c-0.1,0.3-0.2,0.6-0.4,0.9c-0.6,0.1-1.1,0.2-1.7,0.3c-0.2,1-0.2,2.1,0,3.1l1.6,0.2
	c0.1,0.3,0.2,0.6,0.4,0.9l-0.8,1.1l-0.2,0.2c0.6,0.9,1.3,1.7,2.2,2.2l1.3-1l0.9,0.4c0.1,0.6,0.2,1.1,0.2,1.6c0.5,0.1,1,0.2,1.6,0.2
	c0.5,0,1-0.1,1.6-0.2c0.1-0.6,0.2-1.1,0.2-1.7l0.9-0.4l1.3,1c0.9-0.6,1.6-1.3,2.2-2.2c-0.1-0.1-0.1-0.2-0.2-0.2l-0.8-1.1
	c0.1-0.3,0.3-0.6,0.4-0.9C99.8,61.4,100.3,61.4,100.9,61.3z M96.4,59.7c0,1.5-1.3,2.8-2.8,2.8s-2.8-1.3-2.8-2.8s1.3-2.8,2.8-2.8
	c0,0,0,0,0,0C95.2,56.9,96.4,58.2,96.4,59.7z"/>
<circle class="st6" cx="136" cy="44.1" r="13.4"/>
<g>
	<rect x="130.1" y="39.7" class="st9" width="6.5" height="1.4"/>
	<rect x="130.1" y="42.2" class="st9" width="11.7" height="1.4"/>
	<rect x="130.1" y="44.7" class="st9" width="11.7" height="1.4"/>
	<rect x="130.1" y="47.3" class="st9" width="11.7" height="1.4"/>
</g>
<circle class="st6" cx="136" cy="74.9" r="13.4"/>
<g>
	<rect x="130.1" y="70.4" class="st9" width="6.5" height="1.4"/>
	<rect x="130.1" y="72.9" class="st9" width="11.7" height="1.4"/>
	<rect x="130.1" y="75.4" class="st9" width="11.7" height="1.4"/>
	<rect x="130.1" y="78" class="st9" width="11.7" height="1.4"/>
</g>
<circle class="st0" cx="136" cy="105.6" r="13.4"/>
<g>
	<rect x="130.1" y="101.1" class="st9" width="6.5" height="1.4"/>
	<rect x="130.1" y="103.6" class="st9" width="11.7" height="1.4"/>
	<rect x="130.1" y="106.1" class="st9" width="11.7" height="1.4"/>
	<rect x="130.1" y="108.7" class="st9" width="11.7" height="1.4"/>
</g>
<circle class="st0" cx="136" cy="13.4" r="13.4"/>
<g>
	<rect x="130.1" y="9" class="st9" width="6.5" height="1.4"/>
	<rect x="130.1" y="11.5" class="st9" width="11.7" height="1.4"/>
	<rect x="130.1" y="14" class="st9" width="11.7" height="1.4"/>
	<rect x="130.1" y="16.6" class="st9" width="11.7" height="1.4"/>
</g>
</svg>
