<?xml version="1.0" encoding="utf-8"?>
<!-- Generator: Adobe Illustrator 26.0.1, SVG Export Plug-In . SVG Version: 6.00 Build 0)  -->
<svg version="1.1" id="Warstwa_1" xmlns="http://www.w3.org/2000/svg" xmlns:xlink="http://www.w3.org/1999/xlink" x="0px" y="0px"
	 viewBox="0 0 175 119" style="enable-background:new 0 0 175 119;" xml:space="preserve">
<style type="text/css">
	.st0{fill:#FFCC5A;}
	.st1{fill:#B3B3B3;}
	.st2{fill:#CCCCCC;}
	.st3{fill:#F9FFF0;}
	.st4{fill:#BCBCBC;}
	.st5{opacity:5.000000e-02;enable-background:new    ;}
	.st6{fill:#C69C6D;}
	.st7{fill:#FFFFFF;}
	.st8{opacity:0.45;}
</style>
<g>
	<circle class="st0" cx="47.8" cy="44.5" r="22.2"/>
	<g>
		<rect x="40.2" y="29.7" class="st1" width="18.8" height="25.7"/>
		<rect x="38.3" y="32" class="st2" width="18.8" height="25.7"/>
		<path class="st3" d="M55.3,59.3H36.5V39l5.4-5.4h13.4V59.3z"/>
		<rect x="40.7" y="42.3" class="st4" width="6" height="1.2"/>
		<rect x="40.7" y="44.7" class="st4" width="10.8" height="1.2"/>
		<rect x="40.7" y="47" class="st4" width="10.8" height="1.2"/>
		<rect x="40.7" y="49.3" class="st4" width="10.8" height="1.2"/>
		<polygon class="st5" points="41.9,39 36.5,44.5 36.5,39 39.2,36.3 		"/>
		<polygon class="st4" points="41.9,39 36.5,39 41.9,33.6 		"/>
	</g>
</g>
<circle class="st6" cx="47.8" cy="74.5" r="22.2"/>
<rect x="40.2" y="59.7" class="st1" width="18.8" height="25.7"/>
<rect x="38.3" y="62" class="st2" width="18.8" height="25.7"/>
<path class="st3" d="M55.3,89.3H36.5V69l5.4-5.4h13.4V89.3z"/>
<rect x="40.7" y="72.3" class="st4" width="6" height="1.2"/>
<rect x="40.7" y="74.7" class="st4" width="10.8" height="1.2"/>
<rect x="40.7" y="77" class="st4" width="10.8" height="1.2"/>
<rect x="40.7" y="79.3" class="st4" width="10.8" height="1.2"/>
<polygon class="st5" points="41.9,69 36.5,74.5 36.5,69 39.2,66.3 "/>
<polygon class="st4" points="41.9,69 36.5,69 41.9,63.6 "/>
<circle class="st6" cx="136" cy="44.1" r="13.4"/>
<g>
	<rect x="130.1" y="39.7" class="st7" width="6.5" height="1.4"/>
	<rect x="130.1" y="42.2" class="st7" width="11.7" height="1.4"/>
	<rect x="130.1" y="44.7" class="st7" width="11.7" height="1.4"/>
	<rect x="130.1" y="47.3" class="st7" width="11.7" height="1.4"/>
</g>
<circle class="st6" cx="136" cy="74.9" r="13.4"/>
<g>
	<rect x="130.1" y="70.4" class="st7" width="6.5" height="1.4"/>
	<rect x="130.1" y="72.9" class="st7" width="11.7" height="1.4"/>
	<rect x="130.1" y="75.4" class="st7" width="11.7" height="1.4"/>
	<rect x="130.1" y="78" class="st7" width="11.7" height="1.4"/>
</g>
<circle class="st0" cx="136" cy="105.6" r="13.4"/>
<g>
	<rect x="130.1" y="101.1" class="st7" width="6.5" height="1.4"/>
	<rect x="130.1" y="103.6" class="st7" width="11.7" height="1.4"/>
	<rect x="130.1" y="106.1" class="st7" width="11.7" height="1.4"/>
	<rect x="130.1" y="108.7" class="st7" width="11.7" height="1.4"/>
</g>
<circle class="st0" cx="136" cy="13.4" r="13.4"/>
<g>
	<rect x="130.1" y="9" class="st7" width="6.5" height="1.4"/>
	<rect x="130.1" y="11.5" class="st7" width="11.7" height="1.4"/>
	<rect x="130.1" y="14" class="st7" width="11.7" height="1.4"/>
	<rect x="130.1" y="16.6" class="st7" width="11.7" height="1.4"/>
</g>
<g class="st8">
	<path class="st7" d="M115.2,59.4l-14.3-13l0,0v9.1H78.3v7.9h22.6v9.1l0,0L115.2,59.4z"/>
</g>
</svg>
