<?xml version="1.0" encoding="utf-8"?>
<!-- Generator: Adobe Illustrator 26.0.1, SVG Export Plug-In . SVG Version: 6.00 Build 0)  -->
<svg version="1.1" id="Warstwa_1" xmlns="http://www.w3.org/2000/svg" xmlns:xlink="http://www.w3.org/1999/xlink" x="0px" y="0px"
	 viewBox="0 0 175 119" style="enable-background:new 0 0 175 119;" xml:space="preserve">
<style type="text/css">
	.st0{fill:#F9FFF0;}
	.st1{fill:#3B4654;}
	.st2{opacity:0.45;}
	.st3{fill:none;stroke:#FFFFFF;stroke-width:1.792;stroke-miterlimit:10;}
	.st4{fill:none;stroke:#FFFFFF;stroke-width:1.792;stroke-miterlimit:10;stroke-dasharray:5.661,5.661;}
	
		.st5{opacity:0.45;fill:none;stroke:#FFFFFF;stroke-width:1.792;stroke-miterlimit:10;stroke-dasharray:5.375;enable-background:new    ;}
	
		.st6{opacity:0.45;fill:none;stroke:#7C5D43;stroke-width:1.792;stroke-miterlimit:10;stroke-dasharray:5.375;enable-background:new    ;}
	.st7{fill:#BCBCBC;}
	.st8{opacity:5.000000e-02;enable-background:new    ;}
	
		.st9{opacity:0.45;fill:none;stroke:#5D7486;stroke-width:1.792;stroke-miterlimit:10;stroke-dasharray:5.375;enable-background:new    ;}
	
		.st10{opacity:0.45;fill:none;stroke:#CC9292;stroke-width:1.792;stroke-miterlimit:10;stroke-dasharray:5.375;enable-background:new    ;}
	.st11{fill:#50ACFF;enable-background:new    ;}
</style>
<circle class="st0" cx="148.3" cy="9.6" r="9.6"/>
<path class="st1" d="M151.6,13.5v1.3h-5.8v-1.3h2.1V7.4c0-0.2,0-0.5,0-0.7l-1.5,1.3C146.3,8,146.2,8,146.1,8c-0.2,0-0.3,0-0.4-0.1
	c-0.1,0-0.1-0.1-0.1-0.1L145,7.1l3.2-2.7h1.5v9.1H151.6z"/>
<g class="st2">
	<line class="st3" x1="30.1" y1="22.3" x2="32" y2="24.3"/>
	<line class="st4" x1="35.8" y1="28.4" x2="64.8" y2="59.4"/>
	<line class="st3" x1="66.8" y1="61.5" x2="68.6" y2="63.5"/>
</g>
<line class="st5" x1="37.5" y1="50.8" x2="37.5" y2="74.7"/>
<circle class="st6" cx="87.1" cy="82.3" r="20.4"/>
<path class="st0" d="M97.4,96.4H76.7V74.1l5.9-5.9h14.8V96.4z"/>
<rect x="81.3" y="77.8" class="st7" width="6.6" height="1.4"/>
<rect x="81.3" y="80.4" class="st7" width="11.9" height="1.4"/>
<rect x="81.3" y="82.9" class="st7" width="11.9" height="1.4"/>
<rect x="81.3" y="85.4" class="st7" width="11.9" height="1.4"/>
<polygon class="st8" points="82.7,74.2 76.7,80.1 76.7,74.1 79.7,71.2 "/>
<polygon class="st7" points="82.7,74.1 76.7,74.1 82.7,68.2 "/>
<circle class="st9" cx="37.5" cy="98.6" r="20.4"/>
<path class="st0" d="M47.9,112.7H27.2V90.5l5.9-5.9h14.8V112.7z"/>
<rect x="31.8" y="94.1" class="st7" width="6.6" height="1.4"/>
<rect x="31.8" y="96.7" class="st7" width="11.9" height="1.4"/>
<rect x="31.8" y="99.2" class="st7" width="11.9" height="1.4"/>
<rect x="31.8" y="101.8" class="st7" width="11.9" height="1.4"/>
<polygon class="st8" points="33.1,90.5 27.2,96.4 27.2,90.5 30.1,87.5 "/>
<polygon class="st7" points="33.1,90.5 27.2,90.5 33.1,84.5 "/>
<line class="st5" x1="55.5" y1="29.7" x2="79.7" y2="29.7"/>
<circle class="st10" cx="102.8" cy="33.6" r="20.4"/>
<path class="st0" d="M113.1,47.7H92.4V25.4l5.9-5.9h14.8V47.7z"/>
<rect x="97" y="29.1" class="st7" width="6.6" height="1.4"/>
<rect x="97" y="31.7" class="st7" width="11.9" height="1.4"/>
<rect x="97" y="34.2" class="st7" width="11.9" height="1.4"/>
<rect x="97" y="36.8" class="st7" width="11.9" height="1.4"/>
<polygon class="st8" points="98.4,25.5 92.4,31.4 92.4,25.4 95.4,22.5 "/>
<polygon class="st7" points="98.3,25.4 92.4,25.4 98.3,19.5 "/>
<circle class="st11" cx="37.5" cy="33.5" r="20.4"/>
<path class="st0" d="M47.9,47.6H27.2V25.3l5.9-5.9h14.8V47.6z"/>
<rect x="31.8" y="28.9" class="st7" width="6.6" height="1.4"/>
<rect x="31.8" y="31.5" class="st7" width="11.9" height="1.4"/>
<rect x="31.8" y="34" class="st7" width="11.9" height="1.4"/>
<rect x="31.8" y="36.6" class="st7" width="11.9" height="1.4"/>
<polygon class="st8" points="33.1,25.3 27.2,31.3 27.2,25.3 30.1,22.3 "/>
<polygon class="st7" points="33.1,25.3 27.2,25.3 33.1,19.4 "/>
</svg>
