<?xml version="1.0" encoding="utf-8"?>
<!-- Generator: Adobe Illustrator 26.0.1, SVG Export Plug-In . SVG Version: 6.00 Build 0)  -->
<svg version="1.1" id="Warstwa_1" xmlns="http://www.w3.org/2000/svg" xmlns:xlink="http://www.w3.org/1999/xlink" x="0px" y="0px"
	 viewBox="0 0 175 119" style="enable-background:new 0 0 175 119;" xml:space="preserve">
<style type="text/css">
	.st0{fill:#F9FFF0;}
	.st1{fill:#3B4654;}
	.st2{opacity:0.45;}
	.st3{fill:none;stroke:#FFFFFF;stroke-width:1.792;stroke-miterlimit:10;}
	.st4{fill:none;stroke:#FFFFFF;stroke-width:1.792;stroke-miterlimit:10;stroke-dasharray:5.661,5.661;}
	
		.st5{opacity:0.45;fill:none;stroke:#FFFFFF;stroke-width:1.792;stroke-miterlimit:10;stroke-dasharray:5.375;enable-background:new    ;}
	
		.st6{opacity:0.45;fill:none;stroke:#7C5D43;stroke-width:1.792;stroke-miterlimit:10;stroke-dasharray:5.375;enable-background:new    ;}
	
		.st7{opacity:0.45;fill:none;stroke:#5D7486;stroke-width:1.792;stroke-miterlimit:10;stroke-dasharray:5.375;enable-background:new    ;}
	
		.st8{opacity:0.45;fill:none;stroke:#CC9292;stroke-width:1.792;stroke-miterlimit:10;stroke-dasharray:5.375;enable-background:new    ;}
	.st9{fill:#50ACFF;}
	.st10{fill:#FFFFFF;}
	.st11{opacity:0.66;}
</style>
<circle class="st0" cx="148.3" cy="9.6" r="9.6"/>
<path class="st1" d="M151.6,13.5v1.3h-5.8v-1.3h2.1V7.4c0-0.2,0-0.5,0-0.7L146.4,8c-0.1,0-0.2,0-0.3,0c-0.2,0-0.3,0-0.4-0.1
	c-0.1,0-0.1-0.1-0.1-0.1L145,7.1l3.2-2.7h1.5v9.1H151.6z"/>
<g class="st2">
	<line class="st3" x1="30.1" y1="22.3" x2="32" y2="24.3"/>
	<line class="st4" x1="35.8" y1="28.4" x2="64.8" y2="59.4"/>
	<line class="st3" x1="66.8" y1="61.5" x2="68.6" y2="63.5"/>
</g>
<line class="st5" x1="37.5" y1="50.8" x2="37.5" y2="74.7"/>
<circle class="st6" cx="87.1" cy="82.3" r="20.4"/>
<circle class="st7" cx="37.5" cy="98.6" r="20.4"/>
<line class="st5" x1="55.5" y1="29.7" x2="79.7" y2="29.7"/>
<circle class="st8" cx="102.8" cy="33.6" r="20.4"/>
<circle class="st9" cx="37.5" cy="33.5" r="20.4"/>
<g>
	<g>
		<rect x="28.6" y="26.7" class="st10" width="9.8" height="2.1"/>
		<rect x="28.6" y="30.6" class="st10" width="17.8" height="2.1"/>
		<rect x="28.6" y="34.3" class="st10" width="17.8" height="2.1"/>
		<rect x="28.6" y="38.2" class="st10" width="17.8" height="2.1"/>
	</g>
</g>
<g class="st11">
	<g>
		<rect x="28.6" y="91.8" class="st10" width="9.8" height="2.1"/>
		<rect x="28.6" y="95.7" class="st10" width="17.8" height="2.1"/>
		<rect x="28.6" y="99.4" class="st10" width="17.8" height="2.1"/>
		<rect x="28.6" y="103.3" class="st10" width="17.8" height="2.1"/>
	</g>
</g>
<g class="st11">
	<g>
		<rect x="78.2" y="75.5" class="st10" width="9.8" height="2.1"/>
		<rect x="78.2" y="79.4" class="st10" width="17.8" height="2.1"/>
		<rect x="78.2" y="83.1" class="st10" width="17.8" height="2.1"/>
		<rect x="78.2" y="87" class="st10" width="17.8" height="2.1"/>
	</g>
</g>
<g class="st11">
	<g>
		<rect x="93.9" y="26.8" class="st10" width="9.8" height="2.1"/>
		<rect x="93.9" y="30.7" class="st10" width="17.8" height="2.1"/>
		<rect x="93.9" y="34.4" class="st10" width="17.8" height="2.1"/>
		<rect x="93.9" y="38.3" class="st10" width="17.8" height="2.1"/>
	</g>
</g>
</svg>
