<?xml version="1.0" encoding="utf-8"?>
<!-- Generator: Adobe Illustrator 26.0.1, SVG Export Plug-In . SVG Version: 6.00 Build 0)  -->
<svg version="1.1" id="Warstwa_1" xmlns="http://www.w3.org/2000/svg" xmlns:xlink="http://www.w3.org/1999/xlink" x="0px" y="0px"
	 viewBox="0 0 175 119" style="enable-background:new 0 0 175 119;" xml:space="preserve">
<style type="text/css">
	.st0{fill:#2B333B;}
	.st1{fill:#F0F4F6;}
	.st2{opacity:0.45;}
	.st3{fill:none;stroke:#FFFFFF;stroke-width:5;stroke-miterlimit:10;}
	.st4{fill:#FFFFFF;}
	.st5{fill:#2F9EF3;}
</style>
<g>
	<rect x="15.4" y="51.3" class="st0" width="48.2" height="15.4"/>
	<path class="st1" d="M32.7,62.6h-0.8c-0.1,0-0.2,0-0.2-0.1c-0.1,0-0.1-0.1-0.1-0.2L31,60.6h-3.2l-0.6,1.7c0,0.1-0.1,0.1-0.1,0.2
		c-0.1,0.1-0.1,0.1-0.2,0.1H26l2.8-7.2h1.1L32.7,62.6z M30.6,59.9l-1.1-2.8c-0.1-0.2-0.2-0.5-0.2-0.7c0,0.1-0.1,0.3-0.1,0.4
		s-0.1,0.2-0.1,0.3L28,59.9H30.6z"/>
	<path class="st1" d="M36.2,61.7c0.3,0,0.5,0,0.8-0.1c0.2-0.1,0.4-0.2,0.6-0.4c0.2-0.2,0.3-0.4,0.4-0.6c0.1-0.3,0.1-0.5,0.1-0.8
		v-4.3h1.1v4.3c0,0.4-0.1,0.8-0.2,1.2c-0.2,0.7-0.8,1.3-1.5,1.5c-0.8,0.3-1.6,0.3-2.4,0c-0.3-0.1-0.6-0.3-0.9-0.6
		c-0.3-0.3-0.4-0.6-0.6-0.9c-0.1-0.4-0.2-0.8-0.2-1.2v-4.3h1.1v4.3c0,0.3,0,0.5,0.1,0.8c0.1,0.2,0.2,0.4,0.4,0.6
		c0.2,0.2,0.4,0.3,0.6,0.4C35.7,61.7,36,61.7,36.2,61.7z"/>
	<path class="st1" d="M45.7,56.3h-2.3v6.3h-1.1v-6.3H40v-0.9h5.6L45.7,56.3L45.7,56.3z"/>
	<path class="st1" d="M53.1,59c0,0.5-0.1,1-0.3,1.5c-0.2,0.4-0.4,0.8-0.7,1.2c-0.3,0.3-0.7,0.6-1.1,0.8c-0.9,0.4-2,0.4-2.9,0
		c-0.4-0.2-0.8-0.4-1.1-0.8c-0.3-0.3-0.6-0.7-0.7-1.2c-0.3-0.9-0.3-2,0-2.9c0.2-0.4,0.4-0.8,0.7-1.2c0.3-0.3,0.7-0.6,1.1-0.8
		c0.9-0.4,2-0.4,2.9,0c0.4,0.2,0.8,0.4,1.1,0.8c0.3,0.3,0.6,0.7,0.7,1.2C53,58,53.1,58.5,53.1,59z M52,59c0-0.4-0.1-0.8-0.2-1.1
		c-0.1-0.3-0.3-0.6-0.5-0.9c-0.2-0.2-0.5-0.4-0.8-0.5c-0.7-0.3-1.4-0.3-2,0c-0.3,0.1-0.6,0.3-0.8,0.5s-0.4,0.5-0.5,0.9
		c-0.2,0.7-0.2,1.5,0,2.3c0.1,0.3,0.3,0.6,0.5,0.9c0.2,0.2,0.5,0.4,0.8,0.5c0.7,0.2,1.4,0.2,2,0c0.3-0.1,0.6-0.3,0.8-0.5
		s0.4-0.5,0.5-0.9C51.9,59.8,52,59.4,52,59L52,59z"/>
</g>
<g>
	<g class="st2">
		<g>
			<line class="st3" x1="69.7" y1="25.2" x2="86.6" y2="33.9"/>
			<g>
				<polygon class="st4" points="83,37.7 93,37.2 87.6,28.8 				"/>
			</g>
		</g>
	</g>
	<g class="st2">
		<g>
			<line class="st3" x1="69.7" y1="93" x2="86.6" y2="84.3"/>
			<g>
				<polygon class="st4" points="87.6,89.4 93,81 83,80.5 				"/>
			</g>
		</g>
	</g>
</g>
<g>
	<circle class="st1" cx="39.2" cy="23.9" r="24"/>
	<g>
		<g>
			<g>
				<rect x="29" y="15.9" class="st5" width="11.5" height="2.4"/>
				<rect x="29" y="20.5" class="st5" width="20.8" height="2.4"/>
				<rect x="29" y="24.8" class="st5" width="20.8" height="2.4"/>
				<rect x="29" y="29.4" class="st5" width="20.8" height="2.4"/>
			</g>
		</g>
	</g>
</g>
<g>
	<circle class="st1" cx="39.4" cy="94.1" r="24"/>
	<g>
		<g>
			<g>
				<rect x="29.3" y="86.2" class="st5" width="11.5" height="2.4"/>
				<rect x="29.3" y="90.8" class="st5" width="20.8" height="2.4"/>
				<rect x="29.3" y="95.1" class="st5" width="20.8" height="2.4"/>
				<rect x="29.3" y="99.6" class="st5" width="20.8" height="2.4"/>
			</g>
		</g>
	</g>
</g>
<g>
	<g>
		<circle class="st5" cx="128.9" cy="59.1" r="30.9"/>
		<g>
			<rect x="115.5" y="43.5" class="st4" width="13.4" height="3.1"/>
			<rect x="115.5" y="49.2" class="st4" width="26.8" height="3.1"/>
			<rect x="115.5" y="55" class="st4" width="26.8" height="3.1"/>
			<g>
				<g>
					<g>
						<rect x="115.5" y="60.5" class="st4" width="26.8" height="3.1"/>
					</g>
				</g>
			</g>
			<rect x="115.5" y="66.1" class="st4" width="26.8" height="3.1"/>
			<rect x="115.5" y="71.6" class="st4" width="26.8" height="3.1"/>
		</g>
	</g>
</g>
</svg>
