<svg id="Warstwa_1" data-name="Warstwa 1" xmlns="http://www.w3.org/2000/svg" viewBox="0 0 175 119"><defs><style>.cls-1{opacity:0.45;}.cls-2{fill:none;stroke:#fff;stroke-miterlimit:10;stroke-width:4.941px;}.cls-3{fill:#fff;}.cls-4{fill:#ffcc5a;}.cls-5{fill:#f9fff0;}.cls-6{fill:#bcbcbc;}.cls-7{fill:#5d7486;}.cls-8{fill:#2b333b;}.cls-9{fill:#f0f4f6;}.cls-10{fill:#ea2880;}</style></defs><g class="cls-1"><line class="cls-2" x1="76.599" y1="25.435" x2="93.636" y2="34.254"/><polygon class="cls-3" points="90.091 37.967 99.934 37.513 94.621 29.216 90.091 37.967"/></g><g class="cls-1"><line class="cls-2" x1="76.598" y1="93.565" x2="93.636" y2="84.746"/><polygon class="cls-3" points="94.621 89.785 99.934 81.487 90.091 81.033 94.621 89.785"/></g><rect class="cls-4" x="21.803" width="48.244" height="41.965"/><rect class="cls-5" x="27.18" y="4.678" width="37.488" height="32.609"/><rect class="cls-6" x="34.324" y="12.158" width="12.816" height="2.68"/><rect class="cls-6" x="34.324" y="17.216" width="23.202" height="2.68"/><rect class="cls-6" x="34.324" y="22.069" width="23.202" height="2.68"/><rect class="cls-6" x="34.324" y="27.127" width="23.202" height="2.68"/><rect class="cls-7" x="21.803" y="77.035" width="48.244" height="41.965"/><rect class="cls-5" x="27.18" y="81.713" width="37.488" height="32.609"/><rect class="cls-6" x="34.324" y="104.162" width="12.816" height="2.68"/><rect class="cls-6" x="34.324" y="99.103" width="23.202" height="2.68"/><rect class="cls-6" x="34.324" y="94.251" width="23.202" height="2.68"/><rect class="cls-6" x="34.324" y="89.192" width="23.202" height="2.68"/><rect class="cls-8" x="21.803" y="51.801" width="48.244" height="15.397"/><path class="cls-9" d="M39.138,63.074h-.817a.359.359,0,0,1-.229-.07.391.391,0,0,1-.13-.179l-.632-1.659H34.177l-.633,1.659a.405.405,0,0,1-.129.172.354.354,0,0,1-.229.077h-.817l2.849-7.153h1.071Zm-2.1-2.665L35.98,57.635a6.244,6.244,0,0,1-.229-.718c-.037.143-.074.276-.112.4s-.076.232-.112.329l-1.056,2.764Z"/><path class="cls-9" d="M42.65,62.222a1.946,1.946,0,0,0,.767-.144,1.619,1.619,0,0,0,.573-.406,1.807,1.807,0,0,0,.358-.623,2.435,2.435,0,0,0,.125-.8V55.921h1.056V60.25a3.282,3.282,0,0,1-.2,1.16,2.575,2.575,0,0,1-1.479,1.529,3.385,3.385,0,0,1-2.4,0,2.621,2.621,0,0,1-.906-.607,2.651,2.651,0,0,1-.573-.922,3.282,3.282,0,0,1-.2-1.16V55.921h1.061v4.324a2.494,2.494,0,0,0,.122.8,1.771,1.771,0,0,0,.356.625,1.611,1.611,0,0,0,.573.406A1.939,1.939,0,0,0,42.65,62.222Z"/><path class="cls-9" d="M52.084,56.808H49.812v6.266H48.756V56.808H46.475v-.887h5.609Z"/><path class="cls-9" d="M59.481,59.5a4.08,4.08,0,0,1-.257,1.471,3.392,3.392,0,0,1-.725,1.156,3.267,3.267,0,0,1-1.12.755,4.034,4.034,0,0,1-2.9,0,3.243,3.243,0,0,1-1.121-.755,3.436,3.436,0,0,1-.724-1.156,4.3,4.3,0,0,1,0-2.941,3.435,3.435,0,0,1,.724-1.158,3.261,3.261,0,0,1,1.121-.757,3.993,3.993,0,0,1,2.9,0,3.286,3.286,0,0,1,1.12.757,3.391,3.391,0,0,1,.725,1.158A4.09,4.09,0,0,1,59.481,59.5Zm-1.086,0a3.5,3.5,0,0,0-.175-1.146,2.44,2.44,0,0,0-.495-.862,2.14,2.14,0,0,0-.777-.543,2.841,2.841,0,0,0-2.038,0,2.173,2.173,0,0,0-.779.543,2.416,2.416,0,0,0-.5.862,3.846,3.846,0,0,0,0,2.294,2.42,2.42,0,0,0,.5.859,2.141,2.141,0,0,0,.779.54,2.87,2.87,0,0,0,2.038,0,2.109,2.109,0,0,0,.777-.54,2.444,2.444,0,0,0,.495-.859A3.491,3.491,0,0,0,58.4,59.5Z"/><rect class="cls-10" x="104.953" y="28.34" width="48.244" height="62.32"/><rect class="cls-5" x="110.331" y="33.018" width="37.488" height="52.964"/><rect class="cls-6" x="117.474" y="40.498" width="12.816" height="2.68"/><rect class="cls-6" x="117.474" y="45.556" width="23.202" height="2.68"/><rect class="cls-6" x="117.474" y="50.409" width="23.202" height="2.68"/><rect class="cls-6" x="117.474" y="55.467" width="23.202" height="2.68"/><rect class="cls-6" x="117.474" y="75.616" width="12.816" height="2.68"/><rect class="cls-6" x="117.474" y="70.558" width="23.202" height="2.68"/><rect class="cls-6" x="117.474" y="65.705" width="23.202" height="2.68"/><rect class="cls-6" x="117.474" y="60.646" width="23.202" height="2.68"/></svg>