<?xml version="1.0" encoding="utf-8"?>
<!-- Generator: Adobe Illustrator 26.0.1, SVG Export Plug-In . SVG Version: 6.00 Build 0)  -->
<svg version="1.1" id="Warstwa_1" xmlns="http://www.w3.org/2000/svg" xmlns:xlink="http://www.w3.org/1999/xlink" x="0px" y="0px"
	 viewBox="0 0 175 119" style="enable-background:new 0 0 175 119;" xml:space="preserve">
<style type="text/css">
	.st0{fill:none;}
	.st1{fill:#2FB4D2;}
	.st2{fill:#F0F4F6;}
</style>
<path class="st0" d="M119.6,71.5c-0.4-4.2-2.3-8-5.4-10.8c-0.1,3.1-0.3,6.7-0.8,10.8H119.6z"/>
<path class="st0" d="M109.8,88c2.5-1.1,4.6-2.7,6.3-4.8h-5C110.7,84.8,110.2,86.5,109.8,88z"/>
<path class="st0" d="M132.7,71.5h0.8c1.1-3.9,1.6-7.9,1.7-12c0-4.1-0.6-8.1-1.7-12h-15.1C126.8,52.6,132.2,61.6,132.7,71.5z"/>
<path class="st0" d="M102.4,59.5c0-0.9,0-1.9-0.1-3c-8.2,0.4-14.9,6.8-15.6,15h14.6C102,67.5,102.4,63.5,102.4,59.5z"/>
<path class="st0" d="M88,47.5H73.4c-0.5,4-0.8,8-0.8,12c0,4,0.3,8,0.8,12h0.2C74.1,61.6,79.5,52.6,88,47.5z"/>
<path class="st0" d="M77.7,87.9c2.3,6.8,5.6,13.2,9.7,19c1.5-2.2,2.9-4.5,4.2-6.8C85.8,97.6,80.9,93.3,77.7,87.9z"/>
<path class="st0" d="M128.7,35.7c-5.5-10.1-14.7-17.7-25.7-21.2c3.6,6.7,6.3,13.8,8.1,21.2H128.7z"/>
<path class="st0" d="M103,104.4c2.2-0.7,4.3-1.6,6.3-2.6c-1.7,0.4-3.5,0.6-5.3,0.7C103.7,103.1,103.3,103.8,103,104.4z"/>
<path class="st0" d="M90.3,83.2c1.8,2.2,4.1,3.9,6.7,5c0.6-1.7,1.2-3.3,1.7-5H90.3z"/>
<path class="st0" d="M46.3,35.7h17.6c1.8-7.4,4.5-14.5,8.1-21.2C61.1,18.1,51.9,25.7,46.3,35.7z"/>
<path class="st0" d="M60.6,59.5c0-4,0.3-8,0.8-12H41.3c-0.9,3.9-1.4,8-1.4,12c0,4,0.5,8.1,1.4,12h20.1
	C60.9,67.5,60.6,63.5,60.6,59.5z"/>
<path class="st0" d="M87.4,12c-5,7.2-8.8,15.3-11.2,23.7h22.6C96.2,27.3,92.4,19.3,87.4,12z"/>
<path class="st0" d="M46.3,83.2C51.9,93.3,61,100.9,72,104.4c-3.6-6.7-6.3-13.8-8.1-21.2L46.3,83.2z"/>
<path class="st1" d="M129.7,17.5C118.6,6.1,103.4-0.3,87.5,0C71.6-0.3,56.4,6.1,45.3,17.5c-11.4,11-17.7,26.2-17.5,42
	c-0.2,15.8,6.1,31,17.5,42c11,11.4,26.3,17.7,42.2,17.5c13.2,0.2,26.1-4.2,36.5-12.4l-7.4-7.4c-2.3,1.2-4.7,2.1-7.3,2.6
	c-2,1-4.2,1.9-6.3,2.6c0.4-0.6,0.7-1.3,1-2c-0.3,0-0.6,0-0.9,0c-4,0-7.9-0.8-11.6-2.4c-1.3,2.3-2.7,4.6-4.2,6.8
	c-4.1-5.9-7.3-12.3-9.7-19c-2.7-4.5-4.1-9.7-4.1-15c0-0.5,0-1,0-1.5h-0.2c-0.5-4-0.8-8-0.8-12c0-4,0.3-8,0.8-12H88
	c9.3-5.6,21-5.6,30.3,0h15.1c1.1,3.9,1.6,7.9,1.7,12c0,4.1-0.6,8.1-1.7,12h-0.8c0,0.4,0,0.9,0,1.3c0,5.7-1.6,11.3-4.7,16l6.9,6.9
	c8.2-10.3,12.5-23.1,12.3-36.2C147.3,43.7,141,28.4,129.7,17.5z M41.3,71.5c-0.9-3.9-1.4-8-1.4-12c0-4,0.5-8.1,1.4-12h20.1
	c-0.5,4-0.8,8-0.8,12c0,4,0.3,8,0.8,12H41.3z M46.3,83.2h17.6c1.8,7.4,4.5,14.5,8.1,21.2C61,100.9,51.9,93.3,46.3,83.2z M63.9,35.7
	H46.3C51.9,25.7,61.1,18.1,72,14.5C68.4,21.2,65.7,28.3,63.9,35.7z M76.2,35.7c2.4-8.5,6.2-16.5,11.2-23.7c5,7.3,8.9,15.3,11.4,23.7
	H76.2z M111.1,35.7c-1.8-7.4-4.5-14.5-8.1-21.2c11,3.5,20.1,11.1,25.7,21.2H111.1z"/>
<path class="st1" d="M103.2,89.4c2.3,0,4.5-0.5,6.6-1.4c0.5-1.6,0.9-3.2,1.3-4.8h5c2.3-2.9,3.6-6.5,3.6-10.3c0-0.5,0-1-0.1-1.5h-6.3
	c0.5-4.1,0.8-7.7,0.8-10.8c-3-2.7-6.9-4.2-11-4.2c-0.3,0-0.5,0-0.8,0c0.1,1,0.1,2,0.1,3c-0.1,4-0.4,8-1.1,12H86.7
	c0,0.5-0.1,1-0.1,1.5c0,3.7,1.3,7.4,3.7,10.3h8.5c-0.5,1.7-1.1,3.4-1.7,5C99,89,101.1,89.4,103.2,89.4z"/>
<path class="st2" d="M132.8,98.1l-8.5-8.5l-0.5-0.5c1.4-1.8,2.6-3.8,3.6-6c1.4-3.3,2.1-6.8,2.1-10.4c0-0.4,0-0.9,0-1.3
	c-0.7-14.1-12.3-25.1-26.4-25.1c-2.5,0-5,0.4-7.5,1.1c-10.7,3.2-18.3,12.8-18.9,24c0,0.5,0,1,0,1.5c0,3.5,0.7,7,2.1,10.3
	c2.7,6.4,7.8,11.5,14.3,14.2c3.2,1.3,6.6,2,10.1,2c0.8,0,1.6-0.1,2.4-0.1c4.1-0.4,8.1-1.7,11.5-3.9l0.9,0.9l8.4,8.4l14.3,14.3
	l6.3-6.6L132.8,98.1z M108.6,91.8c-1.8,0.5-3.6,0.8-5.4,0.8c-2.5,0-4.9-0.5-7.2-1.4c-3.9-1.6-7.2-4.4-9.4-8c-1.9-3.1-3-6.6-3-10.3
	c0-0.5,0-1,0.1-1.5c0.7-9.8,8.7-17.6,18.5-18.1c0.4,0,0.7-0.1,1.1-0.1c10.3,0,18.8,7.9,19.6,18.2c0,0.5,0.1,1,0.1,1.5
	C122.7,81.7,117,89.4,108.6,91.8L108.6,91.8z"/>
</svg>
