<?xml version="1.0" encoding="utf-8"?>
<!-- Generator: Adobe Illustrator 26.0.1, SVG Export Plug-In . SVG Version: 6.00 Build 0)  -->
<svg version="1.1" id="Warstwa_1" xmlns="http://www.w3.org/2000/svg" xmlns:xlink="http://www.w3.org/1999/xlink" x="0px" y="0px"
	 viewBox="0 0 175 119" style="enable-background:new 0 0 175 119;" xml:space="preserve">
<style type="text/css">
	.st0{fill:none;stroke:#7BD85D;stroke-width:1.758;stroke-miterlimit:10;stroke-dasharray:5.273;}
	.st1{opacity:0.66;}
	.st2{fill:#FFFFFF;}
	.st3{fill:none;stroke:#44BEAA;stroke-width:2.122;stroke-miterlimit:10;stroke-dasharray:4.07,4.07;}
	.st4{fill:none;stroke:#C4D451;stroke-width:2.122;stroke-miterlimit:10;stroke-dasharray:3.516;}
	.st5{fill:#2FB4D2;}
</style>
<circle class="st0" cx="84.1" cy="97.5" r="20"/>
<g class="st1">
	<rect x="75.6" y="91" class="st2" width="9.4" height="2"/>
	<rect x="75.6" y="94.7" class="st2" width="17" height="2"/>
	<rect x="75.6" y="98.3" class="st2" width="17" height="2"/>
	<rect x="75.6" y="102" class="st2" width="17" height="2"/>
</g>
<path class="st3" d="M65.3,60.4c0,8.6-7,15.6-15.5,15.6c0,0,0,0,0,0c-20.6-0.8-20.6-30.3,0-31.1C58.4,44.9,65.3,51.8,65.3,60.4
	C65.3,60.4,65.3,60.4,65.3,60.4L65.3,60.4z"/>
<g class="st1">
	<rect x="43.5" y="55.6" class="st2" width="7" height="1.5"/>
	<rect x="43.5" y="58.3" class="st2" width="12.7" height="1.5"/>
	<rect x="43.5" y="61" class="st2" width="12.7" height="1.5"/>
	<rect x="43.5" y="63.8" class="st2" width="12.7" height="1.5"/>
</g>
<ellipse class="st4" cx="127.7" cy="72.6" rx="13.1" ry="13.3"/>
<g class="st1">
	<rect x="122.4" y="68.5" class="st2" width="5.9" height="1.2"/>
	<rect x="122.4" y="70.8" class="st2" width="10.6" height="1.2"/>
	<rect x="122.4" y="73.1" class="st2" width="10.6" height="1.2"/>
	<rect x="122.4" y="75.4" class="st2" width="10.6" height="1.2"/>
</g>
<path class="st5" d="M73,7.6c9.9-9.9,25.9-9.9,35.8,0c4.8,4.7,7.5,11.1,7.4,17.9c0.1,6.7-2.6,13.2-7.4,17.9
	c-9.9,9.9-25.9,9.9-35.8,0c-4.8-4.7-7.5-11.1-7.4-17.9C65.5,18.8,68.1,12.3,73,7.6z M71.3,30.6h8.5c-0.2-1.7-0.3-3.4-0.4-5.1
	c0-1.7,0.1-3.4,0.4-5.1h-8.5c-0.4,1.7-0.6,3.4-0.6,5.1C70.7,27.2,70.9,28.9,71.3,30.6z M80.9,15.4c0.8-3.1,1.9-6.2,3.4-9
	c-4.7,1.5-8.6,4.7-10.9,9H80.9z M73.4,35.6c2.4,4.3,6.3,7.5,10.9,9c-1.5-2.8-2.7-5.9-3.4-9H73.4z M96.8,30.6
	c0.3-1.7,0.4-3.4,0.5-5.1c0-1.7-0.2-3.4-0.5-5.1H84.9c-0.2,1.7-0.3,3.4-0.4,5.1c0,1.7,0.1,3.4,0.4,5.1H96.8z M90.8,5.3
	c-2.1,3.1-3.7,6.5-4.7,10.1h9.6C94.6,11.8,93,8.4,90.8,5.3z M90.8,45.6c2.1-3.1,3.8-6.5,4.9-10.1h-9.6
	C87.1,39.2,88.7,42.6,90.8,45.6z M108.4,15.4c-2.4-4.3-6.3-7.5-10.9-9c1.5,2.8,2.7,5.9,3.4,9L108.4,15.4z M97.5,44.6
	c4.7-1.5,8.6-4.7,10.9-9h-7.5C100.2,38.7,99,41.7,97.5,44.6z M101.9,30.6h8.5c0.5-1.7,0.7-3.4,0.7-5.1c0-1.7-0.3-3.4-0.7-5.1h-8.5
	c0.2,1.7,0.3,3.4,0.4,5.1C102.2,27.2,102.1,28.9,101.9,30.6L101.9,30.6z"/>
</svg>
