<svg id="Warstwa_1" data-name="Warstwa 1" xmlns="http://www.w3.org/2000/svg" xmlns:xlink="http://www.w3.org/1999/xlink" viewBox="0 0 175 119"><defs><style>.cls-1{fill:#07080a;}.cls-2{fill:#efefef;}.cls-3{fill:url(#linear-gradient);}.cls-4{fill:#82c8ce;}.cls-5{fill:#cccbcb;}.cls-6{fill:#f9fff0;}.cls-15,.cls-18,.cls-7{isolation:isolate;}.cls-7{opacity:0.05;}.cls-8{fill:#bcbcbc;}.cls-9{fill:#7a61d4;}.cls-10{fill:#f0f4f6;}.cls-11{fill:#c4d451;}.cls-12{fill:#73b7e0;}.cls-13{fill:#47718a;}.cls-14{fill:#ff266b;}.cls-15,.cls-18{opacity:0.33;}.cls-15{fill:url(#radial-gradient);}.cls-16{opacity:0.09;}.cls-17{fill:url(#linear-gradient-2);}.cls-18{fill:url(#radial-gradient-2);}.cls-19{fill:#fff;}</style><linearGradient id="linear-gradient" x1="87.465" y1="1263.453" x2="87.315" y2="1224.832" gradientTransform="matrix(1, 0, 0, -1, 0, 1362.562)" gradientUnits="userSpaceOnUse"><stop offset="0" stop-color="#fff"/><stop offset="1"/></linearGradient><radialGradient id="radial-gradient" cx="-691.392" cy="2007.873" r="23.119" gradientTransform="matrix(0.558, -0.83, 0.83, 0.558, -1184.966, -1616.385)" gradientUnits="userSpaceOnUse"><stop offset="0.531" stop-color="#cfedff"/><stop offset="1" stop-color="#ade1ff"/></radialGradient><linearGradient id="linear-gradient-2" x1="87.542" y1="1263.472" x2="87.392" y2="1224.851" xlink:href="#linear-gradient"/><radialGradient id="radial-gradient-2" cx="-691.333" cy="2007.926" r="23.119" xlink:href="#radial-gradient"/></defs><rect class="cls-1" x="32.442" y="34.512" width="109.518" height="75.252" rx="3.911"/><rect class="cls-2" x="19.88" y="108.001" width="135.08" height="2.423"/><path class="cls-3" d="M116.676,110.425H19.881s3.23,2.193,9.357,2.193H145.6c6.128,0,9.357-2.193,9.357-2.193Z"/><rect class="cls-4" x="36.338" y="38.784" width="102.334" height="64.502" rx="1.283"/><path class="cls-5" d="M98.747,108a2.367,2.367,0,0,1-2.321,1.933h-17.7A2.37,2.37,0,0,1,76.406,108Z"/><path class="cls-6" d="M123.939,100.047H50.9V21.43L71.835.5h52.1Z"/><polygon class="cls-7" points="71.938 21.513 50.902 42.548 50.902 21.427 61.377 10.952 71.938 21.513"/><polygon class="cls-8" points="71.834 21.43 50.902 21.43 71.834 0.498 71.834 21.43"/><rect class="cls-9" x="62.261" y="49.688" width="22.885" height="22.885" rx="3.03" transform="translate(-20.487 43.885) rotate(-29.297)"/><path class="cls-10" d="M73.361,60.957a3.834,3.834,0,0,1,.545,1.8,2.838,2.838,0,0,1-.4,1.552,3.32,3.32,0,0,1-2.754,1.545,2.841,2.841,0,0,1-1.534-.469,4.357,4.357,0,0,1-1.8-3.207,2.83,2.83,0,0,1,.4-1.55,3.329,3.329,0,0,1,2.754-1.545,2.842,2.842,0,0,1,1.535.465A3.826,3.826,0,0,1,73.361,60.957Zm-1.234.693a2.986,2.986,0,0,0-.76-.928,1.613,1.613,0,0,0-.869-.349,1.554,1.554,0,0,0-.891.215,1.571,1.571,0,0,0-.65.65,1.61,1.61,0,0,0-.155.922,2.968,2.968,0,0,0,.4,1.133,2.932,2.932,0,0,0,.76.928,1.6,1.6,0,0,0,.867.349,1.7,1.7,0,0,0,1.543-.865,1.615,1.615,0,0,0,.154-.922A3,3,0,0,0,72.127,61.65Z"/><path class="cls-10" d="M75.88,63.333l-3.234-5.764,2.274-1.277a2.839,2.839,0,0,1,1.246-.394,1.885,1.885,0,0,1,1.076.26,2.271,2.271,0,0,1,.8.857,2.18,2.18,0,0,1,.306,1.127,1.843,1.843,0,0,1-.361,1.034,3.065,3.065,0,0,1-1.012.856l-1.521.854-.551-.98,1.326-.745a1.714,1.714,0,0,0,.525-.42.8.8,0,0,0,.186-.48,1.069,1.069,0,0,0-.152-.541A1.114,1.114,0,0,0,76.4,57.3a.834.834,0,0,0-.516-.106,1.678,1.678,0,0,0-.642.226l-.821.461L77.1,62.649Zm1.641-4.37,2.9,1.819-1.345.755L76.207,59.7Z"/><rect class="cls-11" x="84.949" y="14.748" width="27.596" height="27.596" rx="3.653" transform="translate(75.32 -71.54) rotate(60.703)"/><path class="cls-10" d="M88,29.629l-1.739-.49,4.807-6.928,2.09.588.488,8.417-1.738-.489-.258-6.461-.058-.016Zm.74-3.048,4.105,1.154L92.486,29,88.38,27.848Z"/><path class="cls-10" d="M103.139,25.605l-2.157,7.674-1.4-.393L97.6,27.117l-.056-.016-1.359,4.83-1.623-.456L96.721,23.8l1.425.4,1.955,5.757.068.018,1.356-4.826Z"/><path class="cls-10" d="M105.04,34.42l-2.721-.765,2.157-7.674,2.744.772a4.233,4.233,0,0,1,1.864,1.019A3.268,3.268,0,0,1,110,29.451a5.1,5.1,0,0,1-1.157,4.114,3.251,3.251,0,0,1-1.664.959A4.27,4.27,0,0,1,105.04,34.42Zm-.706-1.7,1.03.29a2.717,2.717,0,0,0,1.283.084,1.708,1.708,0,0,0,.967-.589,3.51,3.51,0,0,0,.642-1.33,3.436,3.436,0,0,0,.142-1.46,1.688,1.688,0,0,0-.517-1,2.7,2.7,0,0,0-1.138-.595l-1.034-.291Z"/><rect class="cls-12" x="114.386" y="88.027" width="3.9" height="7.2" transform="translate(-24.61 137.055) rotate(-56.089)"/><rect class="cls-12" x="114.386" y="88.027" width="3.9" height="7.2" transform="translate(-24.61 137.055) rotate(-56.089)"/><path class="cls-13" d="M153.268,111.543a3.493,3.493,0,0,1,1.44,4.726l-.04.074-.9,1.3a3.571,3.571,0,0,1-5,.6l-.8-.6-1.2-.9-.7-.5-1.2-.9-26.7-18.7a1.8,1.8,0,0,1-.6-2.3l2-2.9a1.687,1.687,0,0,1,2.3-.3l27.4,17.6,1.2.8.7.5,1.2.8Z"/><polygon class="cls-14" points="122.868 100.143 126.668 94.443 125.068 93.443 121.368 99.043 122.868 100.143"/><polygon class="cls-14" points="150.468 109.743 146.068 116.343 144.768 115.543 149.168 108.943 150.468 109.743"/><polygon class="cls-14" points="152.368 111.043 147.968 117.743 146.668 116.843 151.168 110.243 152.368 111.043"/><path class="cls-15" d="M113.868,89.943a21.758,21.758,0,1,1-5.9-30.2A21.758,21.758,0,0,1,113.868,89.943Z"/><g class="cls-16"><path d="M114.768,90.543a22.84,22.84,0,1,1-6.2-31.7h0a22.832,22.832,0,0,1,6.208,31.688Zm-35.2-23.7a19.664,19.664,0,1,0,27.3-5.3A19.664,19.664,0,0,0,79.568,66.843Z"/></g><path class="cls-12" d="M115.368,90.943a23.492,23.492,0,1,1-6.4-32.6h0A23.5,23.5,0,0,1,115.368,90.943Zm-36.3-24.4a20.247,20.247,0,1,0,28.1-5.5h0A20.269,20.269,0,0,0,79.068,66.543Z"/><rect class="cls-1" x="32.519" y="34.492" width="109.518" height="75.252" rx="3.911"/><rect class="cls-2" x="19.957" y="107.981" width="135.08" height="2.423"/><path class="cls-17" d="M116.753,110.405H19.958s3.23,2.193,9.357,2.193H145.68c6.128,0,9.357-2.193,9.357-2.193Z"/><rect class="cls-4" x="36.415" y="38.764" width="102.334" height="64.502" rx="1.283"/><path class="cls-5" d="M98.824,107.981a2.365,2.365,0,0,1-2.321,1.933H78.8a2.368,2.368,0,0,1-2.32-1.933Z"/><path class="cls-6" d="M124.016,100.027H50.98V21.41L71.912.478h52.1Z"/><rect class="cls-8" x="67.269" y="34.298" width="23.169" height="4.846"/><rect class="cls-8" x="67.269" y="43.443" width="41.947" height="4.846"/><rect class="cls-8" x="67.269" y="52.216" width="41.947" height="4.846"/><rect class="cls-8" x="67.269" y="61.361" width="41.947" height="4.846"/><polygon class="cls-7" points="72.015 21.493 50.979 42.528 50.979 21.407 61.454 10.932 72.015 21.493"/><polygon class="cls-8" points="71.911 21.41 50.979 21.41 71.911 0.478 71.911 21.41"/><rect class="cls-12" x="114.462" y="88.007" width="3.9" height="7.2" transform="translate(-24.56 137.11) rotate(-56.089)"/><rect class="cls-12" x="114.462" y="88.007" width="3.9" height="7.2" transform="translate(-24.56 137.11) rotate(-56.089)"/><path class="cls-13" d="M153.345,111.523a3.494,3.494,0,0,1,1.44,4.727c-.013.024-.026.049-.04.073l-.9,1.3a3.57,3.57,0,0,1-5,.6l-.8-.6-1.2-.9-.7-.5-1.2-.9-26.7-18.7a1.8,1.8,0,0,1-.6-2.3l2-2.9a1.688,1.688,0,0,1,2.3-.3l27.4,17.6,1.2.8.7.5,1.2.8Z"/><polygon class="cls-14" points="122.945 100.123 126.745 94.423 125.145 93.423 121.445 99.023 122.945 100.123"/><polygon class="cls-14" points="150.545 109.723 146.145 116.323 144.845 115.523 149.245 108.923 150.545 109.723"/><polygon class="cls-14" points="152.445 111.023 148.045 117.723 146.745 116.823 151.245 110.223 152.445 111.023"/><path class="cls-18" d="M113.945,89.923a21.758,21.758,0,1,1-5.9-30.2A21.758,21.758,0,0,1,113.945,89.923Z"/><g class="cls-16"><path d="M114.845,90.523a22.84,22.84,0,1,1-6.2-31.7h0a22.833,22.833,0,0,1,6.208,31.688Zm-35.2-23.7a19.664,19.664,0,1,0,27.3-5.3A19.663,19.663,0,0,0,79.645,66.823Z"/></g><path class="cls-12" d="M115.445,90.923a23.492,23.492,0,1,1-6.4-32.6h0A23.5,23.5,0,0,1,115.445,90.923Zm-36.3-24.4a20.247,20.247,0,1,0,28.1-5.5h0A20.27,20.27,0,0,0,79.145,66.523Z"/><circle class="cls-11" cx="119.736" cy="16.958" r="12.958"/><path class="cls-19" d="M118.318,23.052l.264-4.094-3.429,2.3-1.417-2.5,3.693-1.8-3.693-1.8,1.417-2.5,3.429,2.3-.264-4.1h2.845l-.275,4.1,3.429-2.3,1.419,2.5-3.684,1.8,3.684,1.8-1.419,2.5-3.429-2.3.275,4.094Z"/></svg>