<svg id="Warstwa_1" data-name="Warstwa 1" xmlns="http://www.w3.org/2000/svg" xmlns:xlink="http://www.w3.org/1999/xlink" viewBox="0 0 175 119"><defs><style>.cls-1{fill:#07080a;}.cls-2{fill:#efefef;}.cls-3{fill:url(#linear-gradient);}.cls-4{fill:#82c8ce;}.cls-5{fill:#cccbcb;}.cls-6{fill:#f9fff0;}.cls-7{fill:#bcbcbc;}.cls-12,.cls-8{isolation:isolate;}.cls-8{opacity:0.05;}.cls-9{fill:#73b7e0;}.cls-10{fill:#47718a;}.cls-11{fill:#ff266b;}.cls-12{opacity:0.33;fill:url(#radial-gradient);}.cls-13{opacity:0.09;}</style><linearGradient id="linear-gradient" x1="87.465" y1="1263.453" x2="87.315" y2="1224.832" gradientTransform="matrix(1, 0, 0, -1, 0, 1362.562)" gradientUnits="userSpaceOnUse"><stop offset="0" stop-color="#fff"/><stop offset="1"/></linearGradient><radialGradient id="radial-gradient" cx="-691.392" cy="2007.873" r="23.119" gradientTransform="matrix(0.558, -0.83, 0.83, 0.558, -1184.966, -1616.385)" gradientUnits="userSpaceOnUse"><stop offset="0.531" stop-color="#cfedff"/><stop offset="1" stop-color="#ade1ff"/></radialGradient></defs><rect class="cls-1" x="32.442" y="34.512" width="109.518" height="75.252" rx="3.911"/><rect class="cls-2" x="19.88" y="108.001" width="135.08" height="2.423"/><path class="cls-3" d="M116.676,110.425H19.881s3.23,2.193,9.357,2.193H145.6c6.128,0,9.357-2.193,9.357-2.193Z"/><rect class="cls-4" x="36.338" y="38.784" width="102.334" height="64.502" rx="1.283"/><path class="cls-5" d="M98.747,108a2.367,2.367,0,0,1-2.321,1.933h-17.7A2.37,2.37,0,0,1,76.406,108Z"/><path class="cls-6" d="M123.939,100.047H50.9V21.43L71.835.5h52.1Z"/><rect class="cls-7" x="67.192" y="34.318" width="23.169" height="4.846"/><rect class="cls-7" x="67.192" y="43.463" width="41.947" height="4.846"/><rect class="cls-7" x="67.192" y="52.236" width="41.947" height="4.846"/><rect class="cls-7" x="67.192" y="61.381" width="41.947" height="4.846"/><polygon class="cls-8" points="71.938 21.513 50.902 42.548 50.902 21.427 61.377 10.952 71.938 21.513"/><polygon class="cls-7" points="71.834 21.43 50.902 21.43 71.834 0.498 71.834 21.43"/><rect class="cls-9" x="114.386" y="88.027" width="3.9" height="7.2" transform="translate(-24.61 137.055) rotate(-56.089)"/><rect class="cls-9" x="114.386" y="88.027" width="3.9" height="7.2" transform="translate(-24.61 137.055) rotate(-56.089)"/><path class="cls-10" d="M153.268,111.543a3.493,3.493,0,0,1,1.44,4.726l-.04.074-.9,1.3a3.571,3.571,0,0,1-5,.6l-.8-.6-1.2-.9-.7-.5-1.2-.9-26.7-18.7a1.8,1.8,0,0,1-.6-2.3l2-2.9a1.687,1.687,0,0,1,2.3-.3l27.4,17.6,1.2.8.7.5,1.2.8Z"/><polygon class="cls-11" points="122.868 100.143 126.668 94.443 125.068 93.443 121.368 99.043 122.868 100.143"/><polygon class="cls-11" points="150.468 109.743 146.068 116.343 144.768 115.543 149.168 108.943 150.468 109.743"/><polygon class="cls-11" points="152.368 111.043 147.968 117.743 146.668 116.843 151.168 110.243 152.368 111.043"/><path class="cls-12" d="M113.868,89.943a21.758,21.758,0,1,1-5.9-30.2A21.758,21.758,0,0,1,113.868,89.943Z"/><g class="cls-13"><path d="M114.768,90.543a22.84,22.84,0,1,1-6.2-31.7h0a22.832,22.832,0,0,1,6.208,31.688Zm-35.2-23.7a19.664,19.664,0,1,0,27.3-5.3A19.664,19.664,0,0,0,79.568,66.843Z"/></g><path class="cls-9" d="M115.368,90.943a23.492,23.492,0,1,1-6.4-32.6h0A23.5,23.5,0,0,1,115.368,90.943Zm-36.3-24.4a20.247,20.247,0,1,0,28.1-5.5h0A20.269,20.269,0,0,0,79.068,66.543Z"/></svg>