<svg id="Warstwa_1" data-name="Warstwa 1" xmlns="http://www.w3.org/2000/svg" xmlns:xlink="http://www.w3.org/1999/xlink" viewBox="0 0 175 119"><defs><style>.cls-1{fill:#07080a;}.cls-2{fill:#efefef;}.cls-3{fill:url(#linear-gradient);}.cls-4{fill:#82c8ce;}.cls-5{fill:#cccbcb;}.cls-6{fill:#f9fff0;}.cls-7{fill:#ea2880;}.cls-8{opacity:0.05;}.cls-9{fill:#bcbcbc;}.cls-10{fill:#73b7e0;}.cls-11{fill:#47718a;}.cls-12{fill:#ff266b;}.cls-13{isolation:isolate;opacity:0.33;fill:url(#radial-gradient);}.cls-14{opacity:0.09;}</style><linearGradient id="linear-gradient" x1="87.45" y1="99.127" x2="87.3" y2="137.748" gradientUnits="userSpaceOnUse"><stop offset="0" stop-color="#fff"/><stop offset="1"/></linearGradient><radialGradient id="radial-gradient" cx="-544.589" cy="-370.181" r="23.1" gradientTransform="matrix(0.558, -0.83, -0.83, -0.558, 92.416, -580.669)" gradientUnits="userSpaceOnUse"><stop offset="0.531" stop-color="#cfedff"/><stop offset="1" stop-color="#ade1ff"/></radialGradient></defs><rect class="cls-1" x="32.427" y="34.529" width="109.518" height="75.252" rx="3.911"/><rect class="cls-2" x="19.865" y="108.018" width="135.08" height="2.423"/><path class="cls-3" d="M116.661,110.442H19.866s3.23,2.193,9.357,2.193H145.588c6.128,0,9.357-2.193,9.357-2.193Z"/><rect class="cls-4" x="36.323" y="38.801" width="102.334" height="64.502" rx="1.283"/><path class="cls-5" d="M98.732,108.018a2.366,2.366,0,0,1-2.321,1.933h-17.7a2.369,2.369,0,0,1-2.32-1.933Z"/><path class="cls-6" d="M123.924,100.064H50.888V21.447L71.82.515h52.1Z"/><rect class="cls-7" x="67.177" y="34.335" width="23.169" height="4.846"/><rect class="cls-7" x="67.177" y="43.48" width="41.947" height="4.846"/><rect class="cls-7" x="67.177" y="52.253" width="41.947" height="4.846"/><rect class="cls-7" x="67.177" y="61.398" width="41.947" height="4.846"/><polygon class="cls-8" points="71.923 21.53 50.887 42.565 50.887 21.444 61.362 10.969 71.923 21.53"/><polygon class="cls-9" points="71.819 21.447 50.887 21.447 71.819 0.515 71.819 21.447"/><rect class="cls-10" x="114.37" y="88.044" width="3.9" height="7.2" transform="translate(-24.631 137.05) rotate(-56.089)"/><rect class="cls-10" x="114.37" y="88.044" width="3.9" height="7.2" transform="translate(-24.631 137.05) rotate(-56.089)"/><path class="cls-11" d="M153.253,111.56a3.494,3.494,0,0,1,1.4,4.8l-.9,1.3a3.57,3.57,0,0,1-5,.6l-.8-.6-1.2-.9-.7-.5-1.2-.9-26.7-18.7a1.8,1.8,0,0,1-.6-2.3l2-2.9a1.688,1.688,0,0,1,2.3-.3l27.4,17.6,1.2.8.7.5,1.2.8Z"/><polygon class="cls-12" points="122.853 100.16 126.653 94.46 125.053 93.46 121.353 99.06 122.853 100.16"/><polygon class="cls-12" points="150.453 109.76 146.053 116.36 144.753 115.56 149.153 108.96 150.453 109.76"/><polygon class="cls-12" points="152.353 111.06 147.953 117.76 146.653 116.86 151.153 110.26 152.353 111.06"/><path class="cls-13" d="M113.853,89.96a21.758,21.758,0,1,1-5.9-30.2A21.822,21.822,0,0,1,113.853,89.96Z"/><g class="cls-14"><path d="M114.753,90.56a22.84,22.84,0,1,1-6.2-31.7A22.833,22.833,0,0,1,114.753,90.56Zm-35.2-23.7a19.664,19.664,0,1,0,27.3-5.3A19.829,19.829,0,0,0,79.553,66.86Z"/></g><path class="cls-10" d="M115.353,90.96a23.492,23.492,0,1,1-6.4-32.6A23.5,23.5,0,0,1,115.353,90.96Zm-36.3-24.4a20.247,20.247,0,1,0,28.1-5.5A20.27,20.27,0,0,0,79.053,66.56Z"/></svg>