<svg id="Warstwa_1" data-name="Warstwa 1" xmlns="http://www.w3.org/2000/svg" xmlns:xlink="http://www.w3.org/1999/xlink" viewBox="0 0 175 119"><defs><style>.cls-1{fill:#07080a;}.cls-2{fill:#efefef;}.cls-3{fill:url(#linear-gradient);}.cls-4{fill:#82c8ce;}.cls-5{fill:#cccbcb;}.cls-6{fill:#f0f4f6;}.cls-7{fill:#2f9ef3;}.cls-8{fill:#73b7e0;}.cls-9{fill:#47718a;}.cls-10{fill:#ff266b;}.cls-11{isolation:isolate;opacity:0.33;fill:url(#radial-gradient);}.cls-12{opacity:0.09;}</style><linearGradient id="linear-gradient" x1="87.542" y1="1263.472" x2="87.392" y2="1224.851" gradientTransform="matrix(1, 0, 0, -1, 0, 1362.562)" gradientUnits="userSpaceOnUse"><stop offset="0" stop-color="#fff"/><stop offset="1"/></linearGradient><radialGradient id="radial-gradient" cx="-691.333" cy="2007.926" r="23.119" gradientTransform="matrix(0.558, -0.83, 0.83, 0.558, -1184.966, -1616.385)" gradientUnits="userSpaceOnUse"><stop offset="0.531" stop-color="#cfedff"/><stop offset="1" stop-color="#ade1ff"/></radialGradient></defs><rect class="cls-1" x="32.519" y="34.492" width="109.518" height="75.252" rx="3.911"/><rect class="cls-2" x="19.957" y="107.981" width="135.08" height="2.423"/><path class="cls-3" d="M116.753,110.405H19.958s3.23,2.193,9.357,2.193H145.68c6.128,0,9.357-2.193,9.357-2.193Z"/><rect class="cls-4" x="36.415" y="38.764" width="102.334" height="64.502" rx="1.283"/><path class="cls-5" d="M98.824,107.981a2.365,2.365,0,0,1-2.321,1.933H78.8a2.368,2.368,0,0,1-2.32-1.933Z"/><circle class="cls-6" cx="87.577" cy="46.534" r="42.778"/><rect class="cls-7" x="69.502" y="32.448" width="20.456" height="4.278"/><rect class="cls-7" x="69.502" y="40.522" width="37.034" height="4.278"/><rect class="cls-7" x="69.502" y="48.267" width="37.034" height="4.278"/><path class="cls-7" d="M69.5,56.341h34.814a2.219,2.219,0,0,1,2.219,2.219V60.62a0,0,0,0,1,0,0H69.5a0,0,0,0,1,0,0V56.341A0,0,0,0,1,69.5,56.341Z"/><rect class="cls-8" x="114.462" y="88.007" width="3.9" height="7.2" transform="translate(-24.56 137.11) rotate(-56.089)"/><rect class="cls-8" x="114.462" y="88.007" width="3.9" height="7.2" transform="translate(-24.56 137.11) rotate(-56.089)"/><path class="cls-9" d="M153.345,111.523a3.494,3.494,0,0,1,1.44,4.727c-.013.024-.026.049-.04.073l-.9,1.3a3.57,3.57,0,0,1-5,.6l-.8-.6-1.2-.9-.7-.5-1.2-.9-26.7-18.7a1.8,1.8,0,0,1-.6-2.3l2-2.9a1.688,1.688,0,0,1,2.3-.3l27.4,17.6,1.2.8.7.5,1.2.8Z"/><polygon class="cls-10" points="122.945 100.123 126.745 94.423 125.145 93.423 121.445 99.023 122.945 100.123"/><polygon class="cls-10" points="150.545 109.723 146.145 116.323 144.845 115.523 149.245 108.923 150.545 109.723"/><polygon class="cls-10" points="152.445 111.023 148.045 117.723 146.745 116.823 151.245 110.223 152.445 111.023"/><path class="cls-11" d="M113.945,89.923a21.758,21.758,0,1,1-5.9-30.2A21.758,21.758,0,0,1,113.945,89.923Z"/><g class="cls-12"><path d="M114.845,90.523a22.84,22.84,0,1,1-6.2-31.7h0a22.833,22.833,0,0,1,6.208,31.688Zm-35.2-23.7a19.664,19.664,0,1,0,27.3-5.3A19.663,19.663,0,0,0,79.645,66.823Z"/></g><path class="cls-8" d="M115.445,90.923a23.492,23.492,0,1,1-6.4-32.6h0A23.5,23.5,0,0,1,115.445,90.923Zm-36.3-24.4a20.247,20.247,0,1,0,28.1-5.5h0A20.27,20.27,0,0,0,79.145,66.523Z"/></svg>