<svg id="Warstwa_1" data-name="Warstwa 1" xmlns="http://www.w3.org/2000/svg" viewBox="0 0 175 119"><defs><style>.cls-1{fill:#f9fff0;}.cls-2{fill:#f0f4f6;}.cls-11,.cls-3,.cls-5,.cls-6,.cls-7,.cls-8,.cls-9{fill:#bcbcbc;}.cls-3{opacity:0.35;}.cls-4{fill:#edcd51;}.cls-5{opacity:0.3;}.cls-6{opacity:0.25;}.cls-7{opacity:0.2;}.cls-8{opacity:0.15;}.cls-9{opacity:0.1;}.cls-10{opacity:0.05;}</style></defs><path class="cls-1" d="M125.094,20.78a4.847,4.847,0,0,0,4.9,4.9,5.136,5.136,0,0,0,.969-.094V15.975a5.135,5.135,0,0,0-.969-.095A4.848,4.848,0,0,0,125.094,20.78Z"/><path class="cls-1" d="M125.857,44.532l-.21-.038-.1-.032-.081-.012a5.67,5.67,0,0,1-1.024-.223l-1.652-.551-.341-1.707c-.166-.83-.3-1.661-.423-2.478-.633.468-1.233.927-1.806,1.367l-1.68,1.292L116.764,41a23.01,23.01,0,0,1-5.274-4.7c-.674-.79-1.215-1.547-1.738-2.279l-.888-1.243.483-1.449a5.15,5.15,0,0,1,1.031-1.767c.276-.374.551-.727.822-1.075l-2.258-.344-2.048-.311-.434-2.026a24.293,24.293,0,0,1,0-9.936l.431-2.085,2.11-.281c.663-.089,1.327-.2,2-.309l.31-.05c-.477-.645-.943-1.256-1.391-1.838L108.63,9.639l1.137-1.776A23.287,23.287,0,0,1,116.873.756H69.084L44.226,25.615V118.98h86.737V44.846q-.588.035-1.169.034A21.8,21.8,0,0,1,125.857,44.532Z"/><path class="cls-2" d="M140.5,37.714l.113-.079.182.145,1.194-.251.063-.032a3.9,3.9,0,0,1,.889-.32,17.965,17.965,0,0,0,4.453-5l-2.8-3.8c.4-.9.7-1.7,1-2.5,1.6-.2,3.1-.5,4.6-.7a18.283,18.283,0,0,0,0-8.7c-1.6-.2-3.1-.5-4.6-.7-.3-.8-.7-1.6-1-2.5l2.8-3.7a19.271,19.271,0,0,0-6.2-6.2c-1.2.9-2.4,1.8-3.7,2.8-.9-.4-1.7-.7-2.5-1.1-.2-1.6-.5-3.1-.7-4.6a21.184,21.184,0,0,0-4.4-.5,21.984,21.984,0,0,0-4.4.5c-.012.095-.025.182-.037.276-.189,1.5-.381,2.913-.663,4.324-.9.3-1.7.7-2.5,1l-3.8-2.8a20.373,20.373,0,0,0-6.2,6.2c1,1.3,1.9,2.5,2.8,3.8l-.3.7c-.3.6-.5,1.2-.8,1.8-1.6.2-3.1.5-4.6.7a21.248,21.248,0,0,0,0,8.7l4.6.7c.3.8.7,1.6,1,2.5-.7,1.1-1.5,2-2.3,3.1a2.177,2.177,0,0,0-.5.8c.5.7,1,1.4,1.6,2.1a19.914,19.914,0,0,0,4.6,4.1c1.3-1,2.5-1.9,3.8-2.8.9.4,1.7.7,2.5,1.1.2,1.6.4,3.1.7,4.6.3.1.7.1,1,.2a18.7,18.7,0,0,0,3.4.3c.4,0,.785-.015,1.169-.041a21.954,21.954,0,0,0,3.131-.459c.2-1.6.5-3.1.7-4.6l2.5-1A14.642,14.642,0,0,1,140.5,37.714Zm-9.537-9.1a8.143,8.143,0,0,1-.969.063,7.9,7.9,0,0,1,0-15.8,8.142,8.142,0,0,1,.969.064,7.9,7.9,0,0,1,0,15.673Z"/><path class="cls-2" d="M153.894,50.68a7.718,7.718,0,0,0,0-3.7l-2-.3c-.1-.4-.3-.7-.4-1.1l1.2-1.6a8.066,8.066,0,0,0-2.6-2.6l-1.6,1.2-1-.4c-.1-.7-.2-1.3-.3-2a11.177,11.177,0,0,0-1.9-.2,7.708,7.708,0,0,0-1.168.071c-.078.012-.149.013-.232.03a.909.909,0,0,0-.5.1v.3a9.852,9.852,0,0,0-.2,1.7l-.295.108-.805.293-1.1-.8-.5-.4a10.719,10.719,0,0,0-2.6,2.6c.4.5.8,1.1,1.2,1.6a6.9,6.9,0,0,0-.4,1c-.7.1-1.3.2-2,.3a7.718,7.718,0,0,0,0,3.7l2,.3.4,1c-.4.6-.8,1.1-1.2,1.6a10.7,10.7,0,0,0,2.6,2.6l1.6-1.2,1.1.4c.1.7.2,1.3.3,2a8.65,8.65,0,0,0,3.7,0c.1-.7.2-1.3.3-2l1.1-.4c.5.4,1.1.8,1.6,1.2a8.066,8.066,0,0,0,2.6-2.6c-.4-.5-.8-1.1-1.2-1.6a6.9,6.9,0,0,0,.4-1A12.252,12.252,0,0,0,153.894,50.68Zm-8.6,1.5a3.3,3.3,0,1,1,3.3-3.3A3.329,3.329,0,0,1,145.294,52.18Z"/><rect class="cls-3" x="63.57" y="41.849" width="49.816" height="5.755"/><rect class="cls-4" x="63.57" y="52.604" width="59.159" height="5.755"/><rect class="cls-5" x="63.57" y="63.359" width="49.816" height="5.755"/><rect class="cls-6" x="63.57" y="74.114" width="49.816" height="5.755"/><rect class="cls-7" x="63.57" y="84.868" width="49.816" height="5.755"/><rect class="cls-8" x="63.57" y="95.623" width="49.816" height="5.755"/><rect class="cls-9" x="63.57" y="106.378" width="49.816" height="5.755"/><polygon class="cls-10" points="69.206 25.713 44.225 50.694 44.225 25.612 56.665 13.172 69.206 25.713"/><polygon class="cls-11" points="69.083 25.615 44.224 25.615 69.083 0.756 69.083 25.615"/></svg>