<?xml version="1.0" encoding="utf-8"?>
<!-- Generator: Adobe Illustrator 26.0.1, SVG Export Plug-In . SVG Version: 6.00 Build 0)  -->
<svg version="1.1" id="Layer_1" xmlns="http://www.w3.org/2000/svg" xmlns:xlink="http://www.w3.org/1999/xlink" x="0px" y="0px"
	 viewBox="0 0 175 119" style="enable-background:new 0 0 175 119;" xml:space="preserve">
<style type="text/css">
	.st0{fill:#F0F4F6;}
</style>
<g>
	<path class="st0" d="M109.5,51.6c1,1,2.1,1.3,3,1.3c1.2,0.1,2.2-0.1,2.2-0.1c-1.7-1.5-3.9-2.3-5-2.4
		C108.9,50.4,108.6,50.7,109.5,51.6z"/>
	<path class="st0" d="M87.8,0C62.5,0,40.9,15.8,32.3,38.1H33v2.5h-1.7c-2,6-3.1,12.3-3.1,19c0,8.9,2,17.3,5.4,24.9
		c9.4,20.4,30.1,34.6,54.1,34.6c24,0,44.6-14.2,54.1-34.6c3.5-7.6,5.4-16,5.4-24.9C147.3,26.6,120.6,0,87.8,0z M43.8,36.7h2.1v2.2
		h-2.1V36.7z M48.3,43.6v3.1h-2.9v-3.1H48.3z M35.8,50.2h-2.9v-3.1h2.9V50.2z M37.9,55h-2.1v-2.2h2.1V55z M41.1,45.3H39v-2.2h2.1
		V45.3z M45.8,52.7h-3.3v-3.5h3.3V52.7z M48.9,59.2h-2.1V57h2.1V59.2z M51.2,45.4h3.6v3.8h-3.6V45.4z M55.2,55.8h-3.4v-3.7h3.4V55.8
		z M54.1,40.8v-2.7h2.5v2.1h1.7v2.2h-2.1v-1.6H54.1z M60.4,61.7h-3.1v-3.3h3.1V61.7z M62.2,50.9h-3.8v-4h3.2v-2h4.3v4.6h-3.7V50.9z
		 M67.4,57.9h-3.8v-4.1h3.8V57.9z M72.1,64.3h-3.6v-3.8h3.6V64.3z M74.7,57.7h-2.2v-2.3h2.2V57.7z M76.2,56.8v-4.6h-2.4v-1.5h-1v2.9
		h-4.1v-4.4h4V47h-3.4v-4.3h-2.8v-1.3h-2.8c-2-1.7-5.9-4.7-11.2-7.3c38.7,3.1,29,40.9,27,44.7c0,0-1-8.7-3.4-16.4h0.9V61h1.1v-4.2
		H76.2z M110.3,62.4c-10.2,5.3-23,19.6-32.5,22.9c0,0,11.7-14.1,4.9-37l2.8-2.9l-3.9,0.7c-0.4-0.6-0.7-1.2-1.2-1.7l1.4-1.3L79.5,43
		c-3.1-3.7-7.7-7-14.6-9.2c0,0,20.1,0.4,29.3,12.3c2.6-0.7,7.8-1.7,13-0.8c2.8,0.5,7.2,1.7,11.1,6.2c0,0,9.1,4.8,10.3,8.8
		C129.2,62.2,120.1,57.3,110.3,62.4z"/>
	<rect x="24.4" y="47.3" class="st0" width="2.6" height="2.8"/>
	<rect x="20.5" y="40.7" class="st0" width="2.2" height="2.3"/>
	<rect x="10.1" y="37" class="st0" width="2.1" height="2.2"/>
</g>
</svg>
