<svg id="Warstwa_1" data-name="Warstwa 1" xmlns="http://www.w3.org/2000/svg" viewBox="0 0 175 119"><defs><style>.cls-1,.cls-3{fill:#fff;}.cls-1{opacity:0.45;}.cls-2{fill:#f75e71;}.cls-4{fill:#f7df1e;}</style></defs><polygon class="cls-1" points="122.662 44.979 122.662 56.816 52.302 56.816 52.302 44.979 47.601 44.979 47.601 61.517 85.131 61.517 85.131 74.349 89.832 74.349 89.832 61.517 127.363 61.517 127.363 44.979 122.662 44.979"/><circle class="cls-2" cx="49.951" cy="24.84" r="24.84"/><rect class="cls-3" x="39.456" y="16.661" width="11.878" height="2.484"/><rect class="cls-3" x="39.456" y="21.349" width="21.505" height="2.484"/><rect class="cls-3" x="39.456" y="25.847" width="21.505" height="2.484"/><rect class="cls-3" x="39.456" y="30.535" width="21.505" height="2.484"/><circle class="cls-2" cx="125.049" cy="24.84" r="24.84"/><rect class="cls-3" x="114.554" y="16.661" width="11.878" height="2.484"/><rect class="cls-3" x="114.554" y="21.349" width="21.505" height="2.484"/><rect class="cls-3" x="114.554" y="25.847" width="21.505" height="2.484"/><rect class="cls-3" x="114.554" y="30.535" width="21.505" height="2.484"/><path class="cls-2" d="M102.133,93.6h10.175a24.837,24.837,0,1,0-10.175,20.612V93.6ZM76.986,85.981H88.864v2.484H76.986Zm21.5,16.358h-21.5V99.855h21.5Zm0-4.688h-21.5V95.167h21.5Zm0-4.5h-21.5V90.669h21.5Z"/><rect class="cls-3" x="76.986" y="85.981" width="11.878" height="2.484"/><rect class="cls-3" x="76.986" y="90.669" width="21.505" height="2.484"/><rect class="cls-3" x="76.986" y="95.167" width="21.505" height="2.484"/><rect class="cls-3" x="76.986" y="99.855" width="21.505" height="2.484"/><path class="cls-4" d="M112.286,95.483h-8.272v21.244h21.243V95.483Zm3.3,16.569a2.71,2.71,0,0,1-2.98,3.008,3.1,3.1,0,0,1-3-1.824l1.625-.983c.314.556.6,1.026,1.285,1.026.656,0,1.069-.256,1.069-1.254v-6.788h2Zm4.717,3.011a3.835,3.835,0,0,1-3.637-2.041l1.622-.942a2.174,2.174,0,0,0,1.969,1.212c.827,0,1.356-.414,1.356-.985,0-.684-.543-.927-1.454-1.325l-.5-.214c-1.44-.614-2.4-1.383-2.4-3.008a2.667,2.667,0,0,1,2.923-2.637,2.951,2.951,0,0,1,2.84,1.6l-1.555,1a1.357,1.357,0,0,0-1.285-.856.869.869,0,0,0-.955.856c0,.6.371.841,1.228,1.212l.5.214c1.7.727,2.654,1.468,2.654,3.136C123.607,114.079,122.2,115.063,120.3,115.063Z"/><path d="M120.253,113.292a2.174,2.174,0,0,1-1.969-1.212l-1.622.942a3.835,3.835,0,0,0,3.637,2.041c1.9,0,3.308-.984,3.308-2.781,0-1.668-.958-2.409-2.654-3.136l-.5-.214c-.857-.371-1.228-.614-1.228-1.212a.869.869,0,0,1,.955-.856,1.357,1.357,0,0,1,1.285.856l1.555-1a2.951,2.951,0,0,0-2.84-1.6,2.667,2.667,0,0,0-2.923,2.637c0,1.625.957,2.394,2.4,3.008l.5.214c.911.4,1.454.641,1.454,1.325C121.609,112.878,121.08,113.292,120.253,113.292Z"/><path d="M112.6,115.06a2.71,2.71,0,0,0,2.98-3.008v-6.815h-2v6.788c0,1-.413,1.254-1.069,1.254-.686,0-.971-.47-1.285-1.026l-1.625.983A3.1,3.1,0,0,0,112.6,115.06Z"/></svg>