<svg id="Warstwa_1" data-name="Warstwa 1" xmlns="http://www.w3.org/2000/svg" viewBox="0 0 175 119"><defs><style>.cls-1,.cls-4{opacity:0.45;}.cls-2,.cls-3,.cls-4{fill:none;stroke:#fff;stroke-miterlimit:10;stroke-width:5.057px;}.cls-3{stroke-dasharray:6.073 6.073;}.cls-5{fill:#c69c6d;}.cls-6{fill:#f0f4f6;}.cls-7{fill:#5d7486;}.cls-8{fill:#ffcc5a;}.cls-9{font-size:10.122px;}.cls-10,.cls-11,.cls-12,.cls-9{fill:#2f9ef3;font-family:JetBrainsMono-ExtraBold, JetBrains Mono;font-weight:800;}.cls-10{opacity:0.3;font-size:8.857px;}.cls-11{opacity:0.15;font-size:7.592px;}.cls-12{opacity:0.07;font-size:6.748px;}</style></defs><g class="cls-1"><line class="cls-2" x1="65.763" y1="38.087" x2="67.828" y2="40.311"/><line class="cls-3" x1="71.96" y1="44.761" x2="102.955" y2="78.139"/><line class="cls-2" x1="105.021" y1="80.364" x2="107.086" y2="82.588"/></g><line class="cls-4" x1="49.47" y1="40.056" x2="49.47" y2="110.404"/><circle class="cls-5" cx="107.824" cy="82.371" r="18.206"/><rect class="cls-6" x="99.407" y="75.968" width="9.298" height="1.945"/><rect class="cls-6" x="99.407" y="79.638" width="16.833" height="1.945"/><rect class="cls-6" x="99.407" y="83.159" width="16.833" height="1.945"/><rect class="cls-6" x="99.407" y="86.829" width="16.833" height="1.945"/><circle class="cls-7" cx="49.47" cy="100.794" r="18.206"/><rect class="cls-6" x="41.242" y="94.391" width="9.298" height="1.945"/><rect class="cls-6" x="41.242" y="98.061" width="16.833" height="1.945"/><rect class="cls-6" x="41.242" y="101.582" width="16.833" height="1.945"/><rect class="cls-6" x="41.242" y="105.252" width="16.833" height="1.945"/><line class="cls-4" x1="72.23" y1="23.023" x2="129.063" y2="23.023"/><circle class="cls-8" cx="125.53" cy="27.406" r="18.206"/><rect class="cls-6" x="117.113" y="21.003" width="9.298" height="1.945"/><rect class="cls-6" x="117.113" y="24.673" width="16.833" height="1.945"/><rect class="cls-6" x="117.113" y="28.193" width="16.833" height="1.945"/><rect class="cls-6" x="117.113" y="31.863" width="16.833" height="1.945"/><rect class="cls-6" x="31.401" width="46.825" height="51.701" rx="3.421"/><text class="cls-9" transform="translate(35.033 17.33)">&lt;K,V&gt;</text><text class="cls-10" transform="translate(34.992 28.736)">&lt;K,V&gt;</text><text class="cls-11" transform="translate(34.992 38.709)">&lt;K,V&gt;</text><text class="cls-12" transform="translate(34.992 47.617)">&lt;K,V&gt;</text></svg>