<svg id="Warstwa_1" data-name="Warstwa 1" xmlns="http://www.w3.org/2000/svg" viewBox="0 0 175 119"><defs><style>.cls-1{fill:#ffcc5a;}.cls-2{fill:#fff;}.cls-3{fill:#f0f4f6;}</style></defs><path class="cls-1" d="M124.96,41a10.4,10.4,0,0,1-7.406-3.067l-.479-.479-4.39,4.39a4.657,4.657,0,0,1-6.586,0L103.956,39.7a4.658,4.658,0,0,1,0-6.587l4.39-4.39-.479-.479a10.486,10.486,0,0,1,0-14.811l4.2-4.2a57.787,57.787,0,1,0,25.294,23.7l-4.993,4.993A10.4,10.4,0,0,1,124.96,41ZM62.7,42.275H90.3v5.772H62.7Zm49.97,38.012H62.7V74.514h49.97Zm0-10.894H62.7V63.62h49.97Zm0-10.451H62.7V53.169h49.97Z"/><rect class="cls-2" x="62.697" y="42.275" width="27.6" height="5.773"/><rect class="cls-2" x="62.697" y="53.169" width="49.969" height="5.773"/><rect class="cls-2" x="62.697" y="63.62" width="49.969" height="5.773"/><rect class="cls-2" x="62.697" y="74.514" width="49.969" height="5.773"/><path class="cls-3" d="M144.818,10.189h0a2.788,2.788,0,0,0-3.942,0l-6.865,6.866-5.431-5.431,6.865-6.865a2.788,2.788,0,0,0,0-3.943h0a2.788,2.788,0,0,0-3.942,0l-6.865,6.866L122.066,5.11a1.369,1.369,0,0,0-1.936,0l-5.46,5.46L109.838,15.4a7.686,7.686,0,0,0,0,10.869l2.45,2.45-6.361,6.361a1.87,1.87,0,0,0,0,2.644l2.143,2.143a1.869,1.869,0,0,0,2.644,0l6.361-6.361,2.45,2.45a7.686,7.686,0,0,0,10.869,0l5.488-5.488,4.8-4.8a1.369,1.369,0,0,0,0-1.935L137.953,21l6.865-6.866A2.787,2.787,0,0,0,144.818,10.189Z"/></svg>