<?xml version="1.0" encoding="utf-8"?>
<!-- Generator: Adobe Illustrator 26.0.1, SVG Export Plug-In . SVG Version: 6.00 Build 0)  -->
<svg version="1.1" id="Warstwa_1" xmlns="http://www.w3.org/2000/svg" xmlns:xlink="http://www.w3.org/1999/xlink" x="0px" y="0px"
	 viewBox="0 0 175 119" style="enable-background:new 0 0 175 119;" xml:space="preserve">
<style type="text/css">
	.st0{fill:#F0F4F6;}
	.st1{fill:#BCBCBC;}
	.st2{opacity:5.000000e-02;enable-background:new    ;}
	.st3{fill:none;}
	.st4{fill:#F9FFF0;}
	.st5{fill:#6972EE;}
	.st6{fill:#518BEE;}
	.st7{fill:#50ACFF;}
</style>
<rect x="102.1" y="9.9" class="st0" width="17.9" height="14.2"/>
<rect x="56.6" y="42.7" class="st1" width="26.9" height="5.6"/>
<rect x="56.6" y="53.3" class="st1" width="48.7" height="5.6"/>
<rect x="56.6" y="63.5" class="st1" width="48.7" height="5.6"/>
<rect x="56.6" y="74.1" class="st1" width="48.7" height="5.6"/>
<rect x="35.1" y="21.7" transform="matrix(0.7071 -0.7071 0.7071 0.7071 -2.5083 37.2612)" class="st2" width="17.2" height="0"/>
<rect x="37.6" y="27.7" class="st2" width="0" height="24.5"/>
<g>
	<rect x="56.6" y="63.5" class="st3" width="48.7" height="5.6"/>
	<rect x="56.6" y="74.1" class="st3" width="48.7" height="5.6"/>
	<rect x="56.6" y="42.7" class="st3" width="26.9" height="5.6"/>
	<rect x="56.6" y="53.3" class="st3" width="48.7" height="5.6"/>
	<path class="st4" d="M120.8,45.3c-6.1,0-11.9-3-15.3-8.1c-1.9-1.3-3.6-3-4.9-4.9C92.2,26.6,90,15.1,95.7,6.7
		c0.8-1.2,1.7-2.3,2.8-3.2H61.9v24.3l0.1,0.1l0,0l0,0l-0.1-0.1v0H37.6v24.5V119h84.8V45.2C121.9,45.3,121.3,45.3,120.8,45.3z
		 M83.4,42.7v5.6H56.6v-5.6H83.4z M105.2,79.7H56.6v-5.6h48.7V79.7z M105.2,69.1H56.6v-5.6h48.7V69.1z M105.2,58.9H56.6v-5.6h48.7
		V58.9z"/>
</g>
<polygon class="st2" points="61.9,27.7 61.9,27.7 37.6,27.7 37.6,52.3 62,27.8 "/>
<path class="st1" d="M61.9,3.4L61.9,3.4L49.8,15.6l0,0L61.9,3.4z"/>
<polygon class="st1" points="37.6,27.7 37.6,27.7 37.6,27.7 "/>
<path class="st1" d="M61.9,27.7V3.4L49.8,15.6L61.9,27.7z"/>
<path class="st1" d="M37.6,27.7l12.2-12.2l0,0L37.6,27.7L37.6,27.7L37.6,27.7z"/>
<path class="st1" d="M37.6,27.7h24.3v0L49.8,15.6L37.6,27.7z"/>
<path class="st5" d="M133.5,16.2c3.2,9.7-2.1,20.2-11.9,23.3c-3.7,1.2-7.7,1.2-11.5,0c3,2.5,6.7,3.8,10.6,3.8c0.6,0,1.1,0,1.6-0.1
	c9.1-0.9,15.7-9,14.8-18.1C137,21.9,135.6,18.7,133.5,16.2z"/>
<path class="st6" d="M129.8,12.9c-0.4-0.5-0.7-1.1-1.2-1.6c0.1,0.3,0.2,0.7,0.3,1.1c1,3.9,0.8,8-0.8,11.8c-0.3,0.6-0.6,1.3-0.9,1.9
	c-0.3,0.5-0.6,1-0.9,1.5c-0.9,1.3-2,2.5-3.2,3.5c-0.2,0.2-0.4,0.4-0.7,0.5c-4.5,3.6-10.5,4.8-16.1,3.3c-0.4-0.1-0.7-0.2-1.1-0.3
	c0.5,0.4,1,0.8,1.6,1.1c6.8,4.5,15.9,3.3,21.3-2.8c0.2-0.3,0.5-0.5,0.7-0.8C133.3,26.6,133.7,18.8,129.8,12.9L129.8,12.9z"/>
<path class="st7" d="M126.6,11.3c-0.2-0.4-0.3-0.8-0.5-1.2s-0.4-0.8-0.6-1.2c-0.2-0.3-0.3-0.6-0.5-0.9c-0.4-0.7-0.9-1.3-1.5-1.9
	c-0.3-0.4-0.7-0.7-1-1c-0.3-0.2-0.5-0.5-0.8-0.7c-0.4-0.3-0.7-0.6-1.1-0.9c-7.5-5.2-17.8-3.4-23.1,4.1c-4.3,6.1-3.9,14.3,0.9,20.1
	c1.1,1.3,2.3,2.4,3.7,3.3c0.3,0.2,0.6,0.4,0.9,0.5c0.4,0.2,0.8,0.4,1.2,0.6s0.8,0.4,1.2,0.5c4.8,1.8,10.2,1.3,14.5-1.5
	c0.8-0.5,1.5-1,2.2-1.7c0.1-0.1,0.3-0.2,0.4-0.4c0.3-0.3,0.6-0.6,0.9-1c0.2-0.2,0.3-0.4,0.5-0.5c0.1-0.1,0.1-0.2,0.2-0.2
	c0.3-0.4,0.6-0.8,0.9-1.3c0.4-0.6,0.7-1.2,1-1.9C127.9,20.1,128.1,15.5,126.6,11.3L126.6,11.3z M119.1,19.7h-16.2v-1.9h16.2
	L119.1,19.7L119.1,19.7z M108,16.3h-5.1v-1.9h16.2v1.9L108,16.3L108,16.3z M102.9,10.9h9v1.9h-9V10.9L102.9,10.9z M104.6,23.2h-1.7
	v-1.9h16.2v1.9L104.6,23.2L104.6,23.2z"/>
</svg>
