<?xml version="1.0" encoding="utf-8"?>
<!-- Generator: Adobe Illustrator 26.0.1, SVG Export Plug-In . SVG Version: 6.00 Build 0)  -->
<svg version="1.1" id="Warstwa_1" xmlns="http://www.w3.org/2000/svg" xmlns:xlink="http://www.w3.org/1999/xlink" x="0px" y="0px"
	 viewBox="0 0 175 119" style="enable-background:new 0 0 175 119;" xml:space="preserve">
<style type="text/css">
	.st0{opacity:0.45;}
	.st1{fill:none;stroke:#FFFFFF;stroke-width:5;stroke-miterlimit:10;}
	.st2{fill:#FFFFFF;}
	.st3{fill:#F0F4F6;}
	.st4{fill:#2F9EF3;}
</style>
<g>
	<g class="st0">
		<g>
			<line class="st1" x1="69.7" y1="25.2" x2="86.6" y2="33.9"/>
			<g>
				<polygon class="st2" points="83,37.7 93,37.2 87.6,28.8 				"/>
			</g>
		</g>
	</g>
	<g class="st0">
		<g>
			<line class="st1" x1="69.7" y1="93" x2="86.6" y2="84.3"/>
			<g>
				<polygon class="st2" points="87.6,89.4 93,81 83,80.5 				"/>
			</g>
		</g>
	</g>
</g>
<g>
	<circle class="st3" cx="39.2" cy="23.9" r="24"/>
	<g>
		<g>
			<g>
				<rect x="29" y="15.9" class="st4" width="11.5" height="2.4"/>
				<rect x="29" y="20.5" class="st4" width="20.8" height="2.4"/>
				<rect x="29" y="24.8" class="st4" width="20.8" height="2.4"/>
				<rect x="29" y="29.4" class="st4" width="20.8" height="2.4"/>
			</g>
		</g>
	</g>
</g>
<g>
	<circle class="st3" cx="39.4" cy="94.1" r="24"/>
	<g>
		<g>
			<g>
				<rect x="29.3" y="86.2" class="st4" width="11.5" height="2.4"/>
				<rect x="29.3" y="90.8" class="st4" width="20.8" height="2.4"/>
				<rect x="29.3" y="95.1" class="st4" width="20.8" height="2.4"/>
				<rect x="29.3" y="99.6" class="st4" width="20.8" height="2.4"/>
			</g>
		</g>
	</g>
</g>
<g>
	<g>
		<circle class="st4" cx="128.9" cy="59.1" r="30.9"/>
		<g>
			<rect x="115.5" y="43.5" class="st2" width="13.4" height="3.1"/>
			<rect x="115.5" y="49.2" class="st2" width="26.8" height="3.1"/>
			<rect x="115.5" y="55" class="st2" width="26.8" height="3.1"/>
			<g>
				<g>
					<g>
						<rect x="115.5" y="60.5" class="st2" width="26.8" height="3.1"/>
					</g>
				</g>
			</g>
			<rect x="115.5" y="66.1" class="st2" width="26.8" height="3.1"/>
			<rect x="115.5" y="71.6" class="st2" width="26.8" height="3.1"/>
		</g>
	</g>
</g>
</svg>
