<svg id="Warstwa_1" data-name="Warstwa 1" xmlns="http://www.w3.org/2000/svg" viewBox="0 0 175 119"><defs><style>.cls-1{opacity:0.45;}.cls-2{fill:none;stroke:#fff;stroke-miterlimit:10;stroke-width:5px;}.cls-3{fill:#fff;}.cls-4{fill:#ffcc5a;}.cls-5{fill:#f9fff0;}.cls-6{fill:#bcbcbc;}.cls-7{fill:#5d7486;}.cls-8{fill:#ea2880;}</style></defs><g class="cls-1"><line class="cls-2" x1="76.642" y1="25.802" x2="93.512" y2="34.534"/><polygon class="cls-3" points="89.924 38.292 99.885 37.833 94.508 29.436 89.924 38.292"/></g><rect class="cls-4" x="22.06" y="0.466" width="48.055" height="41.801"/><rect class="cls-5" x="27.417" y="5.126" width="37.341" height="32.482"/><rect class="cls-6" x="34.532" y="12.576" width="12.765" height="2.67"/><rect class="cls-6" x="34.532" y="17.615" width="23.111" height="2.67"/><rect class="cls-6" x="34.532" y="22.449" width="23.111" height="2.67"/><rect class="cls-6" x="34.532" y="27.487" width="23.111" height="2.67"/><g class="cls-1"><line class="cls-2" x1="76.641" y1="93.665" x2="93.512" y2="84.932"/><polygon class="cls-3" points="94.509 90.031 99.885 81.634 89.925 81.175 94.509 90.031"/></g><rect class="cls-7" x="22.06" y="77.199" width="48.055" height="41.801"/><rect class="cls-5" x="27.417" y="81.859" width="37.341" height="32.482"/><rect class="cls-6" x="34.532" y="104.22" width="12.765" height="2.67"/><rect class="cls-6" x="34.532" y="99.181" width="23.111" height="2.67"/><rect class="cls-6" x="34.532" y="94.348" width="23.111" height="2.67"/><rect class="cls-6" x="34.532" y="89.309" width="23.111" height="2.67"/><rect class="cls-8" x="104.885" y="28.695" width="48.055" height="62.076"/><rect class="cls-5" x="110.242" y="33.355" width="37.341" height="52.757"/><rect class="cls-6" x="117.357" y="40.805" width="12.765" height="2.67"/><rect class="cls-6" x="117.357" y="45.844" width="23.111" height="2.67"/><rect class="cls-6" x="117.357" y="50.677" width="23.111" height="2.67"/><rect class="cls-6" x="117.357" y="55.716" width="23.111" height="2.67"/><rect class="cls-6" x="117.357" y="75.786" width="12.765" height="2.67"/><rect class="cls-6" x="117.357" y="70.747" width="23.111" height="2.67"/><rect class="cls-6" x="117.357" y="65.914" width="23.111" height="2.67"/><rect class="cls-6" x="117.357" y="60.875" width="23.111" height="2.67"/></svg>