<svg id="Warstwa_1" data-name="Warstwa 1" xmlns="http://www.w3.org/2000/svg" viewBox="0 0 175 119"><defs><style>.cls-1{fill:#ffcc5a;}.cls-2{fill:#f9fff0;}.cls-3{fill:#bcbcbc;}.cls-4{opacity:0.05;}.cls-5{fill:#37c4ac;}.cls-6{fill:#fff;opacity:0.45;}</style></defs><circle class="cls-1" cx="87.5" cy="89.935" r="29.065"/><path class="cls-2" d="M102.247,110.035H72.754V78.288l8.452-8.452h21.041Z"/><rect class="cls-3" x="79.332" y="83.493" width="9.356" height="1.957"/><rect class="cls-3" x="79.332" y="87.186" width="16.938" height="1.957"/><rect class="cls-3" x="79.332" y="90.728" width="16.938" height="1.957"/><rect class="cls-3" x="79.332" y="94.421" width="16.938" height="1.957"/><polygon class="cls-4" points="81.248 78.322 72.754 86.816 72.754 78.287 76.984 74.058 81.248 78.322"/><polygon class="cls-3" points="81.206 78.289 72.753 78.289 81.206 69.836 81.206 78.289"/><circle class="cls-5" cx="55.528" cy="13.827" r="13.73"/><path class="cls-2" d="M62.494,23.322H48.563v-15l3.992-3.993h9.939Z"/><rect class="cls-3" x="51.67" y="10.784" width="4.419" height="0.924"/><rect class="cls-3" x="51.67" y="12.528" width="8.001" height="0.924"/><rect class="cls-3" x="51.67" y="14.202" width="8.001" height="0.924"/><rect class="cls-3" x="51.67" y="15.946" width="8.001" height="0.924"/><polygon class="cls-4" points="52.575 8.341 48.562 12.354 48.562 8.325 50.561 6.327 52.575 8.341"/><polygon class="cls-3" points="52.555 8.326 48.562 8.326 52.555 4.333 52.555 8.326"/><circle class="cls-5" cx="119.472" cy="13.827" r="13.73"/><path class="cls-2" d="M126.438,23.322H112.506v-15L116.5,4.333h9.939Z"/><rect class="cls-3" x="115.613" y="10.784" width="4.419" height="0.924"/><rect class="cls-3" x="115.613" y="12.528" width="8.001" height="0.924"/><rect class="cls-3" x="115.613" y="14.202" width="8.001" height="0.924"/><rect class="cls-3" x="115.613" y="15.946" width="8.001" height="0.924"/><polygon class="cls-4" points="116.518 8.341 112.506 12.354 112.506 8.325 114.504 6.327 116.518 8.341"/><polygon class="cls-3" points="116.499 8.326 112.506 8.326 116.499 4.333 116.499 8.326"/><polygon class="cls-6" points="119.359 37.78 119.359 43.751 57.291 43.751 57.291 37.765 59.057 37.758 55.375 31.441 51.745 37.787 53.242 37.781 53.242 47.801 86.321 47.801 86.321 57.33 90.37 57.33 90.37 47.801 123.409 47.801 123.409 37.764 124.946 37.758 121.264 31.441 117.634 37.787 119.359 37.78"/></svg>