<?xml version="1.0" encoding="utf-8"?>
<!-- Generator: Adobe Illustrator 26.0.1, SVG Export Plug-In . SVG Version: 6.00 Build 0)  -->
<svg version="1.1" id="Warstwa_1" xmlns="http://www.w3.org/2000/svg" xmlns:xlink="http://www.w3.org/1999/xlink" x="0px" y="0px"
	 viewBox="0 0 175 119" style="enable-background:new 0 0 175 119;" xml:space="preserve">
<style type="text/css">
	.st0{fill:#FFCC5A;}
	.st1{fill:#37C4AC;}
	.st2{opacity:0.45;fill:#FFFFFF;enable-background:new    ;}
	.st3{fill:#FFFFFF;}
</style>
<circle class="st0" cx="87.5" cy="89.9" r="29.1"/>
<circle class="st1" cx="55.5" cy="13.8" r="13.7"/>
<circle class="st1" cx="119.5" cy="13.8" r="13.7"/>
<polygon class="st2" points="119.4,37.8 119.4,43.8 57.3,43.8 57.3,37.8 59.1,37.8 55.4,31.4 51.7,37.8 53.2,37.8 53.2,47.8 
	86.3,47.8 86.3,57.3 90.4,57.3 90.4,47.8 123.4,47.8 123.4,37.8 124.9,37.8 121.3,31.4 117.6,37.8 "/>
<g>
	<g>
		<g>
			<rect x="49.7" y="9.4" class="st3" width="6.4" height="1.3"/>
			<rect x="49.7" y="11.9" class="st3" width="11.6" height="1.3"/>
			<rect x="49.7" y="14.4" class="st3" width="11.6" height="1.3"/>
			<rect x="49.7" y="16.9" class="st3" width="11.6" height="1.3"/>
		</g>
	</g>
</g>
<g>
	<g>
		<g>
			<rect x="113.6" y="9.4" class="st3" width="6.4" height="1.3"/>
			<rect x="113.6" y="11.9" class="st3" width="11.6" height="1.3"/>
			<rect x="113.6" y="14.4" class="st3" width="11.6" height="1.3"/>
			<rect x="113.6" y="16.9" class="st3" width="11.6" height="1.3"/>
		</g>
	</g>
</g>
<rect x="75.3" y="80.6" class="st3" width="13.8" height="2.9"/>
<rect x="75.3" y="86" class="st3" width="25" height="2.9"/>
<rect x="75.3" y="91.3" class="st3" width="25" height="2.9"/>
<rect x="75.3" y="96.7" class="st3" width="25" height="2.9"/>
</svg>
