<?xml version="1.0" encoding="utf-8"?>
<!-- Generator: Adobe Illustrator 26.0.1, SVG Export Plug-In . SVG Version: 6.00 Build 0)  -->
<svg version="1.1" id="Warstwa_1" xmlns="http://www.w3.org/2000/svg" xmlns:xlink="http://www.w3.org/1999/xlink" x="0px" y="0px"
	 viewBox="0 0 175 119" style="enable-background:new 0 0 175 119;" xml:space="preserve">
<style type="text/css">
	.st0{fill:none;stroke:#C69C6D;stroke-width:1.784;stroke-miterlimit:10;stroke-dasharray:5.352;}
	.st1{opacity:0.66;}
	.st2{fill:#FFFFFF;}
	.st3{fill:none;stroke:#5D7486;stroke-width:2.153;stroke-miterlimit:10;stroke-dasharray:4.131,4.131;}
	.st4{fill:none;stroke:#50ACFF;stroke-width:2.153;stroke-miterlimit:10;stroke-dasharray:3.568;}
	.st5{fill:#FFCC5A;}
</style>
<circle class="st0" cx="84" cy="98.7" r="20.3"/>
<g class="st1">
	<rect x="75.4" y="92.2" class="st2" width="9.5" height="2"/>
	<rect x="75.4" y="95.9" class="st2" width="17.2" height="2"/>
	<rect x="75.4" y="99.5" class="st2" width="17.2" height="2"/>
	<rect x="75.4" y="103.3" class="st2" width="17.2" height="2"/>
</g>
<path class="st3" d="M65,61.1c0,8.7-7.1,15.8-15.8,15.8c0,0,0,0,0,0c-20.9-0.8-20.9-30.7,0-31.6C57.9,45.3,65,52.4,65,61.1z"/>
<g class="st1">
	<rect x="42.9" y="56.2" class="st2" width="7.1" height="1.5"/>
	<rect x="42.9" y="59" class="st2" width="12.9" height="1.5"/>
	<rect x="42.9" y="61.7" class="st2" width="12.9" height="1.5"/>
	<rect x="42.9" y="64.5" class="st2" width="12.9" height="1.5"/>
</g>
<ellipse class="st4" cx="128.3" cy="73.4" rx="13.3" ry="13.5"/>
<g class="st1">
	<rect x="122.9" y="69.3" class="st2" width="5.9" height="1.2"/>
	<rect x="122.9" y="71.7" class="st2" width="10.8" height="1.2"/>
	<rect x="122.9" y="73.9" class="st2" width="10.8" height="1.2"/>
	<rect x="122.9" y="76.3" class="st2" width="10.8" height="1.2"/>
</g>
<circle class="st5" cx="90.6" cy="25.6" r="25.6"/>
<g>
	<g>
		<g>
			<g>
				<g>
					<rect x="79.6" y="17.2" class="st2" width="12.2" height="2.6"/>
					<rect x="79.6" y="22" class="st2" width="22.2" height="2.6"/>
					<rect x="79.6" y="26.6" class="st2" width="22.2" height="2.6"/>
					<rect x="79.6" y="31.5" class="st2" width="22.2" height="2.6"/>
				</g>
			</g>
		</g>
	</g>
</g>
</svg>
