<svg id="Warstwa_1" data-name="Warstwa 1" xmlns="http://www.w3.org/2000/svg" viewBox="0 0 175 119"><defs><style>.cls-1,.cls-4,.cls-5{fill:none;stroke-miterlimit:10;}.cls-1{stroke:#c69c6d;stroke-width:1.784px;stroke-dasharray:5.352;}.cls-2{opacity:0.66;}.cls-3{fill:#fff;}.cls-4{stroke:#5d7486;stroke-dasharray:4.131 4.131;}.cls-4,.cls-5{stroke-width:2.153px;}.cls-5{stroke:#50acff;stroke-dasharray:3.568;}.cls-6{fill:#ffcc5a;}.cls-7{fill:#f9fff0;}.cls-8{fill:#bcbcbc;}.cls-9{opacity:0.05;}</style></defs><circle class="cls-1" cx="84.035" cy="98.708" r="20.292"/><g class="cls-2"><rect class="cls-3" x="75.422" y="92.156" width="9.515" height="1.99"/><rect class="cls-3" x="75.422" y="95.912" width="17.227" height="1.99"/><rect class="cls-3" x="75.422" y="99.515" width="17.227" height="1.99"/><rect class="cls-3" x="75.422" y="103.27" width="17.227" height="1.99"/></g><path class="cls-4" d="M64.992,61.106A15.782,15.782,0,0,1,49.21,76.889c-20.936-.832-20.93-30.737,0-31.565A15.782,15.782,0,0,1,64.992,61.106Z"/><g class="cls-2"><rect class="cls-3" x="42.894" y="56.192" width="7.136" height="1.493"/><rect class="cls-3" x="42.894" y="59.009" width="12.92" height="1.493"/><rect class="cls-3" x="42.894" y="61.711" width="12.92" height="1.493"/><rect class="cls-3" x="42.894" y="64.528" width="12.92" height="1.493"/></g><ellipse class="cls-5" cx="128.256" cy="73.439" rx="13.317" ry="13.528"/><g class="cls-2"><rect class="cls-3" x="122.872" y="69.344" width="5.947" height="1.244"/><rect class="cls-3" x="122.872" y="71.692" width="10.767" height="1.244"/><rect class="cls-3" x="122.872" y="73.943" width="10.767" height="1.244"/><rect class="cls-3" x="122.872" y="76.291" width="10.767" height="1.244"/></g><circle class="cls-6" cx="90.638" cy="25.645" r="25.645"/><path class="cls-7" d="M103.649,43.38H77.626V15.369l7.458-7.458h18.565Z"/><rect class="cls-8" x="83.43" y="19.961" width="8.255" height="1.727"/><rect class="cls-8" x="83.43" y="23.219" width="14.946" height="1.727"/><rect class="cls-8" x="83.43" y="26.345" width="14.946" height="1.727"/><rect class="cls-8" x="83.43" y="29.603" width="14.946" height="1.727"/><polygon class="cls-9" points="85.121 15.398 77.626 22.893 77.626 15.368 81.358 11.636 85.121 15.398"/><polygon class="cls-8" points="85.084 15.369 77.626 15.369 85.084 7.911 85.084 15.369"/></svg>