<svg id="Warstwa_1" data-name="Warstwa 1" xmlns="http://www.w3.org/2000/svg" viewBox="0 0 175 119"><defs><style>.cls-1,.cls-10,.cls-11,.cls-5,.cls-9{opacity:0.45;}.cls-10,.cls-11,.cls-2,.cls-3,.cls-5,.cls-9{fill:none;stroke-miterlimit:10;stroke-width:2px;}.cls-10,.cls-2,.cls-3{stroke:#fff;}.cls-3{stroke-dasharray:6.275 6.275;}.cls-4{fill:#fff;}.cls-5{stroke:#7c5d43;}.cls-10,.cls-11,.cls-5,.cls-9{stroke-dasharray:6;}.cls-6{fill:#f9fff0;}.cls-7{fill:#bcbcbc;}.cls-8{opacity:0.05;}.cls-9{stroke:#5d7486;}.cls-11{stroke:#50acff;}.cls-12{fill:#ffcc5a;}.cls-13{fill:#455a64;}.cls-14{fill:#ffc107;}</style></defs><g class="cls-1"><line class="cls-2" x1="43.134" y1="11.772" x2="45.182" y2="13.963"/><line class="cls-3" x1="49.468" y1="18.547" x2="81.61" y2="52.928"/><line class="cls-2" x1="83.753" y1="55.22" x2="85.802" y2="57.411"/></g><g class="cls-1"><path class="cls-4" d="M52.306,69.906H50.319V67.154h1.987Zm0-20.639H50.319V43.3h1.987Z"/></g><circle class="cls-5" cx="106.287" cy="78.292" r="22.606"/><path class="cls-6" d="M117.756,93.925H94.817V69.233l6.575-6.574h16.364Z"/><rect class="cls-7" x="99.933" y="73.281" width="7.277" height="1.522"/><rect class="cls-7" x="99.933" y="76.153" width="13.174" height="1.522"/><rect class="cls-7" x="99.933" y="78.909" width="13.174" height="1.522"/><rect class="cls-7" x="99.933" y="81.781" width="13.174" height="1.522"/><polygon class="cls-8" points="101.424 69.259 94.817 75.866 94.817 69.232 98.107 65.942 101.424 69.259"/><polygon class="cls-7" points="101.391 69.233 94.817 69.233 101.391 62.659 101.391 69.233"/><circle class="cls-9" cx="51.313" cy="96.392" r="22.606"/><path class="cls-6" d="M62.783,112.025H39.844V87.334l6.574-6.575H62.783Z"/><rect class="cls-7" x="44.96" y="91.381" width="7.277" height="1.522"/><rect class="cls-7" x="44.96" y="94.254" width="13.174" height="1.522"/><rect class="cls-7" x="44.96" y="97.009" width="13.174" height="1.522"/><rect class="cls-7" x="44.96" y="99.881" width="13.174" height="1.522"/><polygon class="cls-8" points="46.45 87.36 39.844 93.966 39.844 87.333 43.134 84.043 46.45 87.36"/><polygon class="cls-7" points="46.418 87.334 39.843 87.334 46.418 80.759 46.418 87.334"/><line class="cls-10" x1="71.317" y1="19.984" x2="98.121" y2="19.984"/><circle class="cls-11" cx="123.683" cy="24.29" r="22.606"/><path class="cls-6" d="M135.152,39.923H112.213V15.231l6.575-6.574h16.364Z"/><rect class="cls-7" x="117.329" y="19.279" width="7.277" height="1.522"/><rect class="cls-7" x="117.329" y="22.151" width="13.174" height="1.522"/><rect class="cls-7" x="117.329" y="24.907" width="13.174" height="1.522"/><rect class="cls-7" x="117.329" y="27.779" width="13.174" height="1.522"/><polygon class="cls-8" points="118.82 15.257 112.213 21.864 112.213 15.23 115.503 11.941 118.82 15.257"/><polygon class="cls-7" points="118.787 15.231 112.213 15.231 118.787 8.657 118.787 15.231"/><circle class="cls-12" cx="51.313" cy="24.121" r="22.606"/><path class="cls-6" d="M62.783,39.754H39.844V15.063l6.574-6.575H62.783Z"/><rect class="cls-7" x="44.96" y="19.11" width="7.277" height="1.522"/><rect class="cls-7" x="44.96" y="21.983" width="13.174" height="1.522"/><rect class="cls-7" x="44.96" y="24.738" width="13.174" height="1.522"/><rect class="cls-7" x="44.96" y="27.61" width="13.174" height="1.522"/><polygon class="cls-8" points="46.45 15.089 39.844 21.695 39.844 15.062 43.134 11.772 46.45 15.089"/><polygon class="cls-7" points="46.418 15.063 39.843 15.063 46.418 8.488 46.418 15.063"/><path class="cls-13" d="M76.553,39.436a3.841,3.841,0,0,0-3.836,3.836v2.36a.3.3,0,0,0,.3.3h1.18a.3.3,0,0,0,.3-.3v-2.36a2.066,2.066,0,0,1,4.132,0v2.36a.3.3,0,0,0,.3.3h1.18a.3.3,0,0,0,.3-.3v-2.36A3.84,3.84,0,0,0,76.553,39.436Z"/><path class="cls-14" d="M73.012,45.337h7.082a1.475,1.475,0,0,1,1.475,1.476v5.311A1.475,1.475,0,0,1,80.094,53.6H73.012a1.475,1.475,0,0,1-1.475-1.476V46.813A1.475,1.475,0,0,1,73.012,45.337Z"/><path class="cls-13" d="M78.028,48.583A1.475,1.475,0,1,0,75.9,49.9l-.228,1.594a.294.294,0,0,0,.251.333.273.273,0,0,0,.041,0h1.18a.294.294,0,0,0,.3-.292.34.34,0,0,0,0-.045L77.21,49.9A1.48,1.48,0,0,0,78.028,48.583Z"/><path class="cls-13" d="M51.085,51.37a3.841,3.841,0,0,0-3.836,3.836v2.361a.3.3,0,0,0,.295.3h1.18a.3.3,0,0,0,.3-.3V55.206a2.066,2.066,0,0,1,4.131,0v2.361a.3.3,0,0,0,.3.3h1.18a.3.3,0,0,0,.3-.3V55.206A3.842,3.842,0,0,0,51.085,51.37Z"/><path class="cls-14" d="M47.544,57.272h7.082A1.475,1.475,0,0,1,56.1,58.747v5.312a1.475,1.475,0,0,1-1.475,1.475H47.544a1.475,1.475,0,0,1-1.475-1.475V58.747A1.475,1.475,0,0,1,47.544,57.272Z"/><path class="cls-13" d="M52.56,60.518a1.476,1.476,0,1,0-2.13,1.316L50.2,63.427a.3.3,0,0,0,.25.334l.042,0h1.18a.3.3,0,0,0,.3-.293.315.315,0,0,0,0-.044l-.228-1.594A1.479,1.479,0,0,0,52.56,60.518Z"/><path class="cls-13" d="M85.405,10.9a3.842,3.842,0,0,0-3.836,3.836v2.361a.3.3,0,0,0,.3.3h1.181a.3.3,0,0,0,.3-.3V14.732a2.066,2.066,0,0,1,4.131,0v2.361a.3.3,0,0,0,.3.3h1.18a.3.3,0,0,0,.3-.3V14.732A3.842,3.842,0,0,0,85.405,10.9Z"/><path class="cls-14" d="M81.864,16.8h7.082a1.475,1.475,0,0,1,1.476,1.475v5.312a1.475,1.475,0,0,1-1.476,1.475H81.864a1.475,1.475,0,0,1-1.475-1.475V18.273A1.475,1.475,0,0,1,81.864,16.8Z"/><path class="cls-13" d="M86.881,20.044a1.476,1.476,0,1,0-2.13,1.316l-.228,1.593a.3.3,0,0,0,.251.334.283.283,0,0,0,.041,0H86a.3.3,0,0,0,.3-.292.34.34,0,0,0,0-.045l-.228-1.594A1.481,1.481,0,0,0,86.881,20.044Z"/></svg>