<?xml version="1.0" encoding="utf-8"?>
<!-- Generator: Adobe Illustrator 26.0.1, SVG Export Plug-In . SVG Version: 6.00 Build 0)  -->
<svg version="1.1" id="Warstwa_1" xmlns="http://www.w3.org/2000/svg" xmlns:xlink="http://www.w3.org/1999/xlink" x="0px" y="0px"
	 viewBox="0 0 175 119" style="enable-background:new 0 0 175 119;" xml:space="preserve">
<style type="text/css">
	.st0{opacity:0.45;}
	.st1{fill:none;stroke:#FFFFFF;stroke-width:2;stroke-miterlimit:10;}
	.st2{fill:none;stroke:#FFFFFF;stroke-width:2;stroke-miterlimit:10;stroke-dasharray:6.275,6.275;}
	.st3{fill:#FFFFFF;}
	.st4{opacity:0.45;fill:none;stroke:#7C5D43;stroke-width:2;stroke-miterlimit:10;stroke-dasharray:6;enable-background:new    ;}
	.st5{opacity:0.45;fill:none;stroke:#5D7486;stroke-width:2;stroke-miterlimit:10;stroke-dasharray:6;enable-background:new    ;}
	.st6{opacity:0.45;fill:none;stroke:#FFFFFF;stroke-width:2;stroke-miterlimit:10;stroke-dasharray:6;enable-background:new    ;}
	.st7{opacity:0.45;fill:none;stroke:#50ACFF;stroke-width:2;stroke-miterlimit:10;stroke-dasharray:6;enable-background:new    ;}
	.st8{fill:#FFCC5A;}
	.st9{fill:#455A64;}
	.st10{fill:#FFC107;}
</style>
<g class="st0">
	<line class="st1" x1="43.1" y1="11.8" x2="45.2" y2="14"/>
	<line class="st2" x1="49.5" y1="18.5" x2="81.6" y2="52.9"/>
	<line class="st1" x1="83.8" y1="55.2" x2="85.8" y2="57.4"/>
</g>
<g class="st0">
	<path class="st3" d="M52.3,69.9h-2v-2.8h2V69.9z M52.3,49.3h-2v-6h2V49.3z"/>
</g>
<circle class="st4" cx="106.3" cy="78.3" r="22.6"/>
<circle class="st5" cx="51.3" cy="96.4" r="22.6"/>
<line class="st6" x1="71.3" y1="20" x2="98.1" y2="20"/>
<circle class="st7" cx="123.7" cy="24.3" r="22.6"/>
<circle class="st8" cx="51.3" cy="24.1" r="22.6"/>
<path class="st9" d="M76.6,39.4c-2.1,0-3.8,1.7-3.8,3.8v2.4c0,0.2,0.1,0.3,0.3,0.3l0,0h1.2c0.2,0,0.3-0.1,0.3-0.3c0,0,0,0,0,0v-2.4
	c0-1.1,0.9-2.1,2.1-2.1s2.1,0.9,2.1,2.1v2.4c0,0.2,0.1,0.3,0.3,0.3l0,0h1.2c0.2,0,0.3-0.1,0.3-0.3c0,0,0,0,0,0v-2.4
	C80.4,41.2,78.7,39.4,76.6,39.4C76.6,39.4,76.6,39.4,76.6,39.4z"/>
<path class="st10" d="M73,45.3h7.1c0.8,0,1.5,0.7,1.5,1.5c0,0,0,0,0,0v5.3c0,0.8-0.7,1.5-1.5,1.5c0,0,0,0,0,0H73
	c-0.8,0-1.5-0.7-1.5-1.5c0,0,0,0,0,0v-5.3C71.5,46,72.2,45.3,73,45.3C73,45.3,73,45.3,73,45.3z"/>
<path class="st9" d="M78,48.6c0-0.8-0.7-1.5-1.5-1.5s-1.5,0.7-1.5,1.5c0,0.6,0.3,1.1,0.8,1.3l-0.2,1.6c0,0.2,0.1,0.3,0.2,0.3
	c0,0,0,0,0,0c0,0,0,0,0,0h1.2c0.2,0,0.3-0.1,0.3-0.3c0,0,0,0,0,0c0,0,0,0,0,0l-0.2-1.6C77.7,49.7,78,49.1,78,48.6z"/>
<path class="st9" d="M51.1,51.4c-2.1,0-3.8,1.7-3.8,3.8v2.4c0,0.2,0.1,0.3,0.3,0.3h1.2c0.2,0,0.3-0.1,0.3-0.3v-2.4c0-1.1,1-2,2.1-2
	c1.1,0,2,0.9,2,2v2.4c0,0.2,0.1,0.3,0.3,0.3h1.2c0.2,0,0.3-0.1,0.3-0.3v-2.4C54.9,53.1,53.2,51.4,51.1,51.4
	C51.1,51.4,51.1,51.4,51.1,51.4z"/>
<path class="st10" d="M47.5,57.3h7.1c0.8,0,1.5,0.7,1.5,1.5v5.3c0,0.8-0.7,1.5-1.5,1.5h-7.1c-0.8,0-1.5-0.7-1.5-1.5v-5.3
	C46.1,57.9,46.7,57.3,47.5,57.3L47.5,57.3z"/>
<path class="st9" d="M52.6,60.5c0-0.8-0.7-1.5-1.5-1.5c-0.8,0-1.5,0.7-1.5,1.5c0,0.6,0.3,1.1,0.8,1.3l-0.2,1.6
	c0,0.2,0.1,0.3,0.2,0.3h0h1.2c0.2,0,0.3-0.1,0.3-0.3c0,0,0,0,0,0l-0.2-1.6C52.2,61.6,52.6,61.1,52.6,60.5z"/>
<path class="st9" d="M85.4,10.9c-2.1,0-3.8,1.7-3.8,3.8v2.4c0,0.2,0.1,0.3,0.3,0.3l0,0h1.2c0.2,0,0.3-0.1,0.3-0.3v0v-2.4
	c0-1.1,1-2,2.1-2c1.1,0,2,0.9,2,2v2.4c0,0.2,0.1,0.3,0.3,0.3l0,0H89c0.2,0,0.3-0.1,0.3-0.3v0v-2.4C89.3,12.6,87.5,10.9,85.4,10.9
	C85.4,10.9,85.4,10.9,85.4,10.9z"/>
<path class="st10" d="M81.9,16.8h7.1c0.8,0,1.5,0.7,1.5,1.5c0,0,0,0,0,0v5.3c0,0.8-0.7,1.5-1.5,1.5c0,0,0,0,0,0h-7.1
	c-0.8,0-1.5-0.7-1.5-1.5v-5.3C80.4,17.5,81.1,16.8,81.9,16.8z"/>
<path class="st9" d="M86.9,20c0-0.8-0.7-1.5-1.5-1.5s-1.5,0.7-1.5,1.5c0,0.6,0.3,1.1,0.8,1.3L84.5,23c0,0.2,0.1,0.3,0.3,0.3
	c0,0,0,0,0,0H86c0.2,0,0.3-0.1,0.3-0.3c0,0,0,0,0,0l-0.2-1.6C86.6,21.1,86.9,20.6,86.9,20z"/>
<g>
	<g>
		<g>
			<rect x="41.8" y="16.7" class="st3" width="10.8" height="2.3"/>
			<rect x="41.8" y="20.9" class="st3" width="19.6" height="2.3"/>
			<rect x="41.8" y="25" class="st3" width="19.6" height="2.3"/>
			<rect x="41.8" y="29.3" class="st3" width="19.6" height="2.3"/>
		</g>
	</g>
</g>
<g>
	<g>
		<g>
			<rect x="113.9" y="16.7" class="st3" width="10.8" height="2.3"/>
			<rect x="113.9" y="20.9" class="st3" width="19.6" height="2.3"/>
			<rect x="113.9" y="25" class="st3" width="19.6" height="2.3"/>
			<rect x="113.9" y="29.3" class="st3" width="19.6" height="2.3"/>
		</g>
	</g>
</g>
<g>
	<g>
		<g>
			<rect x="96.5" y="70.8" class="st3" width="10.8" height="2.3"/>
			<rect x="96.5" y="75.1" class="st3" width="19.6" height="2.3"/>
			<rect x="96.5" y="79.2" class="st3" width="19.6" height="2.3"/>
			<rect x="96.5" y="83.5" class="st3" width="19.6" height="2.3"/>
		</g>
	</g>
</g>
<g>
	<g>
		<g>
			<rect x="41.5" y="88.9" class="st3" width="10.8" height="2.3"/>
			<rect x="41.5" y="93.2" class="st3" width="19.6" height="2.3"/>
			<rect x="41.5" y="97.3" class="st3" width="19.6" height="2.3"/>
			<rect x="41.5" y="101.6" class="st3" width="19.6" height="2.3"/>
		</g>
	</g>
</g>
</svg>
