<?xml version="1.0" encoding="utf-8"?>
<!-- Generator: Adobe Illustrator 26.0.1, SVG Export Plug-In . SVG Version: 6.00 Build 0)  -->
<svg version="1.1" id="Warstwa_1" xmlns="http://www.w3.org/2000/svg" xmlns:xlink="http://www.w3.org/1999/xlink" x="0px" y="0px"
	 viewBox="0 0 175 119" style="enable-background:new 0 0 175 119;" xml:space="preserve">
<style type="text/css">
	.st0{fill:#FFCC5A;}
	.st1{fill:none;stroke:#C69C6D;stroke-width:1.784;stroke-miterlimit:10;stroke-dasharray:5.352;}
	.st2{opacity:0.66;}
	.st3{fill:#FFFFFF;}
	.st4{fill:none;stroke:#5D7486;stroke-width:2.153;stroke-miterlimit:10;stroke-dasharray:4.131,4.131;}
	.st5{fill:#50ACFF;}
	.st6{fill:none;stroke:#F9F9F9;stroke-width:1.189;stroke-miterlimit:10;stroke-dasharray:3.568;}
	.st7{fill:#C4D451;}
	.st8{fill:#7BD85D;}
</style>
<g>
	<circle class="st0" cx="90.4" cy="25.6" r="25.6"/>
	<circle class="st1" cx="83.8" cy="98.7" r="20.3"/>
	<g class="st2">
		<rect x="75.2" y="92.2" class="st3" width="9.5" height="2"/>
		<rect x="75.2" y="95.9" class="st3" width="17.2" height="2"/>
		<rect x="75.2" y="99.5" class="st3" width="17.2" height="2"/>
		<rect x="75.2" y="103.3" class="st3" width="17.2" height="2"/>
	</g>
	<path class="st4" d="M64.7,61.1c0,8.7-7.1,15.8-15.8,15.8l0,0C28,76.1,28,46.2,49,45.3C57.7,45.3,64.7,52.4,64.7,61.1L64.7,61.1z"
		/>
	<g class="st2">
		<rect x="42.6" y="56.2" class="st3" width="7.1" height="1.5"/>
		<rect x="42.6" y="59" class="st3" width="12.9" height="1.5"/>
		<rect x="42.6" y="61.7" class="st3" width="12.9" height="1.5"/>
		<rect x="42.6" y="64.5" class="st3" width="12.9" height="1.5"/>
	</g>
	<circle class="st5" cx="110.4" cy="47.7" r="13.5"/>
	<circle class="st6" cx="110.4" cy="47.7" r="13.5"/>
	<circle class="st7" cx="118.1" cy="35.3" r="5.2"/>
	<path class="st8" d="M118.1,41.2c-3.2,0-5.9-2.6-5.9-5.9s2.6-5.9,5.9-5.9c3.2,0,5.9,2.6,5.9,5.9l0,0
		C124,38.6,121.4,41.2,118.1,41.2z M118.1,30.7c-2.6,0-4.6,2.1-4.6,4.6s2.1,4.6,4.6,4.6c2.6,0,4.6-2.1,4.6-4.6
		S120.7,30.7,118.1,30.7z"/>
	<path class="st3" d="M121.2,33.6c-0.2-0.2-0.6-0.2-0.9,0l-2.5,2.5l-1.6-1.6c-0.3-0.2-0.6-0.2-0.9,0c-0.2,0.2-0.2,0.6,0,0.8l2,2
		c0.2,0.2,0.6,0.2,0.9,0l0,0l0,0l0,0l2.9-2.9C121.5,34.3,121.5,33.9,121.2,33.6L121.2,33.6z"/>
	<g>
		<g>
			<g>
				<g>
					<g>
						<rect x="79.6" y="17.2" class="st3" width="12.2" height="2.6"/>
						<rect x="79.6" y="22" class="st3" width="22.2" height="2.6"/>
						<rect x="79.6" y="26.6" class="st3" width="22.2" height="2.6"/>
						<rect x="79.6" y="31.5" class="st3" width="22.2" height="2.6"/>
					</g>
				</g>
			</g>
		</g>
	</g>
	<g>
		<g>
			<g>
				<g>
					<g>
						<rect x="104.7" y="43.3" class="st3" width="6.5" height="1.4"/>
						<rect x="104.7" y="45.8" class="st3" width="11.7" height="1.4"/>
						<rect x="104.7" y="48.2" class="st3" width="11.7" height="1.4"/>
						<rect x="104.7" y="50.8" class="st3" width="11.7" height="1.4"/>
					</g>
				</g>
			</g>
		</g>
	</g>
</g>
</svg>
