<?xml version="1.0" encoding="utf-8"?>
<!-- Generator: Adobe Illustrator 26.0.1, SVG Export Plug-In . SVG Version: 6.00 Build 0)  -->
<svg version="1.1" id="Warstwa_1" xmlns="http://www.w3.org/2000/svg" xmlns:xlink="http://www.w3.org/1999/xlink" x="0px" y="0px"
	 viewBox="0 0 175 119" style="enable-background:new 0 0 175 119;" xml:space="preserve">
<style type="text/css">
	.st0{fill:#FFCC5A;}
	.st1{fill:#F9FFF0;}
	.st2{fill:#BCBCBC;}
	.st3{opacity:5.000000e-02;enable-background:new    ;}
	.st4{fill:none;stroke:#C69C6D;stroke-width:1.784;stroke-miterlimit:10;stroke-dasharray:5.352;}
	.st5{opacity:0.66;}
	.st6{fill:#FFFFFF;}
	.st7{fill:none;stroke:#5D7486;stroke-width:2.153;stroke-miterlimit:10;stroke-dasharray:4.131,4.131;}
	.st8{fill:#50ACFF;}
	.st9{fill:none;stroke:#F9F9F9;stroke-width:1.189;stroke-miterlimit:10;stroke-dasharray:3.568;}
	.st10{fill:#C4D451;}
	.st11{fill:#7BD85D;}
</style>
<g>
	<circle class="st0" cx="90.4" cy="25.6" r="25.6"/>
	<path class="st1" d="M103.4,43.4h-26v-28l7.5-7.5h18.6V43.4z"/>
	<rect x="83.2" y="20" class="st2" width="8.3" height="1.7"/>
	<rect x="83.2" y="23.2" class="st2" width="14.9" height="1.7"/>
	<rect x="83.2" y="26.3" class="st2" width="14.9" height="1.7"/>
	<rect x="83.2" y="29.6" class="st2" width="14.9" height="1.7"/>
	<polygon class="st3" points="84.9,15.4 77.4,22.9 77.4,15.4 81.1,11.6 	"/>
	<polygon class="st2" points="84.8,15.4 77.4,15.4 84.8,7.9 	"/>
	<circle class="st4" cx="83.8" cy="98.7" r="20.3"/>
	<g class="st5">
		<rect x="75.2" y="92.2" class="st6" width="9.5" height="2"/>
		<rect x="75.2" y="95.9" class="st6" width="17.2" height="2"/>
		<rect x="75.2" y="99.5" class="st6" width="17.2" height="2"/>
		<rect x="75.2" y="103.3" class="st6" width="17.2" height="2"/>
	</g>
	<path class="st7" d="M64.7,61.1c0,8.7-7.1,15.8-15.8,15.8c0,0,0,0,0,0C28,76.1,28,46.2,49,45.3C57.7,45.3,64.7,52.4,64.7,61.1
		L64.7,61.1z"/>
	<g class="st5">
		<rect x="42.6" y="56.2" class="st6" width="7.1" height="1.5"/>
		<rect x="42.6" y="59" class="st6" width="12.9" height="1.5"/>
		<rect x="42.6" y="61.7" class="st6" width="12.9" height="1.5"/>
		<rect x="42.6" y="64.5" class="st6" width="12.9" height="1.5"/>
	</g>
	<circle class="st8" cx="110.4" cy="47.7" r="13.5"/>
	<path class="st1" d="M116.3,55.8h-11.8V43l3.4-3.4h8.5L116.3,55.8z"/>
	<rect x="107.1" y="45.1" class="st2" width="3.8" height="0.8"/>
	<rect x="107.1" y="46.6" class="st2" width="6.8" height="0.8"/>
	<rect x="107.1" y="48" class="st2" width="6.8" height="0.8"/>
	<rect x="107.1" y="49.5" class="st2" width="6.8" height="0.8"/>
	<polygon class="st3" points="107.9,43 104.5,46.4 104.5,43 106.2,41.3 	"/>
	<polygon class="st2" points="107.9,43 104.5,43 107.9,39.6 	"/>
	<circle class="st9" cx="110.4" cy="47.7" r="13.5"/>
	<circle class="st10" cx="118.1" cy="35.3" r="5.2"/>
	<path class="st11" d="M118.1,41.2c-3.2,0-5.9-2.6-5.9-5.9s2.6-5.9,5.9-5.9c3.2,0,5.9,2.6,5.9,5.9l0,0
		C124,38.6,121.4,41.2,118.1,41.2z M118.1,30.7c-2.6,0-4.6,2.1-4.6,4.6s2.1,4.6,4.6,4.6c2.6,0,4.6-2.1,4.6-4.6
		C122.7,32.8,120.7,30.7,118.1,30.7z"/>
	<path class="st6" d="M121.2,33.6c-0.2-0.2-0.6-0.2-0.9,0l-2.5,2.5l-1.6-1.6c-0.3-0.2-0.6-0.2-0.9,0c-0.2,0.2-0.2,0.6,0,0.8l2,2
		c0.2,0.2,0.6,0.2,0.9,0c0,0,0,0,0,0c0,0,0,0,0,0l0,0l2.9-2.9C121.5,34.3,121.5,33.9,121.2,33.6C121.2,33.6,121.2,33.6,121.2,33.6z"
		/>
</g>
</svg>
