<svg id="Warstwa_1" data-name="Warstwa 1" xmlns="http://www.w3.org/2000/svg" viewBox="0 0 175 119"><defs><style>.cls-1{fill:#f9fff0;}.cls-2{fill:#bcbcbc;}.cls-3{opacity:0.05;}.cls-4{fill:#b9ea24;}</style></defs><path class="cls-1" d="M122.95,119H36.212V25.634L61.071.775H122.95Z"/><rect class="cls-2" x="55.557" y="40.94" width="27.516" height="5.755"/><rect class="cls-2" x="55.557" y="51.801" width="49.816" height="5.755"/><rect class="cls-2" x="55.557" y="62.22" width="49.816" height="5.755"/><rect class="cls-2" x="55.557" y="73.081" width="49.816" height="5.755"/><polygon class="cls-3" points="61.193 25.733 36.212 50.714 36.212 25.631 48.652 13.191 61.193 25.733"/><polygon class="cls-2" points="61.07 25.635 36.211 25.635 61.07 0.775 61.07 25.635"/><polygon class="cls-4" points="138.789 11.563 128.002 11.563 128.002 0.775 117.329 0.775 117.329 11.563 106.542 11.563 106.542 22.236 117.329 22.236 117.329 33.023 128.002 33.023 128.002 22.236 138.789 22.236 138.789 11.563"/></svg>