<svg id="Warstwa_1" data-name="Warstwa 1" xmlns="http://www.w3.org/2000/svg" viewBox="0 0 175 119"><defs><style>.cls-1{fill:#f9fff0;}.cls-2{fill:#bcbcbc;}.cls-3{opacity:0.05;}.cls-4{fill:#ea2880;}</style></defs><path class="cls-1" d="M124.539,119H37.8V25.634L62.66.775h61.879Z"/><rect class="cls-2" x="57.145" y="40.94" width="27.516" height="5.755"/><rect class="cls-2" x="57.145" y="51.801" width="49.816" height="5.755"/><rect class="cls-2" x="57.145" y="62.22" width="49.816" height="5.755"/><rect class="cls-2" x="57.145" y="73.081" width="49.816" height="5.755"/><polygon class="cls-3" points="62.782 25.733 37.8 50.714 37.8 25.631 50.24 13.191 62.782 25.733"/><polygon class="cls-2" points="62.658 25.635 37.799 25.635 62.658 0.775 62.658 25.635"/><g id="delete"><path class="cls-4" d="M113.686,29.717a3.628,3.628,0,0,0,3.617,3.618h14.471a3.629,3.629,0,0,0,3.618-3.618V8.011H113.686ZM137.2,2.584H130.87L129.061.775h-9.044l-1.809,1.809h-6.331V6.2H137.2Z"/></g></svg>