<svg id="Warstwa_1" data-name="Warstwa 1" xmlns="http://www.w3.org/2000/svg" viewBox="0 0 175 119"><defs><style>.cls-1{fill:#f9fff0;}.cls-2{fill:#bcbcbc;}.cls-3{opacity:0.05;}.cls-4{fill:#ffcc5a;}</style></defs><path class="cls-1" d="M122.768,119H36.031V25.634L60.889.775h61.879Z"/><rect class="cls-2" x="55.375" y="40.94" width="27.516" height="5.755"/><rect class="cls-2" x="55.375" y="51.801" width="49.816" height="5.755"/><rect class="cls-2" x="55.375" y="62.22" width="49.816" height="5.755"/><rect class="cls-2" x="55.375" y="73.081" width="49.816" height="5.755"/><polygon class="cls-3" points="61.011 25.733 36.03 50.714 36.03 25.631 48.47 13.191 61.011 25.733"/><polygon class="cls-2" points="60.888 25.635 36.029 25.635 60.888 0.775 60.888 25.635"/><path class="cls-4" d="M126.716,6.157l6.592,6.592L116.622,29.435l-6.588-6.592Zm11.594-1.59-2.94-2.939a2.915,2.915,0,0,0-4.12,0l-2.817,2.816,6.593,6.592,3.284-3.285A2.248,2.248,0,0,0,138.31,4.567ZM106.584,32.109a.749.749,0,0,0,.907.892l7.346-1.781-6.588-6.592Z"/></svg>