<svg id="Warstwa_1" data-name="Warstwa 1" xmlns="http://www.w3.org/2000/svg" viewBox="0 0 175 119"><defs><style>.cls-1{fill:#f0f4f6;}.cls-2{fill:#b9ea24;}.cls-3{fill:#eadad4;}.cls-4{fill:#e5c9c1;}.cls-5{fill:#c69c6d;}.cls-6{fill:#f9fff0;}.cls-7{fill:#bcbcbc;}.cls-8{opacity:0.05;}.cls-9{fill:#ea2880;}.cls-10{fill:#f5edea;}.cls-11{fill:#ffcc5a;}.cls-12{fill:#2cd7ff;}</style></defs><circle class="cls-1" cx="65.334" cy="10.431" r="9.695"/><polygon class="cls-2" points="70.245 8.805 66.96 8.805 66.96 5.519 63.708 5.519 63.708 8.805 60.422 8.805 60.422 12.056 63.708 12.056 63.708 15.342 66.96 15.342 66.96 12.056 70.245 12.056 70.245 8.805"/><polygon class="cls-3" points="136.856 93.753 87.194 68.473 87.194 14.525 136.856 39.806 136.856 93.753"/><polygon class="cls-4" points="37.533 93.753 87.194 68.473 87.194 14.525 37.533 39.806 37.533 93.753"/><polygon class="cls-3" points="136.856 39.771 87.194 65.052 87.194 119 136.856 93.719 136.856 39.771"/><polygon class="cls-4" points="25.966 62.545 75.627 37.264 87.194 14.525 37.533 39.806 25.966 62.545"/><circle class="cls-5" cx="58.996" cy="51.349" r="14.734"/><path class="cls-6" d="M71.533,49.758,64.277,62.83,50.206,55.019l-1.667-5.826,5.177-9.325Z"/><rect class="cls-7" x="53.344" y="51.056" width="4.743" height="0.992" transform="translate(-16.398 75.245) rotate(-60.965)"/><rect class="cls-7" x="53.992" y="50.284" width="8.587" height="0.992" transform="translate(-14.401 77.095) rotate(-60.965)"/><rect class="cls-7" x="55.562" y="51.156" width="8.587" height="0.992" transform="translate(-14.355 78.916) rotate(-60.965)"/><rect class="cls-7" x="57.199" y="52.064" width="8.587" height="0.992" transform="translate(-14.307 80.815) rotate(-60.965)"/><polygon class="cls-8" points="52.311 51.263 53.986 57.118 50.206 55.019 49.371 52.104 52.311 51.263"/><polygon class="cls-7" points="52.286 51.273 50.206 55.02 48.539 49.193 52.286 51.273"/><polygon class="cls-4" points="136.856 39.771 87.194 65.052 92.291 87.631 141.952 62.35 136.856 39.771"/><circle class="cls-9" cx="97.782" cy="57.118" r="6.422"/><path class="cls-6" d="M94.765,59.3l-.6-.358c-.018-.011-.039-.018-.036-.047s.026-.033.043-.043l1.971-1.061q.7-.38,1.41-.758a.077.077,0,0,0,.044-.078q0-1.4,0-2.793c0-.342,0-.684,0-1.026,0-.025-.013-.056.019-.076s.047.005.066.017q.592.352,1.184.7a.089.089,0,0,1,.047.09q0,2.026,0,4.053,0,1.875,0,3.751c0,.024,0,.051-.022.067s-.041,0-.058-.014q-.6-.357-1.195-.713a.078.078,0,0,1-.042-.079q0-1.173,0-2.345c0-.073-.015-.082-.08-.047q-1.026.552-2.051,1.106a.1.1,0,0,1-.114,0C95.158,59.531,94.961,59.416,94.765,59.3Z"/><polygon class="cls-10" points="136.856 39.771 87.194 65.052 99.373 87.821 149.034 62.54 136.856 39.771"/><polygon class="cls-10" points="37.533 39.771 87.194 65.052 87.194 119 37.533 93.719 37.533 39.771"/><circle class="cls-11" cx="118.114" cy="27.037" r="12.752"/><path class="cls-1" d="M118.006,22.476l3.41,1.479-3.746,8.632-3.408-1.481Zm4.067-2.287-1.52-.66a1.164,1.164,0,0,0-1.529.6l-.632,1.457,3.41,1.48.737-1.7A.9.9,0,0,0,122.073,20.189Zm-7.735,14.859a.3.3,0,0,0,.468.2l2.463-1.736-3.408-1.481Z"/><circle class="cls-12" cx="87.194" cy="35.3" r="11.47"/><path class="cls-1" d="M88.488,29.635,82.7,33.613l0,.01,3.233.755-1.459,6.253,0,0,2.79.651h0l1.46-6.254,3.23.754.005-.007Z"/></svg>