<svg id="Warstwa_1" data-name="Warstwa 1" xmlns="http://www.w3.org/2000/svg" viewBox="0 0 175 119"><defs><style>.cls-1{fill:#f0f4f6;}.cls-2{fill:#edcd51;}.cls-3{fill:#c4d451;}.cls-4{fill:#f0ae5e;}.cls-5{fill:#f9fff0;}.cls-6{fill:#bcbcbc;}.cls-7{opacity:0.05;}.cls-8{fill:#f38861;}</style></defs><path class="cls-1" d="M59.761,28.95a17.666,17.666,0,0,0,3.86-11.072,17.878,17.878,0,1,0-17.878,17.98,17.713,17.713,0,0,0,9.446-2.743L71.137,49.063l4.267-4.47Zm-14.018,2.3A13.274,13.274,0,1,1,59.016,17.98,13.357,13.357,0,0,1,45.743,31.253Z"/><path class="cls-2" d="M43.605,11.627V10.075a.54.54,0,0,0-.54-.54h-3.93a.54.54,0,0,0-.54.54v1.552H36.633a11.057,11.057,0,0,0-1.762,4.048H38.6v1.552a.54.54,0,0,0,.54.54h3.93a.54.54,0,0,0,.54-.54V15.675H56.614a11.057,11.057,0,0,0-1.762-4.048Z"/><path class="cls-3" d="M52.028,19.69a.54.54,0,0,0-.54-.54h-3.93a.54.54,0,0,0-.54.54v1.552H35.127a11.208,11.208,0,0,0,2.3,4.048h9.594v1.552a.54.54,0,0,0,.54.54h3.93a.54.54,0,0,0,.54-.54V25.29H54.1a11.1,11.1,0,0,0,2.272-4.048h-4.34Z"/><circle class="cls-4" cx="106.559" cy="77.709" r="22.931"/><path class="cls-5" d="M118.193,93.566H94.925V68.52l6.668-6.669h16.6Z"/><rect class="cls-6" x="100.114" y="72.626" width="7.381" height="1.544"/><rect class="cls-6" x="100.114" y="75.539" width="13.364" height="1.544"/><rect class="cls-6" x="100.114" y="78.334" width="13.364" height="1.544"/><rect class="cls-6" x="100.114" y="81.248" width="13.364" height="1.544"/><polygon class="cls-7" points="101.626 68.546 94.924 75.248 94.924 68.519 98.262 65.182 101.626 68.546"/><polygon class="cls-6" points="101.593 68.52 94.924 68.52 101.593 61.851 101.593 68.52"/><circle class="cls-8" cx="50.795" cy="96.069" r="22.931"/><path class="cls-5" d="M62.43,111.927H39.162V86.88l6.668-6.668h16.6Z"/><rect class="cls-6" x="44.351" y="90.986" width="7.381" height="1.544"/><rect class="cls-6" x="44.351" y="93.9" width="13.364" height="1.544"/><rect class="cls-6" x="44.351" y="96.695" width="13.364" height="1.544"/><rect class="cls-6" x="44.351" y="99.608" width="13.364" height="1.544"/><polygon class="cls-7" points="45.863 86.907 39.161 93.608 39.161 86.879 42.498 83.542 45.863 86.907"/><polygon class="cls-6" points="45.83 86.88 39.161 86.88 45.83 80.212 45.83 86.88"/><circle class="cls-2" cx="124.205" cy="22.931" r="22.931"/><path class="cls-5" d="M135.839,38.788H112.571V13.742l6.668-6.669h16.6Z"/><rect class="cls-6" x="117.76" y="17.848" width="7.381" height="1.544"/><rect class="cls-6" x="117.76" y="20.762" width="13.364" height="1.544"/><rect class="cls-6" x="117.76" y="23.557" width="13.364" height="1.544"/><rect class="cls-6" x="117.76" y="26.47" width="13.364" height="1.544"/><polygon class="cls-7" points="119.272 13.768 112.57 20.47 112.57 13.741 115.908 10.404 119.272 13.768"/><polygon class="cls-6" points="119.239 13.742 112.57 13.742 119.239 7.073 119.239 13.742"/></svg>