<?xml version="1.0" encoding="utf-8"?>
<!-- Generator: Adobe Illustrator 26.0.1, SVG Export Plug-In . SVG Version: 6.00 Build 0)  -->
<svg version="1.1" id="Warstwa_1" xmlns="http://www.w3.org/2000/svg" xmlns:xlink="http://www.w3.org/1999/xlink" x="0px" y="0px"
	 viewBox="0 0 175 119" style="enable-background:new 0 0 175 119;" xml:space="preserve">
<style type="text/css">
	.st0{fill:#F0F4F6;}
	.st1{fill:#EDCD51;}
	.st2{fill:#C4D451;}
</style>
<path class="st0" d="M112.9,43.7l-0.3-2.1c-0.1-0.8-0.2-1.5-0.3-2.3l-1.9,1.4l-1.6,1.2l-1.7-1.1c-0.6-0.4-1.3-0.8-1.9-1.3
	c2.4,17.7-10,33.9-27.7,36.3s-33.9-10-36.3-27.7s10-33.9,27.7-36.3c10-1.4,20.1,2.1,27.2,9.3c0-1.8,0.2-3.6,0.5-5.3l0.4-2l2-0.3
	c0.8-0.1,1.5-0.2,2.3-0.3c-0.5-0.6-0.9-1.2-1.4-1.9l-1.2-1.7l0.5-0.7c-7.5-5.7-16.7-8.7-26.1-8.7c-24,0-43.5,19.5-43.5,43.5
	s19.5,43.5,43.5,43.5c8.1,0,16.1-2.3,22.9-6.7l38.7,38.7l10.4-10.9l-38-38c5.9-7.4,9.2-16.6,9.4-26.1c-0.6-0.1-1.1-0.2-1.7-0.3
	L112.9,43.7z"/>
<path class="st1" d="M68,28.4v-3.8c0-0.7-0.6-1.3-1.3-1.3h-9.5c-0.7,0-1.3,0.6-1.3,1.3v3.8h-4.8c-2.1,3-3.5,6.3-4.3,9.8h9V42
	c0,0.7,0.6,1.3,1.3,1.3h9.5c0.7,0,1.3-0.6,1.3-1.3v-3.8h31.6c-0.8-3.5-2.2-6.9-4.3-9.8H68z"/>
<path class="st2" d="M88.5,48c0-0.7-0.6-1.3-1.3-1.3h-9.5c-0.7,0-1.3,0.6-1.3,1.3v3.8H47.4c1.2,3.6,3.1,7,5.6,9.8h23.3v3.8
	c0,0.7,0.6,1.3,1.3,1.3h0h9.5c0.7,0,1.3-0.6,1.3-1.3v-3.8h5c2.5-2.9,4.4-6.2,5.5-9.8H88.5V48z"/>
<path class="st0" d="M130.5,37.8L130.5,37.8l0.2,0.1l0-0.1l1.9-0.4c1.9-1.4,3.5-3.2,4.7-5.2l-2.8-3.8c0.4-0.9,0.7-1.7,1-2.5
	c1.6-0.2,3.1-0.5,4.6-0.7c0.7-2.9,0.7-5.9,0-8.7c-1.6-0.2-3.1-0.5-4.6-0.7c-0.3-0.8-0.7-1.6-1-2.5l2.8-3.7c-1.2-2.2-4.5-5.4-6.2-6.2
	c-1.2,0.9-2.4,1.8-3.7,2.8c-0.9-0.4-1.7-0.7-2.5-1.1c-0.2-1.6-0.5-3.1-0.7-4.6c-1.4-0.3-2.9-0.5-4.4-0.5c-1.5,0-2.9,0.2-4.4,0.5
	c-0.2,1.6-0.4,3.1-0.7,4.6c-0.9,0.3-1.7,0.7-2.5,1l-3.8-2.8c-2.5,1.6-4.6,3.7-6.2,6.2c1,1.3,1.9,2.5,2.8,3.8l-0.3,0.7
	c-0.3,0.6-0.5,1.2-0.8,1.8c-1.6,0.2-3.1,0.5-4.6,0.7c-0.6,2.9-0.6,5.9,0,8.7l4.6,0.7c0.3,0.8,0.7,1.6,1,2.5c-0.7,1.1-1.5,2-2.3,3.1
	c-0.2,0.2-0.4,0.5-0.5,0.8c0.5,0.7,1,1.4,1.6,2.1c1.3,1.6,2.9,3,4.6,4.1c1.3-1,2.5-1.9,3.8-2.8c0.9,0.4,1.7,0.7,2.5,1.1
	c0.2,1.6,0.4,3.1,0.7,4.6c0.3,0.1,0.7,0.1,1,0.2c1.1,0.2,2.2,0.3,3.4,0.3c1.5,0,2.9-0.2,4.3-0.5c0.2-1.6,0.5-3.1,0.7-4.6l2.5-1
	C128.5,36.3,129.5,37.1,130.5,37.8z M119.9,28.7c-4.4,0-7.9-3.5-7.9-7.9c0-4.4,3.5-7.9,7.9-7.9c4.4,0,7.9,3.5,7.9,7.9c0,0,0,0,0,0
	C127.8,25.2,124.3,28.7,119.9,28.7C119.9,28.7,119.9,28.7,119.9,28.7z"/>
<path class="st0" d="M143.8,50.7c0.3-1.2,0.3-2.5,0-3.7l-2-0.3c-0.1-0.4-0.3-0.7-0.4-1.1l1.2-1.6c-0.7-1.1-1.6-2-2.6-2.6l-1.6,1.2
	l-1-0.4c-0.1-0.7-0.2-1.3-0.3-2c-0.6-0.1-1.2-0.2-1.9-0.2c-0.5,0-0.9,0-1.4,0.1c-0.2,0-0.3,0-0.5,0.1c0,0.1,0,0.2,0,0.3
	c-0.1,0.6-0.2,1.1-0.2,1.7l-1.1,0.4l-1.1-0.8l-0.5-0.4l0,0c-1,0.7-1.9,1.6-2.6,2.6c0.4,0.5,0.8,1.1,1.2,1.6c-0.2,0.4-0.3,0.7-0.4,1
	c-0.7,0.1-1.3,0.2-2,0.3c-0.3,1.2-0.3,2.5,0,3.7l2,0.3l0.4,1c-0.4,0.6-0.8,1.1-1.2,1.6c0.7,1,1.6,1.9,2.6,2.6l1.6-1.2l1.1,0.4
	c0.1,0.7,0.2,1.3,0.3,2c0.6,0.1,1.2,0.2,1.9,0.2c0.6,0,1.2-0.1,1.8-0.2c0.1-0.7,0.2-1.3,0.3-2l1.1-0.4c0.5,0.4,1.1,0.8,1.6,1.2
	c1.1-0.7,2-1.6,2.6-2.6c-0.4-0.5-0.8-1.1-1.2-1.6c0.2-0.4,0.3-0.7,0.4-1C142.5,50.9,143.2,50.8,143.8,50.7z M135.2,52.2
	c-1.8,0-3.3-1.5-3.3-3.3s1.5-3.3,3.3-3.3s3.3,1.5,3.3,3.3C138.5,50.7,137,52.2,135.2,52.2C135.2,52.2,135.2,52.2,135.2,52.2z"/>
</svg>
