<?xml version="1.0" encoding="utf-8"?>
<!-- Generator: Adobe Illustrator 26.0.1, SVG Export Plug-In . SVG Version: 6.00 Build 0)  -->
<svg version="1.1" id="Warstwa_1" xmlns="http://www.w3.org/2000/svg" xmlns:xlink="http://www.w3.org/1999/xlink" x="0px" y="0px"
	 viewBox="0 0 175 119" style="enable-background:new 0 0 175 119;" xml:space="preserve">
<style type="text/css">
	.st0{fill:#F0F4F6;}
	.st1{fill:#EDCD51;}
	.st2{fill:#C4D451;}
</style>
<path class="st0" d="M107.2,70.2c6.1-7.6,9.4-17.1,9.4-26.9C116.4,19.4,96.9,0.1,73,0.2S29.7,19.9,29.8,43.9
	C30,67.7,49.4,87,73.2,87c8.1,0,16.1-2.3,22.9-6.7l38.7,38.7l10.3-10.8L107.2,70.2z M73.2,75.8C55.4,75.8,41,61.4,41,43.6
	c0-17.8,14.4-32.2,32.2-32.2s32.2,14.4,32.2,32.2c0,0,0,0,0,0C105.3,61.3,90.9,75.7,73.2,75.8L73.2,75.8z"/>
<path class="st1" d="M68,28.2v-3.8c0-0.7-0.6-1.3-1.3-1.3h-9.5c-0.7,0-1.3,0.6-1.3,1.3v3.8h-4.8c-2.1,3-3.5,6.3-4.3,9.8h9v3.8
	c0,0.7,0.6,1.3,1.3,1.3c0,0,0,0,0,0h9.5c0.7,0,1.3-0.6,1.3-1.3c0,0,0,0,0,0V38h31.6c-0.8-3.5-2.2-6.9-4.3-9.8H68z"/>
<path class="st2" d="M88.5,47.8c0-0.7-0.6-1.3-1.3-1.3h-9.5c-0.7,0-1.3,0.6-1.3,1.3c0,0,0,0,0,0v3.8H47.5c1.1,3.6,3,7,5.6,9.8h23.3
	v3.8c0,0.7,0.6,1.3,1.3,1.3h9.5c0.7,0,1.3-0.6,1.3-1.3c0,0,0,0,0,0v-3.8h5c2.5-2.8,4.4-6.2,5.5-9.8H88.5V47.8z"/>
</svg>
