<svg id="Warstwa_1" data-name="Warstwa 1" xmlns="http://www.w3.org/2000/svg" viewBox="0 0 175 119"><defs><style>.cls-1{fill:#c4d451;}.cls-2{fill:#f9fff0;}.cls-3{opacity:0.05;}.cls-4{fill:#bcbcbc;}.cls-5{fill:#edcd51;}</style></defs><circle class="cls-1" cx="87.5" cy="59.888" r="59.112"/><path class="cls-2" d="M117.492,100.766H57.51V36.2L74.7,19.01h42.792Z"/><polygon class="cls-3" points="74.784 36.268 57.509 53.544 57.509 36.198 66.112 27.595 74.784 36.268"/><polygon class="cls-4" points="74.699 36.201 57.508 36.201 74.699 19.01 74.699 36.201"/><path class="cls-1" d="M95.562,74.271a17.523,17.523,0,0,0,3.829-10.984A17.736,17.736,0,1,0,81.655,81.124,17.579,17.579,0,0,0,91.027,78.4l15.821,15.821,4.233-4.434ZM81.655,76.556A13.169,13.169,0,1,1,94.824,63.388,13.251,13.251,0,0,1,81.655,76.556Z"/><path class="cls-5" d="M79.535,57.086v-1.54A.535.535,0,0,0,79,55.011H75.1a.535.535,0,0,0-.535.535v1.54H72.618A10.941,10.941,0,0,0,70.87,61.1h3.695v1.539a.536.536,0,0,0,.535.536H79a.536.536,0,0,0,.536-.536V61.1H92.44a10.941,10.941,0,0,0-1.748-4.016Z"/><path class="cls-1" d="M87.891,65.085a.536.536,0,0,0-.536-.536h-3.9a.535.535,0,0,0-.535.536v1.539h-11.8A11.1,11.1,0,0,0,73.4,70.64h9.518v1.54a.534.534,0,0,0,.535.535h3.9a.535.535,0,0,0,.536-.535V70.64h2.051A10.991,10.991,0,0,0,92.2,66.624h-4.3Z"/></svg>