<svg id="Warstwa_1" data-name="Warstwa 1" xmlns="http://www.w3.org/2000/svg" viewBox="0 0 175 119"><defs><style>.cls-1{fill:#b3b3b3;}.cls-2{fill:#ccc;}.cls-3{fill:#f9fff0;}.cls-4{fill:#bcbcbc;}.cls-5{opacity:0.05;}.cls-6{fill:#5d7486;}.cls-7{fill:#34495e;}.cls-8{fill:#475e6d;}.cls-9{fill:#293e4f;}</style></defs><rect class="cls-1" x="53.328" y="0.466" width="76.109" height="103.738"/><rect class="cls-2" x="45.518" y="8.63" width="76.109" height="103.738"/><path class="cls-3" d="M114.3,119H38.189V37.075L60,15.262h54.3Z"/><rect class="cls-4" x="55.163" y="50.505" width="24.144" height="5.05"/><rect class="cls-4" x="55.163" y="60.035" width="43.712" height="5.05"/><rect class="cls-4" x="55.163" y="69.177" width="43.712" height="5.05"/><rect class="cls-4" x="55.163" y="78.707" width="43.712" height="5.05"/><polygon class="cls-5" points="60.109 37.161 38.188 59.081 38.188 37.072 49.104 26.156 60.109 37.161"/><polygon class="cls-4" points="60.001 37.075 38.188 37.075 60.001 15.262 60.001 37.075"/><path class="cls-6" d="M133.8,8.176a1.263,1.263,0,0,0-1.779.144l-.7.818H98.654l-.7-.818a1.262,1.262,0,1,0-1.922,1.635l14.016,16.474v17a1.262,1.262,0,0,0,1.962,1.05l7.349-4.9a1.262,1.262,0,0,0,.562-1.05v-12.1L133.941,9.955A1.262,1.262,0,0,0,133.8,8.176Z"/><path class="cls-7" d="M135.55.466H94.426a1.262,1.262,0,0,0-1.261,1.262V9.082a1.262,1.262,0,0,0,1.261,1.262H135.55a1.262,1.262,0,0,0,1.262-1.262V1.728A1.262,1.262,0,0,0,135.55.466Z"/><path class="cls-6" d="M98.654,9.138l-.7-.818a1.262,1.262,0,1,0-1.922,1.635l14.016,16.474v17a1.262,1.262,0,0,0,1.962,1.05l2.777-1.851V9.138Z"/><path class="cls-8" d="M133.8,8.176a1.263,1.263,0,0,0-1.779.144l-.7.818H114.791V42.631l4.572-3.048a1.262,1.262,0,0,0,.562-1.05v-12.1L133.941,9.955A1.262,1.262,0,0,0,133.8,8.176Z"/><path class="cls-7" d="M94.426.466a1.262,1.262,0,0,0-1.261,1.262V9.082a1.262,1.262,0,0,0,1.261,1.262h20.365V.466Z"/><path class="cls-9" d="M135.55.466H114.791v9.878H135.55a1.262,1.262,0,0,0,1.262-1.262V1.728A1.262,1.262,0,0,0,135.55.466Z"/></svg>