<svg id="Warstwa_1" data-name="Warstwa 1" xmlns="http://www.w3.org/2000/svg" viewBox="0 0 175 119"><defs><style>.cls-1{fill:#ffcc5a;}.cls-2{fill:#e0f759;}.cls-3{fill:#50acff;}.cls-4{fill:#5d7486;}.cls-5{fill:#34495e;}.cls-6{fill:#475e6d;}.cls-7{fill:#293e4f;}</style></defs><rect class="cls-1" x="106.656" y="23.868" width="9.164" height="9.164" rx="4.582"/><rect class="cls-2" x="86.52" y="23.286" width="2.531" height="2.531" rx="1"/><path class="cls-1" d="M78.212,19.023l-4.506,7.05a.442.442,0,0,1-.745,0q-2.253-3.525-4.5-7.05a.442.442,0,0,1,.372-.68h9.011A.442.442,0,0,1,78.212,19.023Z"/><path class="cls-2" d="M49.1,24.838l1.2-1.878a.417.417,0,0,1,.7,0l1.2,1.878a.315.315,0,0,1-.266.486h-2.57A.316.316,0,0,1,49.1,24.838Z"/><rect class="cls-2" x="122.213" y="12.652" width="9.164" height="9.164" rx="3.377"/><rect class="cls-3" x="108.535" y="6.368" width="5.406" height="5.406" rx="1.242"/><rect class="cls-2" x="78.787" y="0.756" width="8.315" height="8.315" rx="1"/><rect class="cls-3" x="51.926" y="7.088" width="8.315" height="8.315" rx="4.157"/><rect class="cls-4" x="93.941" y="12.391" width="3.688" height="3.688" rx="1.844"/><path class="cls-4" d="M125.317,45.58a2.537,2.537,0,0,0-3.576.288l-1.4,1.644H54.658l-1.4-1.644A2.537,2.537,0,1,0,49.4,49.156l28.18,33.121v34.186a2.538,2.538,0,0,0,3.945,2.111l14.775-9.85a2.538,2.538,0,0,0,1.13-2.111V82.277l28.18-33.121A2.537,2.537,0,0,0,125.317,45.58Z"/><path class="cls-5" d="M128.841,30.079H46.159a2.537,2.537,0,0,0-2.537,2.537V47.4a2.537,2.537,0,0,0,2.537,2.537H128.84a2.537,2.537,0,0,0,2.537-2.537V32.616A2.536,2.536,0,0,0,128.841,30.079Z"/><path class="cls-4" d="M54.658,47.512l-1.4-1.644A2.537,2.537,0,1,0,49.4,49.156l28.18,33.121v34.186a2.538,2.538,0,0,0,3.945,2.111l5.582-3.722V47.512Z"/><path class="cls-6" d="M125.317,45.58a2.537,2.537,0,0,0-3.576.288l-1.4,1.644H87.1v67.34l9.193-6.128a2.538,2.538,0,0,0,1.13-2.111V82.277l28.18-33.121A2.537,2.537,0,0,0,125.317,45.58Z"/><path class="cls-5" d="M46.159,30.079a2.537,2.537,0,0,0-2.537,2.537V47.4a2.537,2.537,0,0,0,2.537,2.537H87.1V30.079Z"/><path class="cls-7" d="M128.841,30.079H87.1V49.937h41.739a2.537,2.537,0,0,0,2.537-2.537V32.616A2.537,2.537,0,0,0,128.841,30.079Z"/></svg>