<svg id="Warstwa_1" data-name="Warstwa 1" xmlns="http://www.w3.org/2000/svg" viewBox="0 0 175 119"><defs><style>.cls-1{fill:#2b333b;}.cls-2{fill:#f9fff0;}.cls-3{fill:#bcbcbc;}.cls-4{opacity:0.05;}.cls-5{fill:#3b4654;}.cls-6{fill:#637085;}</style></defs><rect class="cls-1" x="90.58" y="18.585" width="60.849" height="82.938"/><path class="cls-2" d="M117.37,55.733H99.588V36.593l5.1-5.1H117.37Z"/><rect class="cls-3" x="103.554" y="39.73" width="5.641" height="1.18"/><rect class="cls-3" x="103.554" y="41.957" width="10.212" height="1.18"/><rect class="cls-3" x="103.554" y="44.093" width="10.212" height="1.18"/><polygon class="cls-4" points="104.709 36.613 99.588 41.734 99.588 36.592 102.138 34.042 104.709 36.613"/><polygon class="cls-3" points="104.684 36.593 99.588 36.593 104.684 31.497 104.684 36.593"/><path class="cls-2" d="M142.421,55.733H124.639V36.593l5.1-5.1h12.686Z"/><rect class="cls-3" x="128.605" y="39.73" width="5.641" height="1.18"/><rect class="cls-3" x="128.605" y="41.957" width="10.212" height="1.18"/><rect class="cls-3" x="128.605" y="44.093" width="10.212" height="1.18"/><polygon class="cls-4" points="129.76 36.613 124.639 41.734 124.639 36.592 127.189 34.042 129.76 36.613"/><polygon class="cls-3" points="129.735 36.593 124.639 36.593 129.735 31.497 129.735 36.593"/><path class="cls-2" d="M117.37,88.611H99.588V69.471l5.1-5.1H117.37Z"/><rect class="cls-3" x="103.554" y="72.608" width="5.641" height="1.18"/><rect class="cls-3" x="103.554" y="74.835" width="10.212" height="1.18"/><rect class="cls-3" x="103.554" y="76.971" width="10.212" height="1.18"/><polygon class="cls-4" points="104.709 69.491 99.588 74.612 99.588 69.47 102.138 66.92 104.709 69.491"/><polygon class="cls-3" points="104.684 69.471 99.588 69.471 104.684 64.374 104.684 69.471"/><path class="cls-2" d="M142.421,88.611H124.639V69.471l5.1-5.1h12.686Z"/><rect class="cls-3" x="128.605" y="72.608" width="5.641" height="1.18"/><rect class="cls-3" x="128.605" y="74.835" width="10.212" height="1.18"/><rect class="cls-3" x="128.605" y="76.971" width="10.212" height="1.18"/><polygon class="cls-4" points="129.76 69.491 124.639 74.612 124.639 69.47 127.189 66.92 129.76 69.491"/><polygon class="cls-3" points="129.735 69.471 124.639 69.471 129.735 64.374 129.735 69.471"/><rect class="cls-5" x="53.725" y="6.735" width="78.063" height="106.401"/><path class="cls-2" d="M89.988,57.019H65.919V31.11l6.9-6.9H89.988Z"/><rect class="cls-3" x="71.286" y="35.357" width="7.635" height="1.597"/><rect class="cls-3" x="71.286" y="38.371" width="13.824" height="1.597"/><rect class="cls-3" x="71.286" y="41.262" width="13.824" height="1.597"/><polygon class="cls-4" points="72.85 31.137 65.918 38.07 65.918 31.109 69.37 27.657 72.85 31.137"/><polygon class="cls-3" points="72.816 31.11 65.918 31.11 72.816 24.212 72.816 31.11"/><path class="cls-2" d="M123.9,57.019H99.828V31.11l6.9-6.9H123.9Z"/><rect class="cls-3" x="105.196" y="35.357" width="7.635" height="1.597"/><rect class="cls-3" x="105.196" y="38.371" width="13.824" height="1.597"/><rect class="cls-3" x="105.196" y="41.262" width="13.824" height="1.597"/><polygon class="cls-4" points="106.76 31.137 99.828 38.07 99.828 31.109 103.28 27.657 106.76 31.137"/><polygon class="cls-3" points="106.726 31.11 99.828 31.11 106.726 24.212 106.726 31.11"/><path class="cls-2" d="M89.988,101.523H65.919V75.614l6.9-6.9H89.988Z"/><rect class="cls-3" x="71.286" y="79.861" width="7.635" height="1.597"/><rect class="cls-3" x="71.286" y="82.875" width="13.824" height="1.597"/><rect class="cls-3" x="71.286" y="85.766" width="13.824" height="1.597"/><polygon class="cls-4" points="72.85 75.641 65.918 82.573 65.918 75.613 69.37 72.161 72.85 75.641"/><polygon class="cls-3" points="72.816 75.614 65.918 75.614 72.816 68.716 72.816 75.614"/><path class="cls-2" d="M123.9,101.523H99.828V75.614l6.9-6.9H123.9Z"/><rect class="cls-3" x="105.196" y="79.861" width="7.635" height="1.597"/><rect class="cls-3" x="105.196" y="82.875" width="13.824" height="1.597"/><rect class="cls-3" x="105.196" y="85.766" width="13.824" height="1.597"/><polygon class="cls-4" points="106.76 75.641 99.828 82.573 99.828 75.613 103.28 72.161 106.76 75.641"/><polygon class="cls-3" points="106.726 75.614 99.828 75.614 106.726 68.716 106.726 75.614"/><rect class="cls-6" x="23.571" y="0.07" width="87.255" height="118.93"/><path class="cls-2" d="M61.987,53.339h-25.5V25.893L43.8,18.585H61.987Z"/><rect class="cls-3" x="42.175" y="30.392" width="8.089" height="1.692"/><rect class="cls-3" x="42.175" y="33.585" width="14.644" height="1.692"/><rect class="cls-3" x="42.175" y="36.648" width="14.644" height="1.692"/><polygon class="cls-4" points="43.832 25.921 36.488 33.265 36.488 25.892 40.145 22.235 43.832 25.921"/><polygon class="cls-3" points="43.796 25.893 36.488 25.893 43.796 18.585 43.796 25.893"/><path class="cls-2" d="M97.91,53.339h-25.5V25.893l7.307-7.308H97.91Z"/><rect class="cls-3" x="78.098" y="30.392" width="8.089" height="1.692"/><rect class="cls-3" x="78.098" y="33.585" width="14.644" height="1.692"/><rect class="cls-3" x="78.098" y="36.648" width="14.644" height="1.692"/><polygon class="cls-4" points="79.755 25.921 72.411 33.265 72.411 25.892 76.068 22.235 79.755 25.921"/><polygon class="cls-3" points="79.719 25.893 72.411 25.893 79.719 18.585 79.719 25.893"/><path class="cls-2" d="M61.987,100.485h-25.5V73.038L43.8,65.731H61.987Z"/><rect class="cls-3" x="42.175" y="77.538" width="8.089" height="1.692"/><rect class="cls-3" x="42.175" y="80.731" width="14.644" height="1.692"/><rect class="cls-3" x="42.175" y="83.793" width="14.644" height="1.692"/><polygon class="cls-4" points="43.832 73.067 36.488 80.411 36.488 73.038 40.145 69.381 43.832 73.067"/><polygon class="cls-3" points="43.796 73.039 36.488 73.039 43.796 65.731 43.796 73.039"/><path class="cls-2" d="M97.91,100.485h-25.5V73.038l7.307-7.307H97.91Z"/><rect class="cls-3" x="78.098" y="77.538" width="8.089" height="1.692"/><rect class="cls-3" x="78.098" y="80.731" width="14.644" height="1.692"/><rect class="cls-3" x="78.098" y="83.793" width="14.644" height="1.692"/><polygon class="cls-4" points="79.755 73.067 72.411 80.411 72.411 73.038 76.068 69.381 79.755 73.067"/><polygon class="cls-3" points="79.719 73.039 72.411 73.039 79.719 65.731 79.719 73.039"/></svg>