<svg xmlns="http://www.w3.org/2000/svg" xmlns:xlink="http://www.w3.org/1999/xlink" viewBox="0 0 175 119"><defs><style>.cls-1{fill:#50acff;}.cls-2,.cls-3,.cls-8,.cls-9{fill:none;}.cls-3{stroke:#1e120d;stroke-width:0.3px;}.cls-4{isolation:isolate;}.cls-5{clip-path:url(#clip-path);}.cls-6{mix-blend-mode:soft-light;fill:url(#Líneas_cuadrícula_0_5_pulg);}.cls-7,.cls-8,.cls-9{opacity:0.5;}.cls-8,.cls-9{stroke:#fcffff;stroke-miterlimit:10;}.cls-9{stroke-dasharray:5;}.cls-10{fill:#fff;}.cls-11{fill:#fcffff;}.cls-12{opacity:0.05;}.cls-13{fill:#489fe0;}</style><clipPath id="clip-path"><path class="cls-1" d="M130.983,119H44.019V25.39L68.942.466h62.041Z"/></clipPath><pattern id="Líneas_cuadrícula_0_5_pulg" data-name="Líneas cuadrícula 0,5 pulg" width="72" height="72" patternTransform="translate(-124.708 -74.548) scale(0.258 0.237)" patternUnits="userSpaceOnUse" viewBox="0 0 72 72"><rect class="cls-2" width="72" height="72"/><line class="cls-3" x1="-0.25" y1="18" x2="72.25" y2="18"/><line class="cls-3" x1="-59.25" y1="18" x2="-13.25" y2="18"/><line class="cls-3" x1="54" y1="-0.25" x2="54" y2="72.25"/><line class="cls-3" x1="-18.25" y1="13" x2="-18.25" y2="59"/><line class="cls-3" x1="-59.25" y1="54" x2="-13.25" y2="54"/><line class="cls-3" x1="-0.25" y1="54" x2="72.25" y2="54"/><line class="cls-3" x1="18" y1="-0.25" x2="18" y2="72.25"/><line class="cls-3" x1="-54.25" y1="13" x2="-54.25" y2="59"/></pattern></defs><g class="cls-4"><g id="Warstwa_1" data-name="Warstwa 1"><path class="cls-1" d="M130.983,119H44.019V25.39L68.942.466h62.041Z"/><g class="cls-5"><rect class="cls-6" x="20.567" y="0.466" width="128.771" height="118.534"/><g class="cls-7"><circle class="cls-8" cx="56.479" cy="12.929" r="13.728"/><circle class="cls-8" cx="56.479" cy="12.929" r="15.909" transform="translate(-1.295 8.545) rotate(-8.555)"/><circle class="cls-9" cx="56.479" cy="12.929" r="18.256"/><circle class="cls-8" cx="56.479" cy="12.929" r="20.772"/></g></g><rect class="cls-10" x="63.414" y="40.736" width="27.588" height="5.77"/><rect class="cls-10" x="63.414" y="51.625" width="49.946" height="5.77"/><rect class="cls-10" x="63.414" y="62.071" width="49.946" height="5.77"/><rect class="cls-10" x="63.414" y="72.961" width="49.946" height="5.77"/><g class="cls-7"><path class="cls-11" d="M93.7,107.657h1.424v.3H93.7Zm2.846,0h1.423v.3H96.548Zm2.847,0h1.422v.3H99.4Zm2.845,0h1.424v.3H102.24Zm2.847,0h1.422v.3h-1.422Zm2.846,0h1.423v.3h-1.423Zm2.845,0H112.2v.3h-1.423Zm2.847,0h1.422v.3h-1.422Zm2.845,0h1.424v.3H116.47Z"/><polygon class="cls-11" points="119.317 107.956 120.215 107.956 120.215 107.058 119.915 107.058 119.915 107.657 119.317 107.657 119.317 107.956"/><path class="cls-11" d="M119.915,104.222h.3v1.418h-.3Zm0-2.836h.3V102.8h-.3Zm0-2.836h.3v1.418h-.3Zm0-2.836h.3v1.419h-.3Zm0-2.835h.3V94.3h-.3Zm0-2.836h.3v1.418h-.3Zm0-2.836h.3v1.418h-.3Zm0-2.836h.3v1.418h-.3Zm0-2.836h.3v1.418h-.3Z"/></g><g class="cls-7"><path class="cls-11" d="M105.334,111.286h1.5v.3h-1.5Zm2.993,0h1.5v.3h-1.5Zm2.994,0h1.5v.3h-1.5Zm2.993,0h1.5v.3h-1.5Zm2.994,0h1.5v.3h-1.5Zm2.993,0h1.5v.3h-1.5Zm2.994,0h.255v-.942h.3v1.241H123.3Zm-35.923,0h1.5v.3h-1.5Zm2.994,0h1.5v.3h-1.5Zm2.993,0h1.5v.3h-1.5Zm2.994,0h1.5v.3h-1.5Zm2.993,0h1.5v.3h-1.5Zm2.994,0h1.5v.3h-1.5Zm21.21-3.936h.3v1.5h-.3Zm0-2.993h.3v1.5h-.3Zm0-2.994h.3v1.5h-.3Zm0-2.993h.3v1.5h-.3Zm0-2.994h.3v1.5h-.3Zm0-2.993h.3v1.5h-.3Zm0-2.994h.3v1.5h-.3Zm0-2.993h.3v1.5h-.3Zm0-2.994h.3v1.5h-.3Zm0-2.994h.3v1.5h-.3Zm0-2.993h.3v1.5h-.3Zm0-2.994h.3v1.5h-.3Z"/></g><polygon class="cls-12" points="69.064 25.489 44.018 50.535 44.018 25.387 56.49 12.915 69.064 25.489"/><polygon class="cls-13" points="68.941 25.391 44.017 25.391 68.941 0.466 68.941 25.391"/><g class="cls-7"><rect class="cls-11" x="127.251" y="8.025" width="0.152" height="42.418"/><rect class="cls-11" x="126.161" y="7.937" width="2.333" height="0.152"/><rect class="cls-11" x="126.161" y="50.348" width="2.333" height="0.152"/></g><g class="cls-7"><rect class="cls-11" x="83.001" y="5.92" width="42.389" height="0.152"/><rect class="cls-11" x="82.849" y="4.83" width="0.152" height="2.333"/><rect class="cls-11" x="125.324" y="4.83" width="0.152" height="2.333"/></g><g class="cls-7"><path class="cls-11" d="M102.751,4.976a.02.02,0,0,1-.015.006h-.031a.02.02,0,0,1-.014-.006.02.02,0,0,1-.006-.015V4.542l-.123.093a.017.017,0,0,1-.013,0,.019.019,0,0,1-.016-.007l-.019-.024a.02.02,0,0,1,0-.013.019.019,0,0,1,.008-.016l.163-.125a.043.043,0,0,1,.024-.006h.031a.021.021,0,0,1,.021.021v.491A.02.02,0,0,1,102.751,4.976Z"/><path class="cls-11" d="M103.2,4.658a.121.121,0,0,0,.01-.054.1.1,0,0,0-.024-.068.1.1,0,0,0-.074-.026.1.1,0,0,0-.073.025.155.155,0,0,0-.035.069.024.024,0,0,1-.008.013.017.017,0,0,1-.012,0h-.035a.021.021,0,0,1-.012,0,.016.016,0,0,1,0-.012.163.163,0,0,1,.023-.077.168.168,0,0,1,.062-.062.18.18,0,0,1,.094-.024.187.187,0,0,1,.092.021.152.152,0,0,1,.059.059.171.171,0,0,1,.019.082.185.185,0,0,1-.016.082.213.213,0,0,1-.056.069l-.169.158h.232a.021.021,0,0,1,.021.021v.027a.021.021,0,0,1-.021.021h-.328a.02.02,0,0,1-.014-.006.02.02,0,0,1-.006-.015V4.934l0-.014.014-.015.223-.2A.169.169,0,0,0,103.2,4.658Z"/><path class="cls-11" d="M103.508,4.967l-.011.011a.025.025,0,0,1-.013,0h-.035a.015.015,0,0,1-.013-.006.014.014,0,0,1-.006-.012.017.017,0,0,1,0-.01l.14-.175-.132-.165,0-.01a.017.017,0,0,1,.018-.018h.037a.018.018,0,0,1,.013,0l.011.011.1.127.1-.127.01-.011a.021.021,0,0,1,.014,0h.035a.017.017,0,0,1,.018.018l0,.01-.132.167.138.173,0,.01a.014.014,0,0,1-.006.012.016.016,0,0,1-.013.006h-.036a.029.029,0,0,1-.014,0l-.011-.011-.107-.134Z"/></g><g class="cls-7"><path class="cls-11" d="M128.681,30.233a.02.02,0,0,1-.015.006h-.031a.018.018,0,0,1-.014-.006.021.021,0,0,1-.007-.015V29.8l-.123.093a.015.015,0,0,1-.013,0,.021.021,0,0,1-.016-.008l-.018-.023a.022.022,0,0,1,0-.013.017.017,0,0,1,.008-.016l.163-.125a.038.038,0,0,1,.024-.006h.031a.021.021,0,0,1,.021.021v.491A.02.02,0,0,1,128.681,30.233Z"/><path class="cls-11" d="M129.13,29.915a.12.12,0,0,0,.011-.054.092.092,0,0,0-.025-.068.117.117,0,0,0-.146,0,.146.146,0,0,0-.035.069.024.024,0,0,1-.008.013.021.021,0,0,1-.012.005h-.035a.017.017,0,0,1-.017-.017.171.171,0,0,1,.085-.139.184.184,0,0,1,.095-.024.187.187,0,0,1,.092.021.143.143,0,0,1,.058.059.161.161,0,0,1,.02.082.188.188,0,0,1-.016.082.227.227,0,0,1-.056.069l-.17.158h.233a.018.018,0,0,1,.014.006.021.021,0,0,1,.007.015v.027a.021.021,0,0,1-.007.015.018.018,0,0,1-.014.006h-.328a.018.018,0,0,1-.014-.006.02.02,0,0,1-.006-.015v-.027l0-.014.013-.015.223-.2A.15.15,0,0,0,129.13,29.915Z"/><path class="cls-11" d="M129.438,30.224l-.011.01a.022.022,0,0,1-.014,0h-.035a.018.018,0,0,1-.013-.006.017.017,0,0,1,0-.012l0-.01.139-.175-.131-.165,0-.011a.016.016,0,0,1,0-.012.019.019,0,0,1,.013,0h.036a.02.02,0,0,1,.014,0l.011.01.1.128.1-.128.011-.01a.02.02,0,0,1,.014,0h.035a.017.017,0,0,1,.012,0,.017.017,0,0,1,.006.012l0,.011-.133.167.138.173,0,.01a.017.017,0,0,1,0,.012.018.018,0,0,1-.013.006h-.037a.019.019,0,0,1-.013,0l-.011-.01-.107-.135Z"/></g><g class="cls-7"><path class="cls-11" d="M127,6.113a.017.017,0,0,1-.012,0h-.031a.02.02,0,0,1-.014,0l-.01-.013a.136.136,0,0,0-.042-.046.128.128,0,0,0-.079-.023.148.148,0,0,0-.078.02.067.067,0,0,0-.031.059.057.057,0,0,0,.016.042.111.111,0,0,0,.047.028.984.984,0,0,0,.095.029.294.294,0,0,1,.123.056.116.116,0,0,1,.036.09.136.136,0,0,1-.025.081.167.167,0,0,1-.072.054.259.259,0,0,1-.107.02.246.246,0,0,1-.1-.021.2.2,0,0,1-.073-.054.117.117,0,0,1-.028-.066.013.013,0,0,1,.005-.012.016.016,0,0,1,.011,0h.032l.013,0a.032.032,0,0,1,.01.014.123.123,0,0,0,.045.05.151.151,0,0,0,.088.023.169.169,0,0,0,.093-.024.072.072,0,0,0,.039-.063.053.053,0,0,0-.02-.042.167.167,0,0,0-.055-.029c-.024-.008-.058-.018-.1-.029a.212.212,0,0,1-.107-.056.13.13,0,0,1-.032-.089.143.143,0,0,1,.02-.073.15.15,0,0,1,.062-.054.213.213,0,0,1,.1-.021.218.218,0,0,1,.1.023.186.186,0,0,1,.067.055.115.115,0,0,1,.025.06A.013.013,0,0,1,127,6.113Z"/><path class="cls-11" d="M127.5,5.991a.177.177,0,0,1,.072.074.215.215,0,0,1,.026.1c0,.03,0,.053,0,.067s0,.038,0,.068a.222.222,0,0,1-.016.082.2.2,0,0,1-.042.066l.056.076,0,.008,0,.011a.014.014,0,0,1-.011,0h-.036a.036.036,0,0,1-.019,0,.034.034,0,0,1-.012-.012l-.032-.044a.225.225,0,0,1-.1.019.217.217,0,0,1-.111-.027.181.181,0,0,1-.071-.074.23.23,0,0,1-.027-.105c0-.015,0-.038,0-.068s0-.052,0-.067a.227.227,0,0,1,.026-.1.177.177,0,0,1,.072-.074.236.236,0,0,1,.223,0Zm-.21.077a.146.146,0,0,0-.039.105c0,.016,0,.037,0,.064s0,.049,0,.064a.148.148,0,0,0,.039.106.153.153,0,0,0,.2,0,.144.144,0,0,0,.039-.106c0-.03,0-.052,0-.064s0-.033,0-.064a.142.142,0,0,0-.039-.105.153.153,0,0,0-.2,0Z"/><path class="cls-11" d="M128.121,6.01a.141.141,0,0,1,.052.119.149.149,0,0,1-.03.1.155.155,0,0,1-.08.053l.115.2,0,.009a.016.016,0,0,1,0,.012.016.016,0,0,1-.011,0h-.033a.037.037,0,0,1-.033-.021l-.11-.194h-.131v.194a.022.022,0,0,1-.021.021h-.031a.017.017,0,0,1-.014-.007.018.018,0,0,1-.006-.014V5.992a.02.02,0,0,1,.006-.015.02.02,0,0,1,.014-.006h.184A.213.213,0,0,1,128.121,6.01Zm-.135.211c.076,0,.114-.031.114-.092a.08.08,0,0,0-.028-.069.156.156,0,0,0-.086-.02h-.129v.181Z"/></g></g></g></svg>