<?xml version="1.0" encoding="utf-8"?>
<!-- Generator: Adobe Illustrator 26.0.1, SVG Export Plug-In . SVG Version: 6.00 Build 0)  -->
<svg version="1.1" id="Warstwa_1" xmlns="http://www.w3.org/2000/svg" xmlns:xlink="http://www.w3.org/1999/xlink" x="0px" y="0px"
	 viewBox="0 0 175 119" style="enable-background:new 0 0 175 119;" xml:space="preserve">
<style type="text/css">
	.st0{fill:#F57564;}
	.st1{fill:#F9FFF0;}
	.st2{fill:#BCBCBC;}
	.st3{opacity:5.000000e-02;enable-background:new    ;}
	.st4{opacity:0.45;}
	.st5{fill:none;stroke:#FFFFFF;stroke-width:5;stroke-miterlimit:10;}
	.st6{fill:#FFFFFF;}
	.st7{fill:#3B4654;}
</style>
<rect x="109" y="40.4" class="st0" width="57.9" height="78.4"/>
<rect x="115.5" y="46.3" class="st1" width="45" height="66.6"/>
<rect x="124.1" y="55.7" class="st2" width="15.4" height="3.4"/>
<rect x="124.1" y="62" class="st2" width="27.9" height="3.4"/>
<rect x="124.1" y="68.2" class="st2" width="27.9" height="3.4"/>
<rect x="124.1" y="74.5" class="st2" width="27.9" height="3.4"/>
<rect x="124.1" y="99.9" class="st2" width="15.4" height="3.4"/>
<rect x="124.1" y="93.5" class="st2" width="27.9" height="3.4"/>
<rect x="124.1" y="87.4" class="st2" width="27.9" height="3.4"/>
<rect x="124.1" y="81" class="st2" width="27.9" height="3.4"/>
<path class="st1" d="M65.5,118.7H8.1V56.9l16.5-16.5h41V118.7z"/>
<rect x="20.9" y="67" class="st2" width="18.2" height="3.8"/>
<rect x="20.9" y="74.2" class="st2" width="33" height="3.8"/>
<rect x="20.9" y="81.1" class="st2" width="33" height="3.8"/>
<rect x="20.9" y="88.3" class="st2" width="33" height="3.8"/>
<polygon class="st3" points="24.6,56.9 8.1,73.5 8.1,56.9 16.3,48.6 "/>
<polygon class="st2" points="24.5,56.9 8.1,56.9 24.5,40.4 "/>
<g class="st4">
	<line class="st5" x1="70.7" y1="68.8" x2="97.1" y2="68.8"/>
	<polygon class="st6" points="95.7,73.8 104.3,68.8 95.7,63.8 	"/>
</g>
<path class="st7" d="M77.9,41h-3.5c-0.1,0-0.2,0-0.3-0.1s0-0.2,0.1-0.3c1.9-3.2,3.8-6.4,5.7-9.6c1.4-2.3,2.7-4.6,4.1-6.8
	c0.1-0.1,0.1-0.3,0-0.4c-2.4-4-4.8-8-7.1-11.9c-0.9-1.5-1.7-2.9-2.6-4.4c-0.1-0.1-0.2-0.2-0.1-0.4c0.1-0.1,0.2-0.1,0.3-0.1
	c2.3,0,4.6,0,6.9,0c0.2,0,0.4,0.1,0.4,0.3c3.4,5.8,6.9,11.5,10.3,17.3c3.2,5.3,6.4,10.7,9.6,16c0.1,0.1,0.1,0.2,0.1,0.3
	s-0.2,0.1-0.3,0.1c-2.3,0-4.6,0-6.9,0c-0.2,0-0.3-0.1-0.4-0.2c-2-3.3-4-6.7-6-10c-0.2-0.3-0.3-0.3-0.5,0c-2,3.3-4,6.6-5.9,10
	c-0.1,0.2-0.3,0.3-0.5,0.3C80.2,40.9,79.1,41,77.9,41z"/>
</svg>
