<?xml version="1.0" encoding="utf-8"?>
<!-- Generator: Adobe Illustrator 26.0.1, SVG Export Plug-In . SVG Version: 6.00 Build 0)  -->
<svg version="1.1" id="Layer_1" xmlns="http://www.w3.org/2000/svg" xmlns:xlink="http://www.w3.org/1999/xlink" x="0px" y="0px"
	 viewBox="0 0 175 119" style="enable-background:new 0 0 175 119;" xml:space="preserve">
<style type="text/css">
	.st0{fill:#F57564;}
	.st1{fill:#FFFFFF;}
	.st2{fill:#73B7E0;}
	.st3{fill:#47718A;}
	.st4{fill:#FF266B;}
	.st5{opacity:0.33;fill:url(#SVGID_1_);enable-background:new    ;}
	.st6{opacity:9.000000e-02;}
</style>
<g>
	<g id="Warstwa_1">
		<path class="st0" d="M42.6,0.1h91.8c4.6,0,8.3,3.7,8.3,8.3l0,0v88.1c0,3.2-2.6,5.8-5.8,5.8H85.8C84.9,110,78.3,119,70.4,119h-1.3
			v-16.7H42.6c-4.6,0-8.3-3.7-8.3-8.3l0,0V8.4C34.3,3.8,38,0.1,42.6,0.1z"/>
		<path class="st1" d="M93.3,63.4h-9.6c-0.6,0-1.1-0.5-1.1-1.1l0,0c0.4-11,6.4-14.7,10.6-17c1.3-0.6,2.5-1.4,3.5-2.4
			c1.4-1.5,1.7-3.7,0.8-5.5c-1.2-2.8-3.9-5.5-9.1-5.5c-4.8-0.2-9,3.3-9.7,8.1c-0.1,0.6-0.6,0.9-1.2,0.9l-9.6-1.3
			c-0.6-0.1-1-0.6-0.9-1.2c0,0,0,0,0-0.1c1.3-7,7.3-18.3,21.5-18.3c9.1,0,16.9,5.1,20.1,12.6c2.8,6.7,1.6,13.8-3.2,18.5
			c-1.9,1.7-4,3.2-6.3,4.3c-1.5,0.7-2.8,1.9-3.7,3.3c-0.6,1.1-1,2.3-1,3.5C94.4,62.9,93.9,63.4,93.3,63.4z"/>
		<path class="st1" d="M96.3,75.2c0,4.4-3.5,7.9-7.9,7.9s-7.9-3.5-7.9-7.9s3.5-7.9,7.9-7.9C92.8,67.3,96.3,70.8,96.3,75.2L96.3,75.2
			z"/>
	</g>
</g>
<g>
	<g>
		
			<rect x="113.9" y="88" transform="matrix(0.5579 -0.8299 0.8299 0.5579 -24.7823 136.6479)" class="st2" width="3.9" height="7.2"/>
	</g>
	<g>
		
			<rect x="113.9" y="88" transform="matrix(0.5579 -0.8299 0.8299 0.5579 -24.7823 136.6479)" class="st2" width="3.9" height="7.2"/>
	</g>
	<path class="st3" d="M152.8,111.5c1.8,1.1,2.4,3.3,1.4,4.8l-0.9,1.3c-1,1.5-3.3,1.8-5,0.6l-0.8-0.6l-1.2-0.9l-0.7-0.5l-1.2-0.9
		l-26.7-18.7c-0.8-0.6-1-1.6-0.6-2.3l2-2.9c0.5-0.7,1.5-0.8,2.3-0.3l27.4,17.6l1.2,0.8l0.7,0.5l1.2,0.8L152.8,111.5z"/>
	<polygon class="st4" points="122.4,100.1 126.2,94.4 124.6,93.4 120.9,99 	"/>
	<polygon class="st4" points="150,109.7 145.6,116.3 144.3,115.5 148.7,108.9 	"/>
	<polygon class="st4" points="151.9,111 147.5,117.7 146.2,116.8 150.7,110.2 	"/>
	
		<radialGradient id="SVGID_1_" cx="-351.1856" cy="-6.3049" r="23.0999" gradientTransform="matrix(0.5579 -0.8299 -0.8299 -0.5579 286.044 -217.2164)" gradientUnits="userSpaceOnUse">
		<stop  offset="0.531" style="stop-color:#CFEDFF"/>
		<stop  offset="1" style="stop-color:#ADE1FF"/>
	</radialGradient>
	<path class="st5" d="M113.4,89.9c-6.7,9.9-20.2,12.6-30.2,5.9c-9.9-6.7-12.6-20.2-5.9-30.2c6.7-9.9,20.2-12.6,30.2-5.9
		C117.4,66.5,120.1,80,113.4,89.9z"/>
	<g class="st6">
		<path d="M114.3,90.5c-7,10.5-21.2,13.2-31.7,6.2S69.4,75.5,76.4,65s21.2-13.2,31.7-6.2C118.6,65.9,121.3,80.1,114.3,90.5z
			 M79.1,66.8c-6,9-3.6,21.2,5.3,27.3s21.2,3.6,27.3-5.3s3.6-21.2-5.3-27.3C97.3,55.5,85.1,57.9,79.1,66.8z"/>
	</g>
	<g>
		<path class="st2" d="M114.9,90.9c-7.2,10.8-21.9,13.6-32.6,6.4c-10.8-7.2-13.6-21.9-6.4-32.6c7.2-10.8,21.9-13.6,32.6-6.4
			S122.1,80.2,114.9,90.9z M78.6,66.5c-6.2,9.3-3.8,21.8,5.5,28.1c9.3,6.2,21.8,3.8,28.1-5.5c6.2-9.3,3.8-21.8-5.5-28.1
			S84.8,57.3,78.6,66.5z"/>
	</g>
</g>
</svg>
