<svg xmlns="http://www.w3.org/2000/svg" viewBox="0 0 175 119"><defs><style>.cls-1{isolation:isolate;}.cls-2{fill:#f9fff0;}.cls-3{fill:#bcbcbc;}.cls-4{opacity:0.05;}.cls-5{fill:#ffcc5a;}.cls-6{fill:#f5c251;}.cls-7{mix-blend-mode:overlay;opacity:0.28;}.cls-8{fill:#ffe3a6;}</style></defs><g class="cls-1"><g id="Warstwa_1" data-name="Warstwa 1"><path class="cls-2" d="M130.86,119H44.122V25.634L68.981.775H130.86Z"/><rect class="cls-3" x="63.466" y="40.94" width="27.516" height="5.755"/><rect class="cls-3" x="63.466" y="51.801" width="49.816" height="5.755"/><rect class="cls-3" x="63.466" y="62.22" width="49.816" height="5.755"/><rect class="cls-3" x="63.466" y="73.081" width="49.816" height="5.755"/><polygon class="cls-4" points="69.102 25.733 44.121 50.714 44.121 25.631 56.561 13.191 69.102 25.733"/><polygon class="cls-3" points="68.979 25.635 44.12 25.635 68.979 0.775 68.979 25.635"/><polygon class="cls-5" points="125.392 35.898 95.758 35.898 95.758 0.775 130.88 0.775 130.88 30.898 125.392 35.898"/><rect class="cls-6" x="95.758" y="0.775" width="35.122" height="7.805"/><polygon class="cls-7" points="130.88 30.898 123.685 31.995 125.392 35.898 130.88 30.898"/><polygon class="cls-8" points="124.904 32.117 125.392 35.898 130.88 30.898 124.904 32.117"/><path class="cls-2" d="M117.817,20.453l-.372,3.145h2.729v2.816H117.1l-.414,3.254h-2.969l.414-3.254H111.44l-.415,3.254h-2.968l.414-3.254h-2.75V23.6h3.1l.372-3.145h-2.752V17.637h3.1l.414-3.253h2.971l-.416,3.253H115.2l.414-3.253h2.969l-.414,3.253h2.752v2.816Zm-2.971,0h-2.685L111.79,23.6h2.686Z"/></g></g></svg>