<?xml version="1.0" encoding="utf-8"?>
<!-- Generator: Adobe Illustrator 26.0.1, SVG Export Plug-In . SVG Version: 6.00 Build 0)  -->
<svg version="1.1" id="Layer_1" xmlns="http://www.w3.org/2000/svg" xmlns:xlink="http://www.w3.org/1999/xlink" x="0px" y="0px"
	 viewBox="0 0 175 119" style="enable-background:new 0 0 175 119;" xml:space="preserve">
<style type="text/css">
	.st0{fill:#CFDFE8;}
	.st1{fill:#DD3E46;}
	.st2{fill:#F9FFF0;}
	.st3{fill:#5A6470;}
	.st4{fill:#FFCC5A;}
	.st5{fill:#EA2880;}
	.st6{fill:#828282;}
	.st7{fill:#73B7E0;}
	.st8{fill:#47718A;}
	.st9{fill:#FF266B;}
	.st10{opacity:0.33;fill:url(#SVGID_1_);enable-background:new    ;}
	.st11{opacity:9.000000e-02;}
</style>
<g>
	<g id="Warstwa_1">
		<path class="st0" d="M49.2,31h-3.4v-7.7L77.1,2.5L79,5.3L49.2,25.2V31z"/>
		<path class="st0" d="M110.3,31.7h-3.4v-6.6L77.1,5.3L79,2.5l31.3,20.9L110.3,31.7z"/>
		<path class="st1" d="M81.5,3.9c0,1.9-1.5,3.4-3.4,3.4c-1.9,0-3.4-1.5-3.4-3.4s1.5-3.4,3.4-3.4c0,0,0,0,0,0
			C79.9,0.5,81.5,2,81.5,3.9C81.5,3.9,81.5,3.9,81.5,3.9z"/>
		<path class="st2" d="M32.2,31h91.6v54.3H32.2V31z"/>
		<path class="st3" d="M28.9,24.2h98.4V31H28.9V24.2z"/>
		<path class="st4" d="M117.1,68.4c0,5.6-4.6,10.2-10.2,10.2S96.7,74,96.7,68.4s4.6-10.2,10.2-10.2S117.1,62.7,117.1,68.4
			L117.1,68.4z"/>
		<path class="st5" d="M89.9,76.8H37.3v-39h3.4v35.6h49.2V76.8z"/>
		<path class="st5" d="M54.3,67.9l-8.7-12.2l-5.4,5.4l-2.4-2.4l8.2-8.2l8.3,11.6l7.9-11.1l10.5,5.2l11-9.4l2.2,2.6L73.2,60.2
			l-9.9-4.9L54.3,67.9z"/>
		<path class="st6" d="M95,36.1h23.8v3.4H95V36.1z"/>
		<path class="st6" d="M95,42.9h6.8v3.4H95V42.9z"/>
		<path class="st6" d="M105.2,42.9h6.8v3.4h-6.8L105.2,42.9z"/>
		<path class="st6" d="M95,49.7h13.6v3.4H95V49.7z"/>
	</g>
</g>
<g>
	<g>
		
			<rect x="105.4" y="88" transform="matrix(0.5579 -0.8299 0.8299 0.5579 -28.5425 129.537)" class="st7" width="3.9" height="7.2"/>
	</g>
	<g>
		
			<rect x="105.4" y="88" transform="matrix(0.5579 -0.8299 0.8299 0.5579 -28.5425 129.537)" class="st7" width="3.9" height="7.2"/>
	</g>
	<path class="st8" d="M144.2,111.5c1.8,1.1,2.4,3.3,1.4,4.8l-0.9,1.3c-1,1.5-3.3,1.8-5,0.6l-0.8-0.6l-1.2-0.9l-0.7-0.5l-1.2-0.9
		l-26.7-18.7c-0.8-0.6-1-1.6-0.6-2.3l2-2.9c0.5-0.7,1.5-0.8,2.3-0.3l27.4,17.6l1.2,0.8l0.7,0.5l1.2,0.8L144.2,111.5z"/>
	<polygon class="st9" points="113.8,100.1 117.6,94.4 116,93.4 112.3,99 	"/>
	<polygon class="st9" points="141.4,109.7 137,116.3 135.7,115.5 140.1,108.9 	"/>
	<polygon class="st9" points="143.3,111 138.9,117.7 137.6,116.8 142.1,110.2 	"/>
	
		<radialGradient id="SVGID_1_" cx="-355.9364" cy="0.809" r="23.0999" gradientTransform="matrix(0.5579 -0.8299 -0.8299 -0.5579 286.044 -217.2164)" gradientUnits="userSpaceOnUse">
		<stop  offset="0.531" style="stop-color:#CFEDFF"/>
		<stop  offset="1" style="stop-color:#ADE1FF"/>
	</radialGradient>
	<path class="st10" d="M104.8,89.9c-6.7,9.9-20.2,12.6-30.2,5.9c-9.9-6.7-12.6-20.2-5.9-30.2c6.7-9.9,20.2-12.6,30.2-5.9
		C108.8,66.5,111.5,80,104.8,89.9z"/>
	<g class="st11">
		<path d="M105.7,90.5c-7,10.5-21.2,13.2-31.7,6.2S60.8,75.5,67.8,65S89,51.8,99.5,58.8C110,65.9,112.7,80.1,105.7,90.5z M70.5,66.8
			c-6,9-3.6,21.2,5.3,27.3s21.2,3.6,27.3-5.3s3.6-21.2-5.3-27.3C88.7,55.5,76.5,57.9,70.5,66.8z"/>
	</g>
	<g>
		<path class="st7" d="M106.3,90.9c-7.2,10.8-21.9,13.6-32.6,6.4c-10.8-7.2-13.6-21.9-6.4-32.6c7.2-10.8,21.9-13.6,32.6-6.4
			S113.5,80.2,106.3,90.9z M70,66.5c-6.2,9.3-3.8,21.8,5.5,28.1c9.3,6.2,21.8,3.8,28.1-5.5c6.2-9.3,3.8-21.8-5.5-28.1
			S76.2,57.3,70,66.5z"/>
	</g>
</g>
</svg>
