<svg id="Warstwa_1" data-name="Warstwa 1" xmlns="http://www.w3.org/2000/svg" xmlns:xlink="http://www.w3.org/1999/xlink" viewBox="0 0 175 119"><defs><style>.cls-1{fill:#f9fff0;}.cls-2{opacity:0.05;}.cls-3{fill:#bcbcbc;}.cls-4{fill:#73b7e0;}.cls-5{opacity:0.5;}.cls-6{fill:#47718a;}.cls-7{fill:#ff266b;}.cls-8{isolation:isolate;opacity:0.33;fill:url(#radial-gradient);}.cls-9{opacity:0.09;}</style><radialGradient id="radial-gradient" cx="-549.544" cy="-362.658" r="23.1" gradientTransform="matrix(0.558, -0.83, -0.83, -0.558, 92.416, -580.669)" gradientUnits="userSpaceOnUse"><stop offset="0.531" stop-color="#cfedff"/><stop offset="1" stop-color="#ade1ff"/></radialGradient></defs><path class="cls-1" d="M114.985,119H41.948V40.383L62.88,19.451h52.105Z"/><polygon class="cls-2" points="62.983 40.466 41.948 61.501 41.948 40.38 52.423 29.905 62.983 40.466"/><polygon class="cls-3" points="62.879 40.383 41.947 40.383 62.879 19.451 62.879 40.383"/><path class="cls-4" d="M137.84,19.854h-2.418V.654a.6.6,0,0,0-.6-.6h-4.87a.6.6,0,0,0-.6.6v19.2h-2.419a.6.6,0,0,0-.47.982l5.457,8.138a.6.6,0,0,0,.94,0l5.458-8.138a.6.6,0,0,0-.471-.982Z"/><path class="cls-1" d="M153.019,11.92,149,.516a.6.6,0,0,0-.57-.4H147.26a.511.511,0,0,0-.1.008.5.5,0,0,0-.1-.008h-1.135a.6.6,0,0,0-.57.4l-4.008,11.4a.6.6,0,0,0,.57.8h1.743a.6.6,0,0,0,.577-.428l.765-2.513h4.354l.765,2.513a.6.6,0,0,0,.578.428h1.742a.6.6,0,0,0,.57-.8Zm-7.286-4.539c.724-2.345,1.214-3.974,1.455-4.842l1.488,4.842Z"/><path class="cls-1" d="M151.285,27.172h-5.379l5.715-8.213a.6.6,0,0,0,.107-.345V17.583a.6.6,0,0,0-.6-.6h-7.87a.6.6,0,0,0-.6.6v1.16a.6.6,0,0,0,.6.6h5.066l-5.722,8.2a.611.611,0,0,0-.108.346v1.039a.6.6,0,0,0,.6.6h8.192a.6.6,0,0,0,.6-.6v-1.16A.6.6,0,0,0,151.285,27.172Z"/><g class="cls-5"><path class="cls-3" d="M80.157,71.711l-1,.624a.515.515,0,0,1-.32.091.573.573,0,0,1-.281-.1l-.933-.765-2.116,1.319.277,1.175a.551.551,0,0,1-.031.287.5.5,0,0,1-.216.254l-1.008.628-1.316-6.906,1.322-.824Zm-3.377-.848-1.466-1.2c-.1-.073-.21-.161-.335-.265s-.257-.219-.4-.345q.088.269.147.508c.04.159.07.3.093.42l.433,1.834Z"/><path class="cls-3" d="M88.4,89.09l2.221.706-.838,2.638a3.467,3.467,0,0,1-1.185.185,4.263,4.263,0,0,1-1.185-.2,4.1,4.1,0,0,1-1.328-.689,3.406,3.406,0,0,1-.87-1.013,3.079,3.079,0,0,1-.373-1.233A3.432,3.432,0,0,1,85,88.133a3.62,3.62,0,0,1,.64-1.211,3.024,3.024,0,0,1,.983-.8,3.159,3.159,0,0,1,1.253-.33,3.965,3.965,0,0,1,1.44.2,4.136,4.136,0,0,1,.713.3,3.783,3.783,0,0,1,.577.377,3.035,3.035,0,0,1,.768.905l-.624.5a.421.421,0,0,1-.314.1A.475.475,0,0,1,90.121,88c-.092-.1-.181-.2-.267-.281a2.058,2.058,0,0,0-.585-.4,3.291,3.291,0,0,0-.387-.147,1.892,1.892,0,0,0-.779-.09,1.656,1.656,0,0,0-.685.229,1.937,1.937,0,0,0-.553.516,2.636,2.636,0,0,0-.384.777,2.766,2.766,0,0,0-.144.927,1.925,1.925,0,0,0,.181.776,1.741,1.741,0,0,0,.472.6,2.162,2.162,0,0,0,.73.385,2.039,2.039,0,0,0,.49.1,2.79,2.79,0,0,0,.457,0l.3-.948-.618-.2a.316.316,0,0,1-.191-.141.254.254,0,0,1-.019-.209Z"/><path class="cls-3" d="M78.288,80.871v4.916h-.594a.519.519,0,0,1-.221-.042A.528.528,0,0,1,77.3,85.6l-2.318-2.932c.009.088.015.173.019.255s0,.159,0,.231v2.635H74V80.871h.6a.89.89,0,0,1,.125.007.321.321,0,0,1,.091.025.307.307,0,0,1,.077.052.907.907,0,0,1,.085.092L77.313,84c-.011-.095-.019-.186-.024-.275s-.006-.173-.006-.251v-2.6Z"/><path class="cls-3" d="M87.877,68.026a3.412,3.412,0,0,1-.515.867,2.116,2.116,0,0,1-.681.551,1.863,1.863,0,0,1-.835.19,2.54,2.54,0,0,1-.977-.219,5.057,5.057,0,0,1-.456-.222,4.336,4.336,0,0,1-.444-.285l.419-.785a.288.288,0,0,1,.161-.138.337.337,0,0,1,.239.023.949.949,0,0,1,.165.1,1.248,1.248,0,0,0,.239.128,1.1,1.1,0,0,0,.378.093.591.591,0,0,0,.33-.08.966.966,0,0,0,.293-.279,2.469,2.469,0,0,0,.27-.5L88.1,63.583l1.4.591Z"/><path class="cls-3" d="M99.2,72.283a3.808,3.808,0,0,1,.814.883,2.29,2.29,0,0,1,.345.87,1.757,1.757,0,0,1-.065.826,2.328,2.328,0,0,1-.42.751,2.489,2.489,0,0,1-.694.594,1.8,1.8,0,0,1-.818.236,2.271,2.271,0,0,1-.924-.169,3.786,3.786,0,0,1-1.013-.622l-.611-.5L94.419,76.84l-1.175-.967,4.169-5.061Zm-2.045,2.483a1.115,1.115,0,0,0,.84.325,1.129,1.129,0,0,0,.7-.445,1.212,1.212,0,0,0,.208-.359.847.847,0,0,0,.044-.375.921.921,0,0,0-.138-.379,1.544,1.544,0,0,0-.338-.371l-.611-.5-1.322,1.605Z"/><path class="cls-3" d="M99.443,84.022a2.513,2.513,0,0,1-.174.942,2.3,2.3,0,0,1-.492.758,2.272,2.272,0,0,1-.764.5,2.783,2.783,0,0,1-1.985,0,2.223,2.223,0,0,1-1.26-1.262,2.623,2.623,0,0,1,0-1.884,2.25,2.25,0,0,1,.493-.756,2.3,2.3,0,0,1,.767-.5,2.624,2.624,0,0,1,.993-.182,2.578,2.578,0,0,1,.992.184,2.289,2.289,0,0,1,.764.505,2.258,2.258,0,0,1,.492.756A2.5,2.5,0,0,1,99.443,84.022Zm-1.108,0a2.015,2.015,0,0,0-.09-.623,1.32,1.32,0,0,0-.258-.469,1.11,1.11,0,0,0-.411-.3,1.43,1.43,0,0,0-.555-.1,1.447,1.447,0,0,0-.559.1,1.109,1.109,0,0,0-.413.3,1.32,1.32,0,0,0-.258.469,2.239,2.239,0,0,0,0,1.25,1.329,1.329,0,0,0,.258.469,1.093,1.093,0,0,0,.413.293,1.466,1.466,0,0,0,.559.1,1.449,1.449,0,0,0,.555-.1,1.094,1.094,0,0,0,.411-.293,1.329,1.329,0,0,0,.258-.469A2.028,2.028,0,0,0,98.335,84.022Z"/><path class="cls-3" d="M87.989,75.158a.7.7,0,0,1,.006.233.873.873,0,0,1-.065.228l-2.2,4.894,3.068-.584.219,1.15-4.969.945-.109-.574a.6.6,0,0,1,0-.208.74.74,0,0,1,.062-.2l2.209-4.91-2.918.556-.219-1.15,4.819-.917Z"/></g><rect class="cls-4" x="105.363" y="87.959" width="3.9" height="7.2" transform="translate(-28.543 129.537) rotate(-56.089)"/><rect class="cls-4" x="105.363" y="87.959" width="3.9" height="7.2" transform="translate(-28.543 129.537) rotate(-56.089)"/><path class="cls-6" d="M144.246,111.474a3.494,3.494,0,0,1,1.4,4.8l-.9,1.3a3.57,3.57,0,0,1-5,.6l-.8-.6-1.2-.9-.7-.5-1.2-.9-26.7-18.7a1.8,1.8,0,0,1-.6-2.3l2-2.9a1.688,1.688,0,0,1,2.3-.3l27.4,17.6,1.2.8.7.5,1.2.8Z"/><polygon class="cls-7" points="113.846 100.074 117.646 94.374 116.046 93.374 112.346 98.974 113.846 100.074"/><polygon class="cls-7" points="141.446 109.674 137.046 116.274 135.746 115.474 140.146 108.874 141.446 109.674"/><polygon class="cls-7" points="143.346 110.974 138.946 117.674 137.646 116.774 142.146 110.174 143.346 110.974"/><path class="cls-8" d="M104.846,89.874a21.758,21.758,0,1,1-5.9-30.2A21.822,21.822,0,0,1,104.846,89.874Z"/><g class="cls-9"><path d="M105.746,90.474a22.84,22.84,0,1,1-6.2-31.7A22.833,22.833,0,0,1,105.746,90.474Zm-35.2-23.7a19.664,19.664,0,1,0,27.3-5.3A19.829,19.829,0,0,0,70.546,66.774Z"/></g><path class="cls-4" d="M106.346,90.874a23.492,23.492,0,1,1-6.4-32.6A23.5,23.5,0,0,1,106.346,90.874Zm-36.3-24.4a20.247,20.247,0,1,0,28.1-5.5A20.27,20.27,0,0,0,70.046,66.474Z"/></svg>