<svg id="Warstwa_1" data-name="Warstwa 1" xmlns="http://www.w3.org/2000/svg" viewBox="0 0 175 119"><defs><style>.cls-1{fill:#ca1c59;}.cls-2{fill:#aa1a51;}.cls-3{fill:#aaa;}.cls-4{fill:#ea2880;}.cls-5{fill:#db2169;}.cls-6{fill:#b9ea24;}</style></defs><path class="cls-1" d="M125.343,18.358h0C124.009,8.379,104.958.466,81.641.466s-42.369,7.913-43.7,17.892h0l-.082,1.118v81.632h.082C39.272,111.085,58.326,119,81.641,119s42.368-7.915,43.7-17.892h.082V19.476l-.082-1.118Z"/><path class="cls-2" d="M37.857,72.034v1.118a8.348,8.348,0,0,1,.082-1.118Z"/><path class="cls-2" d="M125.343,72.034a8.517,8.517,0,0,1,.082,1.118V72.034Z"/><path class="cls-2" d="M81.641,92.162c-24.182,0-43.784-8.512-43.784-19.01v27.956h.082C39.272,111.085,58.326,119,81.641,119s42.368-7.915,43.7-17.892h.082V73.152C125.425,83.65,105.822,92.162,81.641,92.162Z"/><path class="cls-1" d="M81.641,65.324c-24.182,0-43.784-8.512-43.784-19.01V74.27h.082c1.333,9.977,20.387,17.892,43.7,17.892s42.368-7.915,43.7-17.892h.082V46.314C125.425,56.812,105.822,65.324,81.641,65.324Z"/><path class="cls-3" d="M37.857,45.2v1.118a8.361,8.361,0,0,1,.082-1.118Z"/><path class="cls-3" d="M125.343,45.2a8.53,8.53,0,0,1,.082,1.118V45.2Z"/><ellipse class="cls-4" cx="81.641" cy="19.476" rx="43.784" ry="19.01"/><path class="cls-5" d="M81.641,38.487c-24.182,0-43.784-8.512-43.784-19.011V47.433h.082c1.333,9.976,20.387,17.891,43.7,17.891s42.368-7.915,43.7-17.891h.082V19.476C125.425,29.975,105.822,38.487,81.641,38.487Z"/><polygon class="cls-6" points="137.143 11.253 126.356 11.253 126.356 0.466 115.683 0.466 115.683 11.253 104.895 11.253 104.895 21.927 115.683 21.927 115.683 32.714 126.356 32.714 126.356 21.927 137.143 21.927 137.143 11.253"/></svg>