<svg id="Warstwa_1" data-name="Warstwa 1" xmlns="http://www.w3.org/2000/svg" viewBox="0 0 175 119"><defs><style>.cls-1{fill:#ffcc5a;}.cls-2{fill:#50acff;}.cls-3{fill:#f0f4f6;}</style></defs><path class="cls-1" d="M105.49,51.435l-3.684,6.382L74.2,105.634A15.164,15.164,0,0,1,47.934,90.47L93.511,11.527A2.894,2.894,0,1,0,88.5,8.633L42.921,87.575a20.953,20.953,0,0,0,36.291,20.953l27.607-47.816,3.309-5.733A18.741,18.741,0,0,1,105.49,51.435Z"/><path class="cls-1" d="M122.874,2.779a15.084,15.084,0,0,0-20.59,5.54L53.028,93.633a9.011,9.011,0,1,0,15.607,9.01l22.231-38.5a2.894,2.894,0,0,0-5.013-2.895l-22.231,38.5a3.222,3.222,0,0,1-5.581-3.222l49.272-85.341a9.267,9.267,0,0,1,16.236,8.932,18.67,18.67,0,0,1,5.343,2.232A15.063,15.063,0,0,0,122.874,2.779Z"/><circle class="cls-2" cx="119.039" cy="38.386" r="15.843"/><rect class="cls-3" x="111.715" y="32.815" width="8.091" height="1.692"/><rect class="cls-3" x="111.715" y="36.008" width="14.648" height="1.692"/><rect class="cls-3" x="111.715" y="39.072" width="14.648" height="1.692"/><rect class="cls-3" x="111.715" y="42.265" width="14.648" height="1.692"/></svg>