<svg id="Warstwa_1" data-name="Warstwa 1" xmlns="http://www.w3.org/2000/svg" viewBox="0 0 175 119"><defs><style>.cls-1{fill:#ffcc5a;}.cls-2{fill:#2cd7ff;}</style></defs><path class="cls-1" d="M129.632,23.353a15.061,15.061,0,1,0-26.1-15.034L54.273,93.633a9.011,9.011,0,1,0,15.607,9.01l22.231-38.5A2.894,2.894,0,0,0,87.1,61.244l-22.231,38.5a3.222,3.222,0,0,1-5.581-3.222l49.272-85.341a9.273,9.273,0,1,1,16.061,9.273l-.515.893,4.11,4.458Z"/><path class="cls-1" d="M103.05,57.817,75.444,105.634A15.164,15.164,0,0,1,49.179,90.47l26.152-45.3,0,0L91.575,17.038l3.181-5.511a2.894,2.894,0,1,0-5.013-2.894l-3.075,5.326-.931,1.612-1.316,2.28-.481.832h0l-11.719,20.3L70.9,41.265,44.166,87.575a20.953,20.953,0,0,0,36.291,20.953l27.607-47.816,5.134-8.893V40.242Z"/><path class="cls-2" d="M126.642,28.532l-4.11-4.458L120.157,21.5,106.833,36.115l.011.026H116.2v18.09l.007.007h8.071l.006-.006V36.141h9.345l.01-.023Z"/></svg>