<svg id="Warstwa_1" data-name="Warstwa 1" xmlns="http://www.w3.org/2000/svg" viewBox="0 0 175 119"><defs><style>.cls-1{fill:#ffcc5a;}</style></defs><path class="cls-1" d="M125.114,2.779a15.084,15.084,0,0,0-20.59,5.54L55.268,93.633a9.011,9.011,0,1,0,15.607,9.01l22.231-38.5a2.894,2.894,0,0,0-5.013-2.895l-22.231,38.5a3.222,3.222,0,0,1-5.581-3.222l49.272-85.341a9.273,9.273,0,1,1,16.061,9.273L104.045,57.817,76.439,105.634A15.164,15.164,0,0,1,50.174,90.47L95.751,11.527a2.894,2.894,0,1,0-5.013-2.894L45.161,87.575a20.953,20.953,0,0,0,36.291,20.953l27.606-47.816,21.569-37.359A15.077,15.077,0,0,0,125.114,2.779Z"/></svg>