<?xml version="1.0" encoding="utf-8"?>
<!-- Generator: Adobe Illustrator 27.6.1, SVG Export Plug-In . SVG Version: 6.00 Build 0)  -->
<svg version="1.1" id="Layer_1" xmlns="http://www.w3.org/2000/svg" xmlns:xlink="http://www.w3.org/1999/xlink" x="0px" y="0px"
	 viewBox="0 0 209.9 42.7" style="enable-background:new 0 0 209.9 42.7;" xml:space="preserve">
<style type="text/css">
	.st0{fill:#F0F4F6;}
	.st1{fill:#388EE9;}
	.st2{fill:url(#SVGID_1_);fill-opacity:0.1;}
	.st3{fill-rule:evenodd;clip-rule:evenodd;fill:url(#SVGID_00000078726082321776359050000010762437544060106912_);}
</style>
<g>
	<path class="st0" d="M145.1,23c0,1.3-0.2,2.6-0.7,3.8c-0.9,2.2-2.6,4-4.9,4.9c-1.2,0.5-2.5,0.7-3.9,0.7h-7.1V13.6h7.1
		c1.3,0,2.6,0.2,3.9,0.7c1.1,0.4,2.1,1.1,3,1.9c0.8,0.8,1.5,1.8,1.9,2.9C144.9,20.4,145.2,21.7,145.1,23z M141.6,23
		c0-0.9-0.1-1.9-0.4-2.8c-0.2-0.8-0.6-1.5-1.2-2.1c-0.5-0.6-1.1-1-1.9-1.3c-0.8-0.3-1.6-0.5-2.5-0.5h-3.6v13.1h3.6
		c0.8,0,1.7-0.1,2.5-0.5c0.7-0.3,1.3-0.7,1.9-1.3c0.5-0.6,0.9-1.3,1.2-2.1C141.5,24.8,141.6,23.9,141.6,23z"/>
	<path class="st0" d="M151.7,16.4v5.2h6.5v2.7h-6.5v5.3h8.3v2.8h-11.8V13.6h11.8v2.8H151.7z"/>
	<path class="st0" d="M183.2,13.6v18.6h-3.1v-12c0-0.5,0-1,0.1-1.6l-5.6,10.6c-0.2,0.5-0.7,0.8-1.2,0.8h-0.5c-0.5,0-1-0.3-1.2-0.8
		L166,18.6c0,0.3,0,0.6,0.1,0.8c0,0.3,0,0.5,0,0.8v12H163V13.6h2.6c0.2,0,0.3,0,0.4,0c0.1,0,0.2,0,0.3,0.1c0.1,0,0.2,0.1,0.2,0.2
		c0.1,0.1,0.2,0.2,0.2,0.3l5.6,10.3c0.1,0.3,0.3,0.6,0.4,0.9c0.1,0.3,0.2,0.6,0.4,0.9c0.1-0.3,0.2-0.6,0.4-0.9
		c0.1-0.3,0.3-0.6,0.4-0.9l5.5-10.3c0.1-0.1,0.1-0.2,0.2-0.3c0.1-0.1,0.2-0.1,0.3-0.2c0.1,0,0.2-0.1,0.3-0.1c0.1,0,0.2,0,0.4,0
		L183.2,13.6z"/>
	<path class="st0" d="M205.1,23c0,1.3-0.2,2.6-0.7,3.8c-0.4,1.1-1.1,2.2-1.9,3c-0.8,0.9-1.9,1.5-3,2c-2.5,1-5.2,1-7.7,0
		c-1.1-0.5-2.1-1.1-3-2c-0.8-0.9-1.5-1.9-1.9-3c-0.9-2.4-0.9-5.1,0-7.6c0.4-1.1,1.1-2.2,1.9-3c0.8-0.9,1.9-1.5,3-2
		c1.2-0.5,2.5-0.7,3.9-0.7c0.9,0,1.8,0.1,2.7,0.3c0.8,0.2,1.6,0.5,2.3,0.9c0.7,0.4,1.3,0.9,1.9,1.5c0.6,0.6,1,1.2,1.4,1.9
		c0.4,0.7,0.7,1.5,0.9,2.3C205,21.2,205.1,22.1,205.1,23z M201.6,23c0-0.9-0.1-1.9-0.4-2.8c-0.2-0.8-0.6-1.5-1.2-2.1
		c-0.5-0.6-1.1-1-1.8-1.3c-1.6-0.6-3.3-0.6-4.9,0c-0.7,0.3-1.3,0.7-1.9,1.3c-0.5,0.6-0.9,1.3-1.2,2.1c-0.3,0.9-0.4,1.8-0.4,2.8
		c0,0.9,0.1,1.9,0.4,2.8c0.2,0.8,0.6,1.5,1.2,2.1c0.5,0.6,1.1,1,1.9,1.3c1.6,0.6,3.3,0.6,4.9,0c0.7-0.3,1.3-0.7,1.8-1.3
		c0.5-0.6,0.9-1.3,1.2-2.1C201.5,24.8,201.6,23.9,201.6,23z"/>
	<g>
		<path class="st1" d="M9.6,14.9l-2.8-0.4l0,0.3c0.1,0.6,0.6,1.1,1.2,1.1h0C8.9,16,9.6,15.6,9.6,14.9z"/>
		<path class="st1" d="M19.2,23.4c2.9-0.8,5-3.6,5-6.6c0-3.8-3.1-6.9-6.9-6.9H4.8v2.6c2.5-0.8,5.6,0.3,6.9,1.9c0,0,6.4-0.6,7.3,3.6
			c0,0-6.1-2.6-9.4,2.2c-0.8,1.1-1,2.5-1.5,4.2c-0.9,3.1-1.4,5.5-2.7,7.9h4.4l1.6-7.3h2.5l4.3,7.3h5.6l-5.2-8.7L19.2,23.4L19.2,23.4
			z"/>
		
			<linearGradient id="SVGID_1_" gradientUnits="userSpaceOnUse" x1="15.2428" y1="965.48" x2="6.9331" y2="979.7532" gradientTransform="matrix(1 0 0 1 0 -948)">
			<stop  offset="0" style="stop-color:#000000"/>
			<stop  offset="1" style="stop-color:#000000;stop-opacity:0"/>
		</linearGradient>
		<path class="st2" d="M5.5,32.2c2.2-2.5,3.1-4.1,3.8-6.5c0.1-0.3,0.2-0.6,0.2-0.9c0.2-1,0.5-2.1,1.1-3.1c2-3,5.2-3.6,8.4-3.6
			c-0.3-0.1-6.1-2.5-9.4,2.2c-0.6,0.8-0.9,1.9-1.2,3C8.3,23.6,8.2,24,8,24.5c-0.2,0.6-0.3,1.2-0.5,1.7C7,28.4,6.4,30.3,5.5,32.2z"/>
		
			<linearGradient id="SVGID_00000020390477331952376170000003494186113670563508_" gradientUnits="userSpaceOnUse" x1="28.8678" y1="965.0498" x2="120.4445" y2="978.2721" gradientTransform="matrix(1 0 0 1 0 -948)">
			<stop  offset="0" style="stop-color:#388EE9"/>
			<stop  offset="1" style="stop-color:#1CC8EE"/>
		</linearGradient>
		<path style="fill-rule:evenodd;clip-rule:evenodd;fill:url(#SVGID_00000020390477331952376170000003494186113670563508_);" d="
			M91,32.4V13.9H97c1.8,0,3.4,0.3,4.7,1c1.4,0.7,2.5,1.7,3.2,3.1c0.8,1.4,1.1,3,1.1,4.9c0,1.9-0.4,3.7-1.1,5.1
			c-0.8,1.4-1.9,2.5-3.3,3.2c-1.4,0.7-3.1,1.1-5.1,1.1H91z M100.6,27.3c0.9-0.8,1.4-2.2,1.4-4.2c0-1.4-0.2-2.4-0.6-3.1l0,0l0,0
			c-0.4-0.8-0.9-1.3-1.7-1.7l0,0l0,0c-0.8-0.4-1.7-0.6-2.9-0.6H95v11h1.3C98.3,28.6,99.7,28.1,100.6,27.3z M119.7,22.6
			c0.6,0.4,1.1,0.9,1.5,1.5c0.4,0.7,0.6,1.6,0.6,2.6c0,1.1-0.3,2.2-0.8,3.1l0,0l0,0c-0.6,0.9-1.4,1.5-2.4,1.9l0,0l0,0
			c-1,0.4-2.2,0.6-3.4,0.6h-6.8V13.9h5.7c1.4,0,2.7,0.1,3.7,0.4c1.1,0.3,2,0.8,2.6,1.7c0.6,0.8,0.9,1.9,0.9,3c0,0.8-0.1,1.5-0.5,2.2
			C120.5,21.7,120.2,22.2,119.7,22.6z M112.4,28.6h2.3c1.4,0,2.1-0.3,2.4-0.6c0.3-0.3,0.6-0.8,0.6-1.6c0-0.4-0.1-0.8-0.3-1l0,0l0,0
			c-0.1-0.2-0.3-0.4-0.8-0.6l0,0l0,0c-0.4-0.2-1.1-0.3-2-0.3h-2.2V28.6z M116.7,20.5c0.3-0.2,0.5-0.6,0.5-1.3c0-0.6-0.2-0.9-0.5-1.1
			l0,0l0,0c-0.4-0.3-1.2-0.5-2.5-0.5h-1.7v3.3h2.1C115.8,20.9,116.5,20.7,116.7,20.5z M34.9,30.5L34.9,30.5l0,1.9h4.2v-7.6
			c0-1.3-0.1-2.3-0.3-3.3c-0.2-1-0.6-1.8-1.1-2.4c-0.5-0.6-1.2-1.1-2.1-1.5s-1.9-0.5-3.3-0.5c-1.2,0-2.4,0.2-3.6,0.6
			c-1.1,0.4-2.2,1-3,1.8l2.5,2.5c0.5-0.6,1.1-1,1.7-1.3c0.6-0.3,1.3-0.5,2.1-0.5c0.8,0,1.5,0.3,2.1,0.7c0.6,0.5,0.9,1.1,0.9,1.9
			c-0.6,0-1.3,0-2.1,0c-0.7,0-1.5,0.1-2.2,0.2c-0.7,0.1-1.4,0.3-2.2,0.5c-0.7,0.2-1.3,0.5-1.9,0.9c-0.6,0.4-1,0.9-1.3,1.5
			c-0.3,0.6-0.5,1.3-0.5,2.2c0,0.8,0.1,1.4,0.4,2c0.3,0.6,0.7,1.1,1.2,1.4s1.1,0.7,1.7,0.8c0.6,0.2,1.3,0.3,2,0.3
			c0.9,0,1.8-0.2,2.7-0.5C33.6,31.9,34.4,31.3,34.9,30.5z M33.8,25.8c-0.3,0-0.8,0-1.3,0c-0.5,0-1,0.1-1.5,0.3
			c-0.5,0.1-0.9,0.3-1.2,0.6s-0.5,0.7-0.5,1.2c0,0.6,0.3,1,0.7,1.2c0.5,0.3,1,0.4,1.5,0.4c0.5,0,0.9,0,1.3-0.2
			c0.4-0.1,0.8-0.3,1.1-0.5c0.3-0.2,0.6-0.5,0.8-0.8c0.2-0.3,0.3-0.8,0.3-1.2v-1H33.8z M68.4,31.9c1.1-0.5,2.1-1.2,2.8-2.2L68,27.4
			c-0.4,0.6-0.8,1-1.4,1.3c-0.5,0.3-1.1,0.5-1.9,0.5c-0.9,0-1.7-0.3-2.3-0.8c-0.6-0.6-1-1.2-1.2-2.1h10.7v-1.4
			c0-1.2-0.2-2.2-0.5-3.2c-0.3-1-0.8-1.8-1.4-2.5s-1.3-1.2-2.2-1.6C66.9,17.2,66,17,64.9,17c-1.1,0-2.2,0.2-3.3,0.6
			s-1.9,0.9-2.6,1.6c-0.7,0.7-1.3,1.5-1.7,2.5c-0.4,1-0.6,2-0.6,3.2c0,1.2,0.2,2.2,0.6,3.2c0.4,1,1,1.8,1.7,2.5
			c0.8,0.7,1.7,1.2,2.6,1.6c1,0.4,2.1,0.6,3.3,0.6C66.1,32.7,67.3,32.5,68.4,31.9z M66.5,21.2c0.6,0.6,0.8,1.2,0.8,2h-6.1
			c0-0.4,0.1-0.7,0.3-1.1c0.2-0.3,0.4-0.6,0.6-0.9c0.3-0.3,0.6-0.5,1-0.6c0.4-0.2,0.8-0.3,1.4-0.3C65.3,20.4,66,20.6,66.5,21.2z
			 M74.2,17.4h4.4v2h0c0.1-0.3,0.3-0.6,0.6-0.8c0.3-0.3,0.6-0.6,0.9-0.8c0.4-0.2,0.8-0.4,1.3-0.6c0.5-0.1,1-0.2,1.5-0.2
			c1.2,0,2.1,0.2,2.8,0.6c0.7,0.3,1.3,0.8,1.7,1.5c0.4,0.6,0.7,1.4,0.8,2.2c0.1,0.8,0.2,1.8,0.2,2.8v8.2h-4.6V25c0-0.4,0-0.9,0-1.3
			c0-0.5-0.1-0.9-0.3-1.3c-0.1-0.4-0.4-0.7-0.7-0.9c-0.3-0.3-0.8-0.4-1.4-0.4s-1.1,0.1-1.4,0.3s-0.6,0.5-0.8,0.8
			c-0.2,0.3-0.3,0.8-0.4,1.2c0,0.5-0.1,0.9-0.1,1.4v7.4h-4.6L74.2,17.4L74.2,17.4z M39.5,17.4h5l3.8,10.1h0l3.5-10.1h4.6l-5.9,14.9
			h-4.9L39.5,17.4z"/>
	</g>
</g>
</svg>
