<?xml version="1.0" encoding="utf-8"?>
<!-- Generator: Adobe Illustrator 27.7.0, SVG Export Plug-In . SVG Version: 6.00 Build 0)  -->
<svg version="1.1" id="Layer_1" xmlns="http://www.w3.org/2000/svg" xmlns:xlink="http://www.w3.org/1999/xlink" x="0px" y="0px"
	 viewBox="0 0 209.9 42.7" style="enable-background:new 0 0 209.9 42.7;" xml:space="preserve">
<style type="text/css">
	.st0{fill:#F0F4F6;}
	.st1{fill:#388EE9;}
	.st2{fill-rule:evenodd;clip-rule:evenodd;fill:#388EE9;}
</style>
<g>
	<path class="st0" d="M145.1,23c0,1.3-0.2,2.6-0.7,3.8c-0.9,2.2-2.6,4-4.9,4.9c-1.2,0.5-2.5,0.7-3.9,0.7h-7.1V13.6h7.1
		c1.3,0,2.6,0.2,3.9,0.7c1.1,0.4,2.1,1.1,3,1.9c0.8,0.8,1.5,1.8,1.9,2.9C144.9,20.4,145.2,21.7,145.1,23z M141.6,23
		c0-0.9-0.1-1.9-0.4-2.8c-0.2-0.8-0.6-1.5-1.2-2.1c-0.5-0.6-1.1-1-1.9-1.3c-0.8-0.3-1.6-0.5-2.5-0.5H132v13.1h3.6
		c0.8,0,1.7-0.1,2.5-0.5c0.7-0.3,1.3-0.7,1.9-1.3c0.5-0.6,0.9-1.3,1.2-2.1C141.5,24.8,141.6,23.9,141.6,23z"/>
	<path class="st0" d="M151.7,16.4v5.2h6.5v2.7h-6.5v5.3h8.3v2.8h-11.8V13.6H160v2.8H151.7z"/>
	<path class="st0" d="M183.2,13.6v18.6h-3.1v-12c0-0.5,0-1,0.1-1.6l-5.6,10.6c-0.2,0.5-0.7,0.8-1.2,0.8h-0.5c-0.5,0-1-0.3-1.2-0.8
		L166,18.6c0,0.3,0,0.6,0.1,0.8c0,0.3,0,0.5,0,0.8v12H163V13.6h2.6c0.2,0,0.3,0,0.4,0c0.1,0,0.2,0,0.3,0.1c0.1,0,0.2,0.1,0.2,0.2
		c0.1,0.1,0.2,0.2,0.2,0.3l5.6,10.3c0.1,0.3,0.3,0.6,0.4,0.9c0.1,0.3,0.2,0.6,0.4,0.9c0.1-0.3,0.2-0.6,0.4-0.9
		c0.1-0.3,0.3-0.6,0.4-0.9l5.5-10.3c0.1-0.1,0.1-0.2,0.2-0.3c0.1-0.1,0.2-0.1,0.3-0.2c0.1,0,0.2-0.1,0.3-0.1s0.2,0,0.4,0L183.2,13.6
		z"/>
	<path class="st0" d="M205.1,23c0,1.3-0.2,2.6-0.7,3.8c-0.4,1.1-1.1,2.2-1.9,3c-0.8,0.9-1.9,1.5-3,2c-2.5,1-5.2,1-7.7,0
		c-1.1-0.5-2.1-1.1-3-2c-0.8-0.9-1.5-1.9-1.9-3c-0.9-2.4-0.9-5.1,0-7.6c0.4-1.1,1.1-2.2,1.9-3c0.8-0.9,1.9-1.5,3-2
		c1.2-0.5,2.5-0.7,3.9-0.7c0.9,0,1.8,0.1,2.7,0.3c0.8,0.2,1.6,0.5,2.3,0.9s1.3,0.9,1.9,1.5c0.6,0.6,1,1.2,1.4,1.9
		c0.4,0.7,0.7,1.5,0.9,2.3C205,21.2,205.1,22.1,205.1,23z M201.6,23c0-0.9-0.1-1.9-0.4-2.8c-0.2-0.8-0.6-1.5-1.2-2.1
		c-0.5-0.6-1.1-1-1.8-1.3c-1.6-0.6-3.3-0.6-4.9,0c-0.7,0.3-1.3,0.7-1.9,1.3c-0.5,0.6-0.9,1.3-1.2,2.1c-0.3,0.9-0.4,1.8-0.4,2.8
		c0,0.9,0.1,1.9,0.4,2.8c0.2,0.8,0.6,1.5,1.2,2.1c0.5,0.6,1.1,1,1.9,1.3c1.6,0.6,3.3,0.6,4.9,0c0.7-0.3,1.3-0.7,1.8-1.3
		c0.5-0.6,0.9-1.3,1.2-2.1C201.5,24.8,201.6,23.9,201.6,23z"/>
	<g>
		<path class="st1" d="M9.7,14.7l-2.7-0.4l0,0.3c0.1,0.6,0.6,1.1,1.2,1.1h0C8.9,15.8,9.6,15.3,9.7,14.7z"/>
		<path class="st1" d="M19.3,23.2c2.9-0.8,5-3.6,5-6.6c0-3.8-3.1-6.9-6.9-6.9H4.8v2.6c2.5-0.8,5.6,0.3,6.9,1.9c0,0,6.4-0.5,7.3,3.6
			c0,0-6.1-2.6-9.4,2.2c-0.8,1.1-1,2.5-1.5,4.2c-0.9,3.1-1.4,5.5-2.7,7.9h4.4l1.6-7.3h2.5l4.3,7.3h5.6l-5.2-8.7L19.3,23.2L19.3,23.2
			z"/>
		<path class="st2" d="M91,32.1V13.7h6c1.8,0,3.4,0.3,4.7,1c1.4,0.7,2.5,1.7,3.2,3.1c0.8,1.4,1.1,3,1.1,4.9c0,1.9-0.4,3.7-1.1,5.1
			c-0.8,1.4-1.9,2.5-3.3,3.2c-1.4,0.7-3.1,1.1-5.1,1.1H91z M100.6,27.1c0.9-0.8,1.4-2.2,1.4-4.2c0-1.4-0.2-2.4-0.6-3.1l0,0l0,0
			c-0.4-0.8-0.9-1.3-1.6-1.6l0,0l0,0c-0.8-0.4-1.7-0.6-2.9-0.6H95v11h1.3C98.3,28.4,99.7,27.9,100.6,27.1z M119.6,22.4
			c0.6,0.4,1.1,0.9,1.5,1.5c0.4,0.7,0.6,1.6,0.6,2.6c0,1.1-0.3,2.2-0.8,3.1l0,0l0,0c-0.6,0.9-1.4,1.5-2.4,1.9l0,0l0,0
			c-1,0.4-2.2,0.6-3.4,0.6h-6.8V13.7h5.7c1.4,0,2.7,0.1,3.7,0.4c1.1,0.3,2,0.8,2.6,1.6c0.6,0.8,0.9,1.9,0.9,3c0,0.8-0.1,1.5-0.5,2.2
			C120.5,21.5,120.2,22,119.6,22.4z M112.4,28.4h2.3c1.4,0,2.1-0.3,2.4-0.5c0.3-0.3,0.5-0.8,0.5-1.6c0-0.4-0.1-0.8-0.3-1l0,0l0,0
			c-0.1-0.2-0.3-0.4-0.8-0.5l0,0l0,0c-0.4-0.2-1.1-0.3-2-0.3h-2.2V28.4z M116.7,20.3c0.3-0.2,0.5-0.6,0.5-1.3c0-0.6-0.2-0.9-0.5-1.1
			l0,0l0,0c-0.4-0.3-1.2-0.5-2.5-0.5h-1.7v3.3h2.1C115.8,20.7,116.5,20.5,116.7,20.3z M34.9,30.3L34.9,30.3l0,1.9h4.2v-7.6
			c0-1.3-0.1-2.3-0.3-3.3c-0.2-1-0.6-1.8-1.1-2.4c-0.5-0.6-1.2-1.1-2.1-1.5c-0.8-0.3-1.9-0.5-3.3-0.5c-1.2,0-2.4,0.2-3.6,0.6
			c-1.1,0.4-2.2,1-3,1.8l2.5,2.5c0.5-0.5,1.1-1,1.6-1.3c0.6-0.3,1.3-0.5,2.1-0.5c0.8,0,1.5,0.3,2.1,0.7c0.6,0.5,0.9,1.1,0.9,1.9
			c-0.6,0-1.3,0-2.1,0c-0.7,0-1.5,0.1-2.2,0.2c-0.7,0.1-1.4,0.3-2.2,0.5c-0.7,0.2-1.3,0.5-1.9,0.9c-0.5,0.4-1,0.9-1.3,1.5
			c-0.3,0.6-0.5,1.3-0.5,2.2c0,0.8,0.1,1.4,0.4,2c0.3,0.6,0.7,1.1,1.2,1.4s1.1,0.7,1.7,0.8c0.6,0.2,1.3,0.3,2,0.3
			c0.9,0,1.8-0.2,2.7-0.5C33.6,31.6,34.4,31.1,34.9,30.3z M33.8,25.6c-0.3,0-0.8,0-1.3,0c-0.5,0-1,0.1-1.5,0.3
			c-0.5,0.1-0.9,0.3-1.2,0.6c-0.3,0.3-0.5,0.7-0.5,1.2c0,0.5,0.3,1,0.7,1.2c0.5,0.3,1,0.4,1.5,0.4c0.5,0,0.9,0,1.3-0.2
			c0.4-0.1,0.8-0.3,1.1-0.5s0.6-0.5,0.8-0.8c0.2-0.3,0.3-0.8,0.3-1.2v-1H33.8z M68.4,31.7c1.1-0.5,2.1-1.2,2.8-2.2L68,27.1
			c-0.4,0.5-0.8,1-1.4,1.3c-0.5,0.3-1.1,0.5-1.9,0.5c-0.9,0-1.6-0.3-2.3-0.8c-0.6-0.5-1-1.2-1.2-2.1h10.7v-1.4
			c0-1.2-0.2-2.2-0.5-3.2c-0.3-1-0.8-1.8-1.4-2.5c-0.6-0.7-1.3-1.2-2.2-1.6c-0.8-0.4-1.8-0.5-2.9-0.5c-1.1,0-2.2,0.2-3.3,0.5
			c-1,0.4-1.9,0.9-2.6,1.6c-0.7,0.7-1.3,1.5-1.7,2.5c-0.4,1-0.6,2-0.6,3.2c0,1.2,0.2,2.2,0.6,3.2c0.4,1,1,1.8,1.7,2.5
			c0.8,0.7,1.6,1.2,2.6,1.6c1,0.4,2.1,0.5,3.3,0.5C66.1,32.5,67.3,32.3,68.4,31.7z M66.5,21c0.5,0.5,0.8,1.2,0.8,2h-6.1
			c0-0.4,0.1-0.7,0.3-1.1c0.2-0.3,0.4-0.6,0.6-0.9c0.3-0.3,0.6-0.5,1-0.6c0.4-0.2,0.8-0.3,1.4-0.3C65.3,20.2,66,20.4,66.5,21z
			 M74.2,17.2h4.4v2h0c0.1-0.3,0.3-0.6,0.6-0.8c0.3-0.3,0.6-0.5,0.9-0.8c0.4-0.2,0.8-0.4,1.3-0.5s1-0.2,1.5-0.2
			c1.2,0,2.1,0.2,2.8,0.5c0.7,0.3,1.3,0.8,1.6,1.5c0.4,0.6,0.7,1.4,0.8,2.2c0.1,0.8,0.2,1.8,0.2,2.8v8.2h-4.6v-7.3
			c0-0.4,0-0.9,0-1.3c0-0.5-0.1-0.9-0.3-1.3c-0.1-0.4-0.4-0.7-0.7-0.9c-0.3-0.3-0.8-0.4-1.4-0.4c-0.6,0-1.1,0.1-1.4,0.3
			c-0.4,0.2-0.6,0.5-0.8,0.8c-0.2,0.3-0.3,0.8-0.4,1.2c0,0.5-0.1,0.9-0.1,1.4v7.4h-4.6L74.2,17.2L74.2,17.2z M39.5,17.2h4.9
			l3.8,10.1h0l3.5-10.1h4.6l-5.9,14.9h-4.9L39.5,17.2z"/>
	</g>
</g>
</svg>
