<svg id="Layer_1" data-name="Layer 1" xmlns="http://www.w3.org/2000/svg" viewBox="0 0 209.911 42.681"><defs><style>.cls-1{fill:#d7325a;}.cls-2{fill:#f0f4f6;}</style></defs><title>Artboard 13</title><rect class="cls-1" x="35.182" y="4.869" width="1.499" height="1.598"/><rect class="cls-1" x="35.425" y="7.648" width="1.433" height="1.527"/><rect class="cls-1" x="40.356" y="8.377" width="1.606" height="1.713"/><rect class="cls-1" x="24.024" y="5.626" width="1.09" height="1.164"/><rect class="cls-1" x="27.562" y="5.572" width="1.2" height="1.28"/><polygon class="cls-1" points="39.783 6.587 41.335 6.587 41.335 4.655 39.524 4.655 39.524 5.471 38.198 5.471 38.198 7.162 39.783 7.162 39.783 6.587"/><rect class="cls-1" x="22.379" y="2.887" width="0.91" height="0.972"/><rect class="cls-1" x="42.437" y="11.175" width="1.484" height="1.585"/><rect class="cls-1" x="37.764" y="10.28" width="1.29" height="1.377"/><rect class="cls-1" x="32.771" y="4.089" width="1.217" height="1.299"/><rect class="cls-1" x="31.587" y="6.43" width="1.371" height="1.463"/><rect class="cls-1" x="44.105" y="9.003" width="0.914" height="0.976"/><rect class="cls-1" x="28.794" y="7.937" width="0.859" height="0.917"/><polygon class="cls-1" points="38.14 3.634 38.14 2.716 37.435 2.716 37.435 1.837 36.394 1.837 36.394 2.948 37.281 2.948 37.281 3.634 38.14 3.634"/><rect class="cls-1" x="30.113" y="3.903" width="0.86" height="0.917"/><rect class="cls-1" x="18.019" y="1.35" width="0.859" height="0.917"/><rect class="cls-1" x="33.379" y="9.696" width="0.859" height="0.917"/><rect class="cls-1" x="26.641" y="1.784" width="0.967" height="1.032"/><rect class="cls-1" x="32.095" y="1.202" width="0.86" height="0.917"/><path class="cls-1" d="M41.49,3.188v.55h1.189V5.53h1.427v.9H42.457V8.269h1.728V7.044h.433v.624h1.009V9.6h.725v1.757h-.473v.59H45.49A41.386,41.386,0,0,1,46.913,18.8c.842-1.608,4.9-17.379-11.255-18.68a22.25,22.25,0,0,1,4.68,3.069Z"/><path class="cls-1" d="M137.032,23.515a4.328,4.328,0,0,0-.549-1.2c-.061-.087-.128-.157-.193-.235h.015c-.02-.024-.045-.038-.066-.062a3.041,3.041,0,0,0-.532-.5,2.929,2.929,0,0,0-.9-.431,5.186,5.186,0,0,0,.668-.409,3.539,3.539,0,0,0,.678-.635,3.282,3.282,0,0,0,.517-.915,4.6,4.6,0,0,0,.157-2.147,2.97,2.97,0,0,0-.234-.768,3.231,3.231,0,0,0-1.043-1.328,6.466,6.466,0,0,0-2.1-1.055,10.329,10.329,0,0,0-3.1-.409h-11.63v6.062h-1.187v3.629h1.187v6.461h12.038a8.992,8.992,0,0,0,2.584-.356,7.225,7.225,0,0,0,2.057-.959,3.953,3.953,0,0,0,1.357-1.42A5.025,5.025,0,0,0,137.032,23.515ZM123.475,16.7h6.138a2.985,2.985,0,0,1,.861.128,3.453,3.453,0,0,1,.786.345,2.055,2.055,0,0,1,.571.5.919.919,0,0,1,.216.56.944.944,0,0,1-.216.581,2.2,2.2,0,0,1-.571.506,3.413,3.413,0,0,1-.786.366,2.751,2.751,0,0,1-.861.14h-6.138Zm9.1,8.6a1.875,1.875,0,0,1-.582.517,3.266,3.266,0,0,1-.883.356,4.389,4.389,0,0,1-1.087.129h-6.547V23.1h6.547a3.759,3.759,0,0,1,1.97.474,1.353,1.353,0,0,1,.787,1.142A1.011,1.011,0,0,1,132.574,25.3Z"/><path class="cls-1" d="M113.856,15.838a9.539,9.539,0,0,0-3.015-1.744A11.044,11.044,0,0,0,107,13.448H97.365v3.637h1.147V29.578h8.054a12.068,12.068,0,0,0,3.92-.625,10,10,0,0,0,3.165-1.724,8.336,8.336,0,0,0,2.111-2.562,6.575,6.575,0,0,0,.742-2.582h.008c.015-.185.026-.372.026-.562a7.074,7.074,0,0,0-.711-3.111A7.977,7.977,0,0,0,113.856,15.838Zm-1.777,7.656a5.128,5.128,0,0,1-1.324,1.55,6.287,6.287,0,0,1-1.917,1.023,7.046,7.046,0,0,1-2.272.366h-3.683V22.085h0V16.72h3.682a9.127,9.127,0,0,1,2.272.593,8,8,0,0,1,1.917,1.088,5.547,5.547,0,0,1,1.324,1.442,3.21,3.21,0,0,1,.465,1.244,3.014,3.014,0,0,1,.031.436,4.312,4.312,0,0,1-.038.562h0A3.918,3.918,0,0,1,112.079,23.494Z"/><path class="cls-1" d="M52.429,19.056c-.17.152-.339.3-.508.447-.079.067-.158.126-.238.191-.156.127-.313.256-.467.374-.085.065-.167.122-.251.184-.149.11-.3.222-.444.324-.08.056-.157.105-.237.159-.147.1-.3.2-.439.294-.074.047-.144.088-.216.133-.147.091-.294.183-.436.267l-.186.105c-.147.084-.294.169-.435.245l-.155.08c-.145.077-.29.153-.427.221a14.232,14.232,0,0,1-2.469.988l-.528-.982h0L40.253,13.25H35.311l8.577,16.37H47.2s2.193-4.068,4.056-7.535h0q.237-.439.463-.862l.03-.055c.645-1.2,1.218-2.269,1.6-2.981-.236.24-.474.47-.711.689C52.565,18.939,52.5,19,52.429,19.056Z"/><path class="cls-1" d="M28.079,13.469h0l-5.3,10.466h-1.55v3.64l-.5,1.385-5.2-6.3a10.1,10.1,0,0,0,1.557-.57h0l.007,0c.165-.077.322-.158.474-.243l.092-.053c.122-.07.239-.142.352-.217.038-.025.076-.049.113-.075.1-.073.2-.148.3-.224.034-.027.07-.053.1-.081.124-.1.243-.209.353-.32a3.752,3.752,0,0,0,1.176-2.743,3.468,3.468,0,0,0-.457-1.621,5.324,5.324,0,0,0-1.339-1.589,7.454,7.454,0,0,0-2.177-1.209,8.545,8.545,0,0,0-2.971-.478H1.208V19.39H0v3.678H1.208V29.62H6.15V23.068h4.093l5.29,6.552h9.725l1.227-2.045H34.6l.754,2.045h5.233l-7.6-16.151ZM14.52,18.747a2.036,2.036,0,0,1-.555.522,3.21,3.21,0,0,1-.794.371,2.983,2.983,0,0,1-.9.141H6.15V16.515h6.117a2.984,2.984,0,0,1,.9.142,3.21,3.21,0,0,1,.794.371,2.1,2.1,0,0,1,.555.511.98.98,0,0,1,.207.587A1.061,1.061,0,0,1,14.52,18.747Zm13.559,5.188.879-1.85h0l1.576-3.318,2.455,5.168Z"/><path class="cls-1" d="M59.719,13.426a11.965,11.965,0,0,0-3.466,2.489v3.573H55.047v3.629h1.206v6.5h18.2V26.391H61.1V23.117H71.155V19.488H61.1V16.7H74.451V13.426H59.719Z"/><polygon class="cls-1" points="90.338 17.085 91.523 17.085 91.523 22.085 91.523 23.698 89.846 22.085 89.846 22.085 80.885 13.469 80.885 13.469 76.169 13.469 76.169 22.085 76.169 29.598 80.885 29.598 80.885 22.085 80.885 22.085 80.885 19.37 91.523 29.598 96.261 29.598 96.261 22.085 96.261 13.469 90.338 13.469 90.338 17.085"/><path class="cls-1" d="M47,3.842l.981-.049-.6.54q.263.358.484.73l1.647-.274-1.15,1.219C51.2,15.583,46.3,21.479,46.3,21.479c3.981-1.378,9.34-7.35,13.585-9.547,4.1-2.122,7.9-.063,7.654-.831C67.014,9.418,63.23,7.42,63.23,7.42a7.835,7.835,0,0,0-4.653-2.595,12.784,12.784,0,0,0-5.428.32C49.342.15,40.928,0,40.928,0A12.643,12.643,0,0,1,47,3.842ZM59.652,6.967a3.838,3.838,0,0,1,2.092.982A3.36,3.36,0,0,1,60.807,8a1.875,1.875,0,0,1-1.269-.539C59.16,7.079,59.287,6.921,59.652,6.967Z"/><path class="cls-2" d="M157.211,21.493a8.716,8.716,0,0,1-.591,3.256,7.311,7.311,0,0,1-4.239,4.217,9.083,9.083,0,0,1-3.346.591H142.89V13.429h6.145a9.043,9.043,0,0,1,3.346.595,7.582,7.582,0,0,1,2.577,1.663,7.438,7.438,0,0,1,1.662,2.548A8.731,8.731,0,0,1,157.211,21.493Zm-3.079,0a7.518,7.518,0,0,0-.351-2.382,4.918,4.918,0,0,0-1.015-1.784,4.424,4.424,0,0,0-1.606-1.121,5.494,5.494,0,0,0-2.125-.391H145.9V27.17h3.134a5.494,5.494,0,0,0,2.125-.391,4.412,4.412,0,0,0,1.606-1.121,4.918,4.918,0,0,0,1.015-1.784A7.516,7.516,0,0,0,154.132,21.493Z"/><path class="cls-2" d="M162.866,15.815v4.473h5.644V22.6h-5.644v4.562h7.16v2.4H159.855V13.429h10.171v2.386Z"/><path class="cls-2" d="M190.17,13.429V29.557h-2.644V19.14c0-.417.023-.868.067-1.35l-4.874,9.156a1.124,1.124,0,0,1-1.059.658h-.424a1.126,1.126,0,0,1-1.06-.658l-4.929-9.19q.033.367.055.725c.015.239.022.457.022.659V29.557h-2.643V13.429h2.264c.134,0,.249,0,.346.01a.979.979,0,0,1,.262.056.559.559,0,0,1,.212.145,1.222,1.222,0,0,1,.184.268l4.83,8.956c.126.239.243.484.351.737s.214.513.318.781c.1-.276.212-.541.324-.8s.23-.5.357-.741l4.762-8.935a1.105,1.105,0,0,1,.19-.268.609.609,0,0,1,.217-.145.979.979,0,0,1,.262-.056c.1-.006.212-.01.346-.01Z"/><path class="cls-2" d="M209.142,21.493a9.014,9.014,0,0,1-.585,3.284,7.73,7.73,0,0,1-1.657,2.617,7.517,7.517,0,0,1-2.576,1.722,9.323,9.323,0,0,1-6.681,0,7.581,7.581,0,0,1-2.582-1.722,7.741,7.741,0,0,1-1.668-2.617,9.422,9.422,0,0,1,0-6.569,7.713,7.713,0,0,1,1.668-2.615,7.571,7.571,0,0,1,2.582-1.724,8.685,8.685,0,0,1,3.335-.619,9.076,9.076,0,0,1,2.308.284,8.116,8.116,0,0,1,1.986.8A7.38,7.38,0,0,1,206.9,15.6a7.722,7.722,0,0,1,1.221,1.656,8.127,8.127,0,0,1,.764,1.985A9.437,9.437,0,0,1,209.142,21.493Zm-3.067,0a7.4,7.4,0,0,0-.357-2.382,5.108,5.108,0,0,0-1.015-1.79,4.351,4.351,0,0,0-1.6-1.127,5.982,5.982,0,0,0-4.249,0,4.395,4.395,0,0,0-1.606,1.127,5.057,5.057,0,0,0-1.021,1.79,7.4,7.4,0,0,0-.357,2.382,7.4,7.4,0,0,0,.357,2.381,4.987,4.987,0,0,0,1.021,1.784,4.4,4.4,0,0,0,1.606,1.121,5.967,5.967,0,0,0,4.249,0,4.36,4.36,0,0,0,1.6-1.121,5.036,5.036,0,0,0,1.015-1.784A7.4,7.4,0,0,0,206.075,21.493Z"/></svg>