<svg id="Warstwa_1" data-name="Warstwa 1" xmlns="http://www.w3.org/2000/svg" viewBox="0 0 175 119"><defs><style>.cls-1,.cls-4{opacity:0.45;}.cls-2,.cls-3,.cls-4{fill:none;stroke:#fff;stroke-miterlimit:10;stroke-width:5px;}.cls-3{stroke-dasharray:6.313 6.313;}.cls-5{fill:#c69c6d;}.cls-6{fill:#f9fff0;}.cls-7{fill:#bcbcbc;}.cls-8{opacity:0.05;}.cls-9{fill:#5d7486;}.cls-10{fill:#50acff;}.cls-11{fill:#ffcc5a;}</style></defs><g class="cls-1"><line class="cls-2" x1="42.856" y1="11.097" x2="44.905" y2="13.288"/><line class="cls-3" x1="49.216" y1="17.9" x2="107.421" y2="80.159"/><line class="cls-2" x1="109.577" y1="82.465" x2="111.625" y2="84.656"/></g><line class="cls-4" x1="51.087" y1="42.828" x2="51.087" y2="105.753"/><circle class="cls-5" cx="106.407" cy="78.037" r="22.749"/><path class="cls-6" d="M117.949,93.768H94.866V68.921l6.615-6.616h16.468Z"/><rect class="cls-7" x="100.014" y="72.994" width="7.323" height="1.532"/><rect class="cls-7" x="100.014" y="75.884" width="13.258" height="1.532"/><rect class="cls-7" x="100.014" y="78.657" width="13.258" height="1.532"/><rect class="cls-7" x="100.014" y="81.548" width="13.258" height="1.532"/><polygon class="cls-8" points="101.514 68.947 94.865 75.595 94.865 68.92 98.176 65.609 101.514 68.947"/><polygon class="cls-7" points="101.481 68.921 94.865 68.921 101.481 62.305 101.481 68.921"/><circle class="cls-9" cx="51.087" cy="96.251" r="22.749"/><path class="cls-6" d="M62.629,111.983H39.545V87.135l6.616-6.615H62.629Z"/><rect class="cls-7" x="44.694" y="91.209" width="7.323" height="1.532"/><rect class="cls-7" x="44.694" y="94.099" width="13.258" height="1.532"/><rect class="cls-7" x="44.694" y="96.872" width="13.258" height="1.532"/><rect class="cls-7" x="44.694" y="99.762" width="13.258" height="1.532"/><polygon class="cls-8" points="46.194 87.161 39.545 93.81 39.545 87.135 42.856 83.824 46.194 87.161"/><polygon class="cls-7" points="46.161 87.135 39.545 87.135 46.161 80.52 46.161 87.135"/><line class="cls-4" x1="71.217" y1="19.361" x2="127.406" y2="19.361"/><circle class="cls-10" cx="123.913" cy="23.694" r="22.749"/><path class="cls-6" d="M135.455,39.426H112.371V14.578l6.616-6.616h16.468Z"/><rect class="cls-7" x="117.52" y="18.651" width="7.323" height="1.532"/><rect class="cls-7" x="117.52" y="21.542" width="13.258" height="1.532"/><rect class="cls-7" x="117.52" y="24.315" width="13.258" height="1.532"/><rect class="cls-7" x="117.52" y="27.205" width="13.258" height="1.532"/><polygon class="cls-8" points="119.02 14.604 112.371 21.253 112.371 14.577 115.682 11.267 119.02 14.604"/><polygon class="cls-7" points="118.987 14.578 112.371 14.578 118.987 7.962 118.987 14.578"/><circle class="cls-11" cx="51.087" cy="23.524" r="22.749"/><path class="cls-6" d="M62.629,39.256H39.545V14.408l6.616-6.615H62.629Z"/><rect class="cls-7" x="44.694" y="18.482" width="7.323" height="1.532"/><rect class="cls-7" x="44.694" y="21.372" width="13.258" height="1.532"/><rect class="cls-7" x="44.694" y="24.145" width="13.258" height="1.532"/><rect class="cls-7" x="44.694" y="27.035" width="13.258" height="1.532"/><polygon class="cls-8" points="46.194 14.435 39.545 21.083 39.545 14.408 42.856 11.097 46.194 14.435"/><polygon class="cls-7" points="46.161 14.409 39.545 14.409 46.161 7.793 46.161 14.409"/></svg>