<?xml version="1.0" encoding="utf-8"?>
<!-- Generator: Adobe Illustrator 26.0.1, SVG Export Plug-In . SVG Version: 6.00 Build 0)  -->
<svg version="1.1" id="Warstwa_1" xmlns="http://www.w3.org/2000/svg" xmlns:xlink="http://www.w3.org/1999/xlink" x="0px" y="0px"
	 viewBox="0 0 175 119" style="enable-background:new 0 0 175 119;" xml:space="preserve">
<style type="text/css">
	.st0{fill:#FFCC5A;}
	.st1{fill:#F9FFF0;}
	.st2{fill:#BCBCBC;}
	.st3{opacity:5.000000e-02;enable-background:new    ;}
	.st4{fill:#C69C6D;}
	.st5{fill:#5D7486;}
	.st6{fill:#2CD7FF;}
</style>
<circle class="st0" cx="141.6" cy="59.9" r="33"/>
<path class="st1" d="M158.3,82.7h-33.4v-36l9.6-9.6h23.9L158.3,82.7z"/>
<rect x="132.4" y="52.6" class="st2" width="10.6" height="2.2"/>
<rect x="132.4" y="56.8" class="st2" width="19.2" height="2.2"/>
<rect x="132.4" y="60.8" class="st2" width="19.2" height="2.2"/>
<rect x="132.4" y="65" class="st2" width="19.2" height="2.2"/>
<polygon class="st3" points="134.5,46.7 124.9,56.4 124.9,46.7 129.7,41.9 "/>
<polygon class="st2" points="134.5,46.7 124.9,46.7 134.5,37.1 "/>
<circle class="st4" cx="33.4" cy="59.9" r="33"/>
<path class="st1" d="M50.1,82.7H16.7v-36l9.6-9.6h23.9V82.7z"/>
<rect x="24.1" y="52.6" class="st2" width="10.6" height="2.2"/>
<rect x="24.1" y="56.8" class="st2" width="19.2" height="2.2"/>
<rect x="24.1" y="60.8" class="st2" width="19.2" height="2.2"/>
<rect x="24.1" y="65" class="st2" width="19.2" height="2.2"/>
<polygon class="st3" points="26.3,46.7 16.7,56.4 16.7,46.7 21.5,41.9 "/>
<polygon class="st2" points="26.3,46.7 16.7,46.7 26.3,37.1 "/>
<circle class="st5" cx="87.5" cy="59.9" r="59.1"/>
<path class="st1" d="M114.3,96.5H60.7V38.7L76,23.3h38.3V96.5z"/>
<rect x="72.6" y="48.2" class="st2" width="17" height="3.6"/>
<rect x="72.6" y="54.9" class="st2" width="30.8" height="3.6"/>
<rect x="72.6" y="61.3" class="st2" width="30.8" height="3.6"/>
<rect x="72.6" y="68.1" class="st2" width="30.8" height="3.6"/>
<polygon class="st3" points="76.1,38.8 60.7,54.2 60.7,38.7 68.4,31 "/>
<polygon class="st2" points="76,38.7 60.7,38.7 76,23.3 "/>
<path class="st6" d="M126.7-0.1l-13.3,14.6l0,0h9.4v18.1l0,0h8.1l0,0V14.6h9.3l0,0L126.7-0.1z"/>
</svg>
