<svg xmlns="http://www.w3.org/2000/svg" xmlns:xlink="http://www.w3.org/1999/xlink" viewBox="0 0 175 119"><defs><style>.cls-1{isolation:isolate;}.cls-2{fill:#ffcc5a;}.cls-3{fill:#f9fff0;}.cls-4{fill:#bcbcbc;}.cls-5{opacity:0.05;}.cls-6{fill:#c69c6d;}.cls-7{fill:#5d7486;}.cls-8{fill:#73b7e0;}.cls-12,.cls-13,.cls-9{mix-blend-mode:multiply;}.cls-12,.cls-9{opacity:0.3;}.cls-9{fill:url(#linear-gradient);}.cls-10{fill:#47718a;}.cls-11{fill:#ff266b;}.cls-12{fill:url(#linear-gradient-2);}.cls-13{opacity:0.33;fill:url(#radial-gradient);}.cls-14{opacity:0.09;}</style><linearGradient id="linear-gradient" x1="-82.274" y1="1928.181" x2="-82.274" y2="1924.701" gradientTransform="matrix(0.558, -0.83, 0.83, 0.558, -1434.5, -1054.327)" gradientUnits="userSpaceOnUse"><stop offset="0" stop-color="#fff"/><stop offset="1"/></linearGradient><linearGradient id="linear-gradient-2" x1="-84.643" y1="1950.997" x2="-75.266" y2="1950.997" xlink:href="#linear-gradient"/><radialGradient id="radial-gradient" cx="-82.141" cy="1903.75" r="22.177" gradientTransform="translate(-1434.188 -1054.031) rotate(-56.088)" gradientUnits="userSpaceOnUse"><stop offset="0.531" stop-color="#cfedff"/><stop offset="1" stop-color="#ade1ff"/></radialGradient></defs><g class="cls-1"><g id="Warstwa_1" data-name="Warstwa 1"><circle class="cls-2" cx="141.612" cy="59.888" r="32.953"/><path class="cls-3" d="M158.332,82.676H124.894V46.683l9.583-9.583h23.855Z"/><rect class="cls-4" x="132.351" y="52.583" width="10.607" height="2.219"/><rect class="cls-4" x="132.351" y="56.77" width="19.204" height="2.219"/><rect class="cls-4" x="132.351" y="60.787" width="19.204" height="2.219"/><rect class="cls-4" x="132.351" y="64.974" width="19.204" height="2.219"/><polygon class="cls-5" points="134.524 46.721 124.893 56.351 124.893 46.682 129.689 41.886 134.524 46.721"/><polygon class="cls-4" points="134.476 46.683 124.893 46.683 134.476 37.1 134.476 46.683"/><circle class="cls-6" cx="33.388" cy="59.888" r="32.953"/><path class="cls-3" d="M50.107,82.676H16.669V46.683L26.252,37.1H50.107Z"/><rect class="cls-4" x="24.127" y="52.583" width="10.607" height="2.219"/><rect class="cls-4" x="24.127" y="56.77" width="19.204" height="2.219"/><rect class="cls-4" x="24.127" y="60.787" width="19.204" height="2.219"/><rect class="cls-4" x="24.127" y="64.974" width="19.204" height="2.219"/><polygon class="cls-5" points="26.299 46.721 16.669 56.351 16.669 46.682 21.465 41.886 26.299 46.721"/><polygon class="cls-4" points="26.252 46.683 16.668 46.683 26.252 37.1 26.252 46.683"/><circle class="cls-7" cx="87.5" cy="59.888" r="59.112"/><path class="cls-3" d="M114.336,96.465H60.665V38.693L76.047,23.311h38.289Z"/><rect class="cls-4" x="72.635" y="48.163" width="17.026" height="3.561"/><rect class="cls-4" x="72.635" y="54.884" width="30.825" height="3.561"/><rect class="cls-4" x="72.635" y="61.331" width="30.825" height="3.561"/><rect class="cls-4" x="72.635" y="68.051" width="30.825" height="3.561"/><polygon class="cls-5" points="76.122 38.753 60.665 54.211 60.665 38.691 68.362 30.993 76.122 38.753"/><polygon class="cls-4" points="76.046 38.693 60.664 38.693 76.046 23.311 76.046 38.693"/><rect class="cls-8" x="117.678" y="86.021" width="3.705" height="6.937" transform="translate(-21.425 138.759) rotate(-56.088)"/><rect class="cls-8" x="117.678" y="86.021" width="3.705" height="6.937" transform="translate(-21.425 138.759) rotate(-56.088)"/><path class="cls-9" d="M120.7,88.044l-3.015-2.027-2.067,3.075,3.015,2.027q.57-.721,1.093-1.5T120.7,88.044Z"/><path class="cls-10" d="M154.92,108.611a3.4,3.4,0,0,1,1.313,4.642l-.843,1.254a3.4,3.4,0,0,1-4.795.537l-.767-.538-1.162-.817-.663-.465-1.164-.817L121.257,94.454A1.6,1.6,0,0,1,120.7,92.3l1.872-2.784a1.6,1.6,0,0,1,2.206-.3l26.282,16.912,1.2.769.68.438,1.195.769Z"/><polygon class="cls-11" points="125.816 97.653 129.463 92.229 127.963 91.263 124.356 96.629 125.816 97.653"/><polygon class="cls-11" points="152.257 106.897 148.003 113.224 146.839 112.407 151.061 106.128 152.257 106.897"/><polygon class="cls-11" points="154.132 108.104 149.828 114.506 148.666 113.689 152.937 107.335 154.132 108.104"/><path class="cls-12" d="M121.636,90.905,120.7,92.3a1.6,1.6,0,0,0,.558,2.158l29.336,20.588a3.4,3.4,0,0,0,4.8-.535l.421-.627Z"/><path class="cls-13" d="M117.181,87.91A20.835,20.835,0,1,1,111.514,59,20.858,20.858,0,0,1,117.181,87.91Z"/><g class="cls-14"><path d="M118.06,88.5a21.894,21.894,0,1,1-5.955-30.385A21.919,21.919,0,0,1,118.06,88.5Zm-33.8-22.72A18.829,18.829,0,1,0,110.4,60.66,18.85,18.85,0,0,0,84.264,65.781Z"/></g><path class="cls-8" d="M118.594,88.86a22.538,22.538,0,1,1-6.129-31.279A22.563,22.563,0,0,1,118.594,88.86ZM83.805,65.472A19.382,19.382,0,1,0,110.7,60.2,19.4,19.4,0,0,0,83.805,65.472Z"/></g></g></svg>