<svg id="Warstwa_1" data-name="Warstwa 1" xmlns="http://www.w3.org/2000/svg" viewBox="0 0 175 119"><defs><style>.cls-1{fill:#f9fff0;}.cls-2{fill:#bcbcbc;}.cls-3{opacity:0.05;}.cls-4,.cls-7,.cls-8{fill:none;stroke-miterlimit:10;}.cls-4{stroke:#ffcc5a;stroke-width:3px;}.cls-5{fill:#ffcc5a;}.cls-6{fill:#f2f2f2;}.cls-7{stroke:#bcbcbc;}.cls-8{stroke:#828282;}</style></defs><path class="cls-1" d="M130.983,119H44.019V25.39L68.942.466h62.041Z"/><rect class="cls-2" x="63.414" y="40.736" width="27.588" height="5.77"/><rect class="cls-2" x="63.414" y="51.625" width="49.946" height="5.77"/><rect class="cls-2" x="63.414" y="62.071" width="49.946" height="5.77"/><rect class="cls-2" x="63.414" y="72.961" width="49.946" height="5.77"/><polygon class="cls-3" points="69.064 25.489 44.018 50.535 44.018 25.387 56.49 12.915 69.064 25.489"/><polygon class="cls-2" points="68.941 25.391 44.017 25.391 68.941 0.466 68.941 25.391"/><path class="cls-4" d="M112.287,4A15.036,15.036,0,0,0,97.251,19.033h0a15.036,15.036,0,1,0,30.072,0h0"/><polygon class="cls-5" points="130.315 19.909 127.323 14.728 124.331 19.909 130.315 19.909"/><circle class="cls-6" cx="112.287" cy="19.033" r="11.407"/><line class="cls-7" x1="123.693" y1="19.033" x2="120.881" y2="19.033"/><line class="cls-7" x1="103.692" y1="19.033" x2="100.88" y2="19.033"/><line class="cls-7" x1="112.287" y1="7.627" x2="112.287" y2="10.438"/><line class="cls-7" x1="112.287" y1="27.628" x2="112.287" y2="30.44"/><line class="cls-7" x1="104.221" y1="10.967" x2="106.209" y2="12.956"/><line class="cls-7" x1="118.364" y1="25.11" x2="120.352" y2="27.099"/><line class="cls-7" x1="120.352" y1="10.967" x2="118.364" y2="12.956"/><line class="cls-7" x1="106.209" y1="25.11" x2="104.221" y2="27.099"/><line class="cls-8" x1="112.287" y1="19.033" x2="118.116" y2="19.033"/><line class="cls-8" x1="112.287" y1="19.033" x2="115.132" y2="16.188"/><circle class="cls-5" cx="112.287" cy="19.033" r="1.039"/></svg>