<svg id="Warstwa_1" data-name="Warstwa 1" xmlns="http://www.w3.org/2000/svg" viewBox="0 0 175 119"><defs><style>.cls-1{fill:#ffcc5a;}.cls-2{fill:#f9fff0;}.cls-3{fill:#bcbcbc;}.cls-4{fill:#828282;}.cls-5{fill:#b9ea24;}</style></defs><path class="cls-1" d="M149.6,62.986,138.88,44.4,128.1,62.948l5.247.009A48.63,48.63,0,1,1,84.908,11.219L84.927.466a59.267,59.267,0,1,0,59.225,62.51Z"/><ellipse class="cls-2" cx="85.296" cy="59.733" rx="40.987" ry="40.882"/><rect class="cls-3" x="116.181" y="57.942" width="10.103" height="3.584"/><rect class="cls-3" x="44.307" y="57.942" width="10.106" height="3.584"/><rect class="cls-3" x="83.5" y="18.853" width="3.593" height="10.077"/><rect class="cls-3" x="83.5" y="90.538" width="3.593" height="10.077"/><polygon class="cls-3" points="62.19 39.22 55.042 32.094 57.582 29.56 64.73 36.686 62.19 39.22"/><polygon class="cls-3" points="113.008 89.908 105.864 82.782 108.404 80.248 115.549 87.374 113.008 89.908"/><polygon class="cls-3" points="108.404 39.22 105.864 36.686 113.008 29.56 115.549 32.094 108.404 39.22"/><polygon class="cls-3" points="57.582 89.908 55.042 87.374 62.19 80.248 64.73 82.782 57.582 89.908"/><rect class="cls-4" x="85.297" y="57.942" width="20.946" height="3.584"/><polygon class="cls-4" points="86.567 61.001 84.027 58.467 94.249 48.267 96.789 50.801 86.567 61.001"/><ellipse class="cls-1" cx="85.296" cy="59.733" rx="3.733" ry="3.724"/><path class="cls-5" d="M121.943,32.931l13.324-14.618-.012-.026H125.9V.2L125.9.19h-8.071L117.817.2V18.288h-9.345l-.009.022Z"/></svg>